<?xml version="1.0" standalone="no"?>
<!DOCTYPE svg PUBLIC "-//W3C//DTD SVG 1.1//EN" "http://www.w3.org/Graphics/SVG/1.1/DTD/svg11.dtd" >
<svg xmlns="http://www.w3.org/2000/svg" xmlns:xlink="http://www.w3.org/1999/xlink" version="1.1">
<metadata>
Created by FontForge 20201107 at Thu Jun 13 21:04:51 2024
 By 
Copyright (c) 2022 by Lewis MacDonald. All rights reserved.
</metadata>
<defs>
<font id="Freizeit120-ExtraBold" horiz-adv-x="0">
  <font-face font-family="Freizeit 120 ExtraBold" font-weight="800" font-stretch="semi-expanded" units-per-em="2048" panose-1="2 1 0 3 5 3 2 6 2 3" ascent="1638" descent="-410" x-height="1024" cap-height="1434" bbox="-354 -390.083 3929 1923" underline-thickness="286" underline-position="-593" unicode-range="U+0020-F8FF"></font-face>
<missing-glyph horiz-adv-x="1685" d="M203 0v1434h1279v-1434h-1279zM244 69l572 648l-572 648v-1296zM272 41h1141l-570 646zM272 1393l571 -646l570 646h-1141zM869 717l572 -648v1296z"></missing-glyph>
    <glyph glyph-name="f_f" unicode="ff" horiz-adv-x="2058" d="M1261 1041q0 210 124.5 311.5t379.5 101.5q187 0 289 -41v-283q-86 37 -195 37q-67 0 -113 -16t-66 -42t-27 -48t-7 -46v-11h408v-254h-408v-750h-385v750h-555v-750h-386v750h-285v274h285v17q0 209 125 311t380 102q187 0 289 -41v-283q-86 37 -195 37q-67 0 -113 -16
t-66 -42t-27 -48t-7 -46v-11h555v37z"></glyph>
    <glyph glyph-name=".notdef" horiz-adv-x="1685" d="M203 0v1434h1279v-1434h-1279zM244 69l572 648l-572 648v-1296zM272 41h1141l-570 646zM272 1393l571 -646l570 646h-1141zM869 717l572 -648v1296z"></glyph>
    <glyph glyph-name=".null"></glyph>
    <glyph glyph-name="nonmarkingreturn" horiz-adv-x="682"></glyph>
    <glyph glyph-name="space" unicode=" " horiz-adv-x="518"></glyph>
    <glyph glyph-name="space" unicode="&#xa0;" horiz-adv-x="518"></glyph>
    <glyph glyph-name="exclam" unicode="!" horiz-adv-x="798" d="M254 451l-70 983h430l-71 -983h-289zM202 0v328h394v-328h-394z"></glyph>
    <glyph glyph-name="quotedbl" unicode="&#x22;" horiz-adv-x="1249" d="M193 799l-14 635h350l-14 -635h-322zM720 1434h349l-14 -635h-321z"></glyph>
    <glyph glyph-name="numbersign" unicode="#" horiz-adv-x="2308" d="M1498 0l-56 330l-439 -1l55 -329h-356l-55 328h-419l-37 270l411 1l-46 273h-418l-38 271h410l-49 291h356l49 -291h440l-49 291h356l49 -291h415l40 -271h-410l45 -271l418 1l37 -270l-409 -1l55 -331h-355zM911 872l46 -272h440l-46 272h-440z"></glyph>
    <glyph glyph-name="dollar" unicode="$" horiz-adv-x="1785" d="M992 -225l-41 242q-329 1 -534.5 131t-225.5 354h426q24 -81 97 -131t188 -63l-45 262l-235 17q-249 18 -377.5 114.5t-128.5 263.5q0 186 161.5 306.5t436.5 142.5l-41 245h121l41 -241q329 -1 535 -129.5t227 -352.5h-428q-52 167 -285 192l44 -260l235 -17
q249 -18 378 -115t129 -265q0 -186 -162 -306.5t-437 -142.5l42 -247h-121zM525 1000q0 -57 53.5 -84t156.5 -34l70 -5l-43 254q-109 -5 -173 -39.5t-64 -91.5zM980 561l43 -256q110 6 175 40.5t65 90.5q0 105 -221 120z"></glyph>
    <glyph glyph-name="percent" unicode="%" horiz-adv-x="3000" d="M819 0l1001 1434h361l-1000 -1434h-362zM108 993q0 212 156.5 336.5t420.5 124.5t420.5 -124.5t156.5 -336.5t-156.5 -336.5t-420.5 -124.5t-420.5 124.5t-156.5 336.5zM467 1015q0 -101 65.5 -162.5t173.5 -61.5q94 0 145.5 46.5t51.5 133.5q0 101 -65.5 163t-173.5 62
q-94 0 -145.5 -47t-51.5 -134zM1738 440q0 212 157 336.5t421 124.5t420.5 -124.5t156.5 -336.5t-156.5 -336t-420.5 -124t-421 124t-157 336zM2098 462q0 -101 65 -162.5t173 -61.5q94 0 145.5 46.5t51.5 133.5q0 100 -65 162.5t-173 62.5q-94 0 -145.5 -47t-51.5 -134z
"></glyph>
    <glyph glyph-name="ampersand" unicode="&#x26;" horiz-adv-x="2074" d="M680 -20q-268 0 -426 106t-158 287q0 145 114.5 248t350.5 170v4q-124 65 -187.5 139.5t-63.5 168.5q0 157 159.5 254t407.5 97q247 0 399.5 -95.5t152.5 -245.5q0 -115 -92 -212.5t-252 -163.5l221 -175q149 153 280 387h400q-201 -363 -429 -588l453 -361h-470
l-217 171q-293 -191 -643 -191zM481 424q0 -65 69 -101.5t183 -36.5q171 0 332 88l-299 235q-153 -43 -219 -84.5t-66 -100.5zM699 1063q0 -19 8 -37t16.5 -30t30 -28.5t32 -24t39 -25t36.5 -22.5q115 40 165.5 75.5t50.5 89.5t-50.5 86.5t-137.5 32.5q-86 0 -138 -32
t-52 -85z"></glyph>
    <glyph glyph-name="quotesingle" unicode="'" horiz-adv-x="708" d="M193 799l-14 635h350l-14 -635h-322z"></glyph>
    <glyph glyph-name="parenleft" unicode="(" horiz-adv-x="849" d="M457 -205q-160 136 -259.5 369t-99.5 491t99.5 491t259.5 369h371q-181 -163 -280.5 -383.5t-99.5 -459.5q0 -255 109.5 -484.5t308.5 -392.5h-409z"></glyph>
    <glyph glyph-name="parenright" unicode=")" horiz-adv-x="849" d="M392 1516q160 -136 259.5 -369.5t99.5 -491.5t-99.5 -491t-259.5 -369h-371q181 163 280.5 384t99.5 460q0 255 -109.5 484.5t-308.5 392.5h409z"></glyph>
    <glyph glyph-name="asterisk" unicode="*" horiz-adv-x="1626" d="M625 213l-310 205l334 323l-2 4l-533 -90v369l533 -90l2 4l-334 324l310 204l186 -432h4l187 432l310 -204l-334 -324l2 -4l533 90v-369l-533 90l-2 -4l334 -323l-310 -205l-187 432h-4z"></glyph>
    <glyph glyph-name="plus" unicode="+" horiz-adv-x="1613" d="M126 561v311h520v418h322v-418h520v-311h-520v-418h-322v418h-520z"></glyph>
    <glyph glyph-name="comma" unicode="," horiz-adv-x="817" d="M79 -231l296 559h375l-336 -559h-335z"></glyph>
    <glyph glyph-name="hyphen" unicode="-" horiz-adv-x="1253" d="M156 522v307h942v-307h-942z"></glyph>
    <glyph glyph-name="period" unicode="." horiz-adv-x="829" d="M218 0v328h394v-328h-394z"></glyph>
    <glyph glyph-name="slash" unicode="/" horiz-adv-x="1024" d="M-35 -82l737 1516h358l-737 -1516h-358z"></glyph>
    <glyph glyph-name="zero" unicode="0" horiz-adv-x="1689" d="M845 -20q-344 0 -546 199t-202 538t202 538t546 199t545.5 -198.5t201.5 -538.5t-201.5 -538.5t-545.5 -198.5zM519 766q0 -205 98 -332t263 -127q136 0 212 91t79 259q4 202 -92 335.5t-269 133.5q-138 0 -214.5 -93t-76.5 -267z"></glyph>
    <glyph glyph-name="one" unicode="1" horiz-adv-x="1087" d="M497 0v879h-440v295h351q74 0 91.5 16.5t17.5 85.5v158h384v-1434h-404z"></glyph>
    <glyph glyph-name="two" unicode="2" horiz-adv-x="1601" d="M107 0q-6 131 3.5 226.5t44.5 172t79.5 128.5t128.5 101t170 84t225 82q157 52 190 67q116 50 128 120q2 10 2 20q0 66 -68.5 106t-188.5 40q-130 0 -205 -52t-85 -151l-426 -2q7 244 194 378t510 134q308 0 494.5 -121t186.5 -334q0 -68 -21 -125t-60 -100.5t-89 -79
t-114 -65t-129.5 -54.5t-140.5 -51q-31 -10 -47 -16q-200 -70 -271.5 -107.5t-89.5 -93.5h957v-307h-1378z"></glyph>
    <glyph glyph-name="three" unicode="3" horiz-adv-x="1626" d="M825 -20q-337 0 -533 143.5t-195 399.5h428q2 -116 83.5 -177.5t231.5 -61.5q122 0 193.5 39.5t71.5 109.5t-73 108.5t-209 38.5h-156v276h155q135 0 207 38t72 108t-71.5 109t-193.5 39q-148 0 -227.5 -60t-82.5 -176h-426q-1 255 193 397.5t530 142.5q200 0 357 -50.5
t245 -143t88 -211.5q0 -120 -89 -204.5t-256 -122.5v-4q169 -38 260 -123.5t91 -207.5q0 -120 -88.5 -213t-246.5 -143.5t-359 -50.5z"></glyph>
    <glyph glyph-name="four" unicode="4" horiz-adv-x="1765" d="M1002 0v414h-946v291l801 729h538v-734h314v-286h-314v-414h-393zM518 705l1 -5h489q0 266 7 482h-5q-149 -154 -492 -477z"></glyph>
    <glyph glyph-name="five" unicode="5" horiz-adv-x="1642" d="M846 -20q-331 0 -529 136t-212 380h438q20 -97 105.5 -152t219.5 -55q124 0 194 50.5t70 142.5q0 106 -81 170.5t-216 64.5q-88 0 -160 -29.5t-113 -81.5h-436l130 828h1188v-308h-856l-49 -258h5q66 60 181.5 95.5t250.5 35.5q262 0 418 -134t156 -363
q0 -172 -92 -291.5t-248 -175t-364 -55.5z"></glyph>
    <glyph glyph-name="six" unicode="6" horiz-adv-x="1675" d="M882 -20q-365 0 -575.5 193.5t-212.5 522.5q-1 127 31 240.5t98 208t159 163.5t221.5 107.5t280.5 38.5q266 0 445.5 -115t223.5 -325h-406q-23 63 -96 97t-184 34q-192 0 -279.5 -106.5t-83.5 -336.5q57 119 184 183.5t309 64.5q258 0 417.5 -126t159.5 -338
q0 -155 -87.5 -270t-243.5 -175.5t-361 -60.5zM566 499q0 -96 89 -158t228 -62q124 0 200 51t76 136q0 96 -90 158t-229 62q-125 0 -199.5 -51t-74.5 -136z"></glyph>
    <glyph glyph-name="seven" unicode="7" horiz-adv-x="1425" d="M251 0q4 332 171.5 612t477.5 490v4h-856v328h1339v-332q-340 -188 -525 -470t-187 -632h-420z"></glyph>
    <glyph glyph-name="eight" unicode="8" horiz-adv-x="1611" d="M805 -20q-313 0 -506 113t-193 294q0 122 93.5 209t262.5 122v4q-164 34 -256 120.5t-92 208.5q0 178 189.5 290.5t500.5 112.5q310 0 501 -112.5t191 -292.5q0 -121 -91 -206.5t-256 -120.5v-4q167 -35 260.5 -122.5t93.5 -210.5q0 -118 -86.5 -210t-245.5 -143.5
t-366 -51.5zM516 436q0 -77 81 -122t222 -45q131 0 203 39t72 109q0 76 -81 120.5t-223 44.5q-130 0 -202 -38t-72 -108zM521 1020q0 -75 79.5 -118t218.5 -43q128 0 199 37.5t71 105.5q0 75 -79.5 119t-218.5 44q-128 0 -199 -38t-71 -107z"></glyph>
    <glyph glyph-name="nine" unicode="9" horiz-adv-x="1675" d="M793 1454q365 0 575 -194t212 -523q1 -159 -50.5 -296t-149 -240t-249 -162t-340.5 -59q-266 0 -445.5 115t-223.5 325h405q23 -63 96.5 -97t184.5 -34q192 0 279.5 106.5t83.5 336.5q-57 -119 -184 -184t-309 -65q-259 0 -418.5 126t-159.5 338q0 155 87.5 270.5
t244.5 176t361 60.5zM516 968q0 -96 90 -158t229 -62q125 0 199.5 50.5t74.5 135.5q0 96 -89 158.5t-228 62.5q-124 0 -200 -51t-76 -136z"></glyph>
    <glyph glyph-name="colon" unicode=":" horiz-adv-x="829" d="M218 652v328h394v-328h-394zM218 0v328h394v-328h-394z"></glyph>
    <glyph glyph-name="semicolon" unicode=";" horiz-adv-x="968" d="M318 676v328h394v-328h-394zM79 -231l296 559h375l-336 -559h-335z"></glyph>
    <glyph glyph-name="less" unicode="&#x3c;" horiz-adv-x="1488" d="M1285 1241v-358l-849 -164v-4l849 -164v-358l-1116 288v471z"></glyph>
    <glyph glyph-name="equal" unicode="=" horiz-adv-x="1548" d="M233 324v327h1082v-327h-1082zM233 782v328h1082v-328h-1082z"></glyph>
    <glyph glyph-name="greater" unicode="&#x3e;" horiz-adv-x="1488" d="M204 193v358l848 164v4l-848 164v358l1116 -289v-471z"></glyph>
    <glyph glyph-name="question" unicode="?" horiz-adv-x="1533" d="M298 453q-8 92 8.5 150.5t71 101.5t136.5 69t225 53q151 27 204 49q101 41 101 119q0 67 -69.5 109.5t-184.5 42.5q-137 0 -212 -63t-77 -181l-420 -2q-4 176 81 301.5t244.5 188.5t378.5 63q306 0 483.5 -120.5t177.5 -331.5q0 -178 -126 -287.5t-357 -148.5
q-201 -35 -237 -48q-39 -14 -53 -45q-4 -8 -8 -20h-367zM281 2v328h394v-328h-394z"></glyph>
    <glyph glyph-name="at" unicode="@" horiz-adv-x="3119" d="M1452 -390q-402 -3 -702 102t-467 313.5t-167 496.5q0 441 382 686.5t1077 245.5q416 0 719 -90t468 -268.5t165 -430.5q0 -255 -156 -397.5t-438 -142.5q-244 0 -377 112t-133 316v96h-190v211h190v162l329 -18v-123h236v-232h-236v-67q0 -102 63.5 -157.5t182.5 -55.5
q136 0 210.5 72t74.5 209q0 143 -76 252t-220 179t-347 105t-463 35q-582 0 -895 -176.5t-313 -518.5q0 -167 76.5 -297.5t217 -214.5t334.5 -127t433 -43q478 0 779 185v-283q-316 -135 -757 -136zM639 366q0 118 105.5 182.5t323.5 58.5q112 -2 160 4.5t46 31.5
q-3 43 -117 43q-113 0 -145 -51h-335q19 117 148 187.5t320 70.5q209 0 330.5 -85t121.5 -230v-248q0 -140 57 -185v-4h-339q-3 2 -9 20t-13.5 57.5t-12.5 86.5l-4 43h-3q-14 -98 -105 -159.5t-223 -61.5q-137 0 -221.5 65.5t-84.5 173.5zM972 421q0 -50 102 -50
q91 0 145 37.5t54 106.5v11h-2q-22 -31 -52 -40t-96 -11q-9 -1 -21.5 0t-27 0t-28.5 -2t-27.5 -5t-24 -9.5t-16.5 -15t-6 -22.5z"></glyph>
    <glyph glyph-name="A" unicode="A" horiz-adv-x="1869" d="M17 0l648 1434h541l646 -1434h-427l-135 329h-717l-135 -329h-421zM703 642h457q-152 357 -226 550h-5q-74 -193 -226 -550z"></glyph>
    <glyph glyph-name="B" unicode="B" horiz-adv-x="1773" d="M203 0v1434h900q78 0 149 -9t145 -34.5t127.5 -65t87.5 -106t34 -152.5q0 -138 -92 -227t-273 -125v-4q171 -33 256 -121.5t85 -221.5q0 -86 -33.5 -153t-86 -106.5t-125.5 -65t-143 -34.5t-148 -9h-883zM588 299h373q45 0 86 6t81 20.5t64 43t24 69.5q0 40 -24 68.5
t-64 42.5t-81 20t-86 6h-373v-276zM588 844h388q47 0 89.5 6.5t84.5 21.5t67 45t25 72t-25 72.5t-67 45.5t-85 21.5t-91 6.5h-386v-291z"></glyph>
    <glyph glyph-name="C" unicode="C" horiz-adv-x="1921" d="M964 -20q-251 0 -447 92t-305 260t-109 385t109 385t305 260t447 92q343 0 572.5 -167t279.5 -445h-447q-41 134 -153 209t-276 75q-186 0 -293.5 -101t-107.5 -277q0 -200 122.5 -320.5t327.5 -120.5q177 0 280.5 95.5t114.5 263.5h440q-16 -203 -127 -358.5
t-301 -241.5t-432 -86z"></glyph>
    <glyph glyph-name="D" unicode="D" horiz-adv-x="1845" d="M203 0v1434h578q461 0 711 -187t250 -530t-250 -530t-711 -187h-578zM604 317h175q262 0 402.5 103.5t140.5 296.5t-140.5 296t-402.5 103h-175v-799z"></glyph>
    <glyph glyph-name="E" unicode="E" horiz-adv-x="1585" d="M203 0v1434h1264v-328h-871v-232h821v-294h-821v-252h723v-328h-1116z"></glyph>
    <glyph glyph-name="F" unicode="F" horiz-adv-x="1550" d="M203 0v1434h1239v-328h-830v-258h781v-307h-781v-541h-409z"></glyph>
    <glyph glyph-name="G" unicode="G" horiz-adv-x="1978" d="M855 -20q-215 0 -386 92.5t-267.5 258.5t-96.5 376q0 223 108.5 392t310.5 262t470 93q313 0 532.5 -125t286.5 -344h-472q-39 72 -138 112t-229 40q-213 0 -327 -105.5t-114 -289.5q0 -199 126.5 -317t334.5 -118q161 0 270 77t149 218h-526v270h926v-872h-353l-12 346
h-5q-60 -174 -214.5 -270t-373.5 -96z"></glyph>
    <glyph glyph-name="H" unicode="H" horiz-adv-x="1951" d="M203 0v1434h409v-543h727v543h410v-1434h-410v563h-727v-563h-409z"></glyph>
    <glyph glyph-name="I" unicode="I" horiz-adv-x="815" d="M203 0v1434h409v-1434h-409z"></glyph>
    <glyph glyph-name="J" unicode="J" horiz-adv-x="1533" d="M732 -20q-289 0 -455.5 149.5t-166.5 413.5v327h409v-313q0 -124 58 -187t164 -63q102 0 156.5 62.5t54.5 187.5v877h410l-1 -891q0 -264 -168.5 -413.5t-460.5 -149.5z"></glyph>
    <glyph glyph-name="K" unicode="K" horiz-adv-x="1763" d="M203 0v1434h405q0 -381 -6 -605h5q239 254 620 605h525l-626 -579l626 -855h-504l-460 638l-180 -191v-447h-405z"></glyph>
    <glyph glyph-name="L" unicode="L" horiz-adv-x="1452" d="M203 0v1434h409v-1106h781v-328h-1190z"></glyph>
    <glyph glyph-name="M" unicode="M" horiz-adv-x="2396" d="M203 0v1434h614q249 -486 378 -780h5q129 294 378 780h615v-1434h-382q0 732 20 1178h-5q-221 -444 -626 -1178h-5q-405 734 -626 1178h-5q20 -446 20 -1178h-381z"></glyph>
    <glyph glyph-name="N" unicode="N" horiz-adv-x="2060" d="M203 0v1434h541q176 -242 257 -354.5t226 -325t264 -402.5l5 2q-20 414 -20 1080h381v-1434h-511q-177 248 -266 373.5t-238 347.5t-273 422l-5 -2q20 -434 20 -1141h-381z"></glyph>
    <glyph glyph-name="O" unicode="O" horiz-adv-x="1957" d="M979 -20q-258 0 -457.5 92.5t-309.5 260.5t-110 384t110 384t309.5 260.5t457.5 92.5q257 0 457 -93t310 -260.5t110 -383.5t-109.5 -383.5t-309.5 -260.5t-458 -93zM532 747q0 -201 128.5 -320.5t347.5 -119.5q193 0 305.5 100.5t112.5 277.5q0 201 -129 321t-348 120
q-192 0 -304.5 -101t-112.5 -278z"></glyph>
    <glyph glyph-name="P" unicode="P" horiz-adv-x="1751" d="M203 0v1434h812q316 0 487.5 -120.5t171.5 -340.5q0 -224 -181.5 -346.5t-515.5 -122.5h-365v-504h-409zM612 801h320q308 0 308 168t-308 168h-320v-336z"></glyph>
    <glyph glyph-name="Q" unicode="Q" horiz-adv-x="1884" d="M1288 -262q-241 0 -365 97.5t-130 287.5q-317 36 -508 215.5t-191 446.5q0 196 106 348.5t298.5 236.5t441.5 84t441.5 -84.5t298.5 -236.5t106 -348q0 -250 -170.5 -425.5t-457.5 -226.5q30 -102 206 -102q75 0 145.5 17t107.5 40v-285q-132 -65 -329 -65zM520 791
q0 -172 120.5 -276.5t324.5 -104.5q183 0 289.5 88t106.5 245q0 172 -121 277.5t-324 105.5q-183 0 -289.5 -88.5t-106.5 -246.5z"></glyph>
    <glyph glyph-name="R" unicode="R" horiz-adv-x="1796" d="M203 0v1434h894q303 0 464 -95.5t161 -276.5q0 -153 -119 -249t-353 -129v-4q106 -20 163.5 -85.5t73.5 -186.5q8 -66 13 -97.5t14.5 -78t20.5 -71t29.5 -55.5t44 -54.5t61.5 -47.5v-4h-447q-18 11 -32.5 23t-26.5 30t-19.5 30t-15.5 39.5t-12 41t-10 52.5t-8.5 56
t-9.5 68q-9 62 -34.5 103.5t-64.5 61t-78 27t-90 7.5h-214v-539h-405zM608 809h356q58 0 110 7t102.5 24t80.5 50.5t30 81.5q0 46 -28 79.5t-75 50t-94.5 24t-99.5 7.5h-382v-324z"></glyph>
    <glyph glyph-name="S" unicode="S" horiz-adv-x="1746" d="M936 -20q-331 0 -537.5 136t-227.5 373h425q28 -100 121.5 -154t242.5 -54q127 0 204.5 37.5t77.5 101.5q0 112 -220 127l-420 31q-249 19 -378 121t-129 278q0 216 196 346.5t519 130.5q331 0 538 -136t228 -372h-427q-30 99 -122.5 153t-243.5 54q-126 0 -202 -37
t-76 -103q0 -60 53.5 -88.5t156.5 -35.5l428 -32q249 -19 378 -121.5t129 -279.5q0 -216 -195.5 -346t-518.5 -130z"></glyph>
    <glyph glyph-name="T" unicode="T" horiz-adv-x="1589" d="M589 0v1106h-540v328h1490v-328h-541v-1106h-409z"></glyph>
    <glyph glyph-name="U" unicode="U" horiz-adv-x="1849" d="M926 -20q-232 0 -402.5 75.5t-265.5 227.5t-95 366v785h421v-777q0 -180 90.5 -265t255.5 -85q163 0 252.5 85t89.5 265v777h414v-785q0 -321 -204.5 -495t-555.5 -174z"></glyph>
    <glyph glyph-name="V" unicode="V" horiz-adv-x="1824" d="M656 0l-639 1434h454q315 -774 443 -1114h5q140 372 442 1114h447l-636 -1434h-516z"></glyph>
    <glyph glyph-name="W" unicode="W" horiz-adv-x="2535" d="M417 0l-366 1434h428q146 -708 233 -1178h5q109 459 299 1178h507q200 -758 300 -1178h4q78 420 234 1178h423l-366 -1434h-574q-176 673 -274 1147h-5q-98 -474 -274 -1147h-574z"></glyph>
    <glyph glyph-name="X" unicode="X" horiz-adv-x="1779" d="M-1 0l650 744l-611 690h522q220 -271 332 -430h5q115 159 341 430h500l-613 -687l656 -747h-522q-246 302 -380 489h-5q-125 -177 -375 -489h-500z"></glyph>
    <glyph glyph-name="Y" unicode="Y" horiz-adv-x="1806" d="M698 0v530l-705 904h492q305 -417 419 -590h5q105 160 420 590h484l-705 -904v-530h-410z"></glyph>
    <glyph glyph-name="Z" unicode="Z" horiz-adv-x="1603" d="M1484 1102q-580 -509 -914 -770v-4h914v-328h-1386v332q580 509 914 770v4h-855v328h1327v-332z"></glyph>
    <glyph glyph-name="bracketleft" unicode="[" horiz-adv-x="1044" d="M187 -205v1721h792v-271h-442v-1179h442v-271h-792z"></glyph>
    <glyph glyph-name="backslash" unicode="\" horiz-adv-x="1024" d="M1060 -82h-358l-737 1516h358z"></glyph>
    <glyph glyph-name="bracketright" unicode="]" horiz-adv-x="1044" d="M858 1516v-1721h-792v271h442v1179h-442v271h792z"></glyph>
    <glyph glyph-name="asciicircum" unicode="^" horiz-adv-x="1261" d="M91 901l299 533h483l297 -533h-339l-198 367h-5l-198 -367h-339z"></glyph>
    <glyph glyph-name="underscore" unicode="_" horiz-adv-x="1556" d="M156 -328v267h1245v-267h-1245z"></glyph>
    <glyph glyph-name="grave" unicode="`" horiz-adv-x="1228" d="M457 1106l-389 328h435l328 -328h-374z"></glyph>
    <glyph glyph-name="a" unicode="a" horiz-adv-x="1490" d="M501 -20q-185 0 -298.5 89t-113.5 234q0 162 135.5 247t408.5 85q174 0 225 7q106 14 106 63q0 39 -53 61t-145 22q-192 0 -237 -98h-393q27 162 194 258t423 96q274 0 431.5 -108.5t157.5 -298.5v-291q0 -266 67 -342v-4h-377q-50 34 -66 322h-5q-27 -155 -152 -248.5
t-308 -93.5zM481 371q0 -47 43 -75t126 -28q136 0 225 75.5t89 211.5v20h-5q-16 -56 -79.5 -76t-181.5 -24q-35 -1 -52 -2.5t-48 -5t-47.5 -10t-35 -17.5t-26.5 -28.5t-8 -40.5z"></glyph>
    <glyph glyph-name="b" unicode="b" horiz-adv-x="1601" d="M168 0v1434h394v-656h4q34 121 153.5 193.5t282.5 72.5q227 0 362 -143t135 -388q0 -246 -135.5 -389.5t-363.5 -143.5q-163 0 -281.5 72.5t-152.5 193.5h-4l-21 -246h-373zM554 538q0 -121 81 -195.5t218 -74.5q117 0 182 55.5t65 161.5q0 122 -81 197.5t-218 75.5
q-117 0 -182 -56.5t-65 -163.5z"></glyph>
    <glyph glyph-name="c" unicode="c" horiz-adv-x="1472" d="M739 -20q-292 0 -473.5 147.5t-181.5 384.5t181 384.5t473 147.5q264 0 439.5 -122.5t209.5 -327.5h-406q-61 168 -265 168q-111 0 -173.5 -55t-62.5 -159q0 -51 17.5 -100.5t50.5 -91.5t88 -68t123 -26q107 0 170.5 54.5t69.5 144.5h394q-23 -216 -200.5 -348.5
t-453.5 -132.5z"></glyph>
    <glyph glyph-name="d" unicode="d" horiz-adv-x="1601" d="M599 -20q-227 0 -362.5 143t-135.5 388q0 246 135.5 389.5t363.5 143.5q163 0 281.5 -72.5t152.5 -193.5h5v656h394v-1434h-374l-20 246h-5q-34 -121 -153 -193.5t-282 -72.5zM501 539q0 -122 81 -197.5t218 -75.5q117 0 182 56.5t65 163.5q0 121 -80.5 195.5
t-218.5 74.5q-117 0 -182 -55.5t-65 -161.5z"></glyph>
    <glyph glyph-name="e" unicode="e" horiz-adv-x="1466" d="M728 -20q-292 0 -467 146t-175 385q0 240 177.5 386.5t471.5 146.5t470.5 -144t176.5 -388v-41h-903q27 -90 95.5 -149.5t176.5 -59.5q91 0 153 39t74 98h384q-37 -194 -208 -306.5t-426 -112.5zM472 645h510q-35 154 -251 154q-218 0 -259 -154z"></glyph>
    <glyph glyph-name="f" unicode="f" horiz-adv-x="1118" d="M320 1041q0 209 125 311t380 102q187 0 289 -41v-283q-86 37 -195 37q-67 0 -113 -16t-66 -42t-27 -48t-7 -46v-11h408v-254h-408v-750h-386v750h-285v274h285v17z"></glyph>
    <glyph glyph-name="g" unicode="g" horiz-adv-x="1570" d="M777 -389q-253 0 -411.5 97.5t-182.5 278.5h398q19 -49 78.5 -76.5t144.5 -27.5q211 0 211 187v239h-5q-34 -112 -148.5 -177.5t-275.5 -65.5q-229 0 -362 131.5t-133 355.5q0 225 133 358t357 133q156 0 271.5 -65.5t157.5 -177.5h6l19 223h368v-942
q0 -218 -167.5 -344.5t-458.5 -126.5zM490 580q0 -112 79.5 -181t213.5 -69q113 0 176.5 51.5t63.5 149.5q0 111 -79 179t-213 68q-115 0 -178 -50.5t-63 -147.5z"></glyph>
    <glyph glyph-name="h" unicode="h" horiz-adv-x="1564" d="M168 0v1434h394v-727h6q24 158 133 247.5t281 89.5q196 0 313 -115.5t117 -312.5v-616h-394v504q0 111 -57.5 172t-158.5 61q-112 0 -176 -71.5t-64 -192.5v-473h-394z"></glyph>
    <glyph glyph-name="i" unicode="i" horiz-adv-x="729" d="M168 0v1024h394v-1024h-394zM167 1106v328h394v-328h-394z"></glyph>
    <glyph glyph-name="j" unicode="j" horiz-adv-x="876" d="M212 -389q-147 0 -246 33v258q64 -27 141 -27q107 0 157 54t50 173v922h394v-915q0 -245 -126 -371.5t-370 -126.5zM311 1106v328h394v-328h-394z"></glyph>
    <glyph glyph-name="k" unicode="k" horiz-adv-x="1433" d="M168 0v1434h390v-838h4q153 164 439 428h448l-475 -445l475 -579h-448l-329 407l-114 -112v-295h-390z"></glyph>
    <glyph glyph-name="l" unicode="l" horiz-adv-x="729" d="M168 0v1434h394v-1434h-394z"></glyph>
    <glyph glyph-name="m" unicode="m" horiz-adv-x="2301" d="M168 0v1024h374l20 -317h5q18 157 121 247t268 90q164 0 265.5 -89.5t119.5 -247.5h6q20 158 126 247.5t273 89.5q188 0 298 -108.5t110 -294.5v-641h-393v532q0 97 -51 151t-141 54q-100 0 -155.5 -64t-55.5 -181v-492h-394v532q0 97 -50.5 151t-140.5 54
q-100 0 -155.5 -64t-55.5 -181v-492h-394z"></glyph>
    <glyph glyph-name="n" unicode="n" horiz-adv-x="1558" d="M168 0v1024h373l21 -317h6q24 158 133 247.5t281 89.5q196 0 313 -115.5t117 -312.5v-616h-394v504q0 111 -57.5 172t-158.5 61q-112 0 -176 -71.5t-64 -192.5v-473h-394z"></glyph>
    <glyph glyph-name="o" unicode="o" horiz-adv-x="1490" d="M746 -20q-296 0 -479 147.5t-183 384.5t183 384.5t479 147.5q295 0 479 -148t184 -384q0 -156 -83 -277t-234 -188t-346 -67zM480 548q0 -52 18.5 -101.5t53 -91.5t92 -67.5t128.5 -25.5q113 0 177 55.5t64 157.5q0 51 -18.5 100.5t-53 92t-92.5 68.5t-129 26
q-113 0 -176.5 -55.5t-63.5 -158.5z"></glyph>
    <glyph glyph-name="p" unicode="p" horiz-adv-x="1601" d="M1000 -20q-163 0 -281.5 72.5t-152.5 193.5h-4v-615h-394v1393h374l20 -246h4q34 121 153.5 193.5t282.5 72.5q227 0 362.5 -143t135.5 -388q0 -246 -136 -389.5t-364 -143.5zM554 538q0 -121 81 -195.5t218 -74.5q117 0 182 55.5t65 161.5q0 122 -81 197.5t-218 75.5
q-117 0 -182 -56.5t-65 -163.5z"></glyph>
    <glyph glyph-name="q" unicode="q" horiz-adv-x="1601" d="M599 -20q-227 0 -362.5 143t-135.5 388q0 246 135.5 389.5t363.5 143.5q163 0 281.5 -72.5t152.5 -193.5h5l20 246h374v-1393h-394v615h-5q-34 -121 -153 -193.5t-282 -72.5zM501 539q0 -122 81 -197.5t218 -75.5q117 0 182 56.5t65 163.5q0 121 -80.5 195.5t-218.5 74.5
q-117 0 -182 -55.5t-65 -161.5z"></glyph>
    <glyph glyph-name="r" unicode="r" horiz-adv-x="1136" d="M168 0v1024h374l20 -358h5q22 175 122.5 276.5t259.5 101.5q83 0 134 -20v-365q-85 21 -176 21q-345 0 -345 -309v-371h-394z"></glyph>
    <glyph glyph-name="s" unicode="s" horiz-adv-x="1437" d="M766 -20q-270 0 -435.5 93t-189.5 269h399q13 -58 74.5 -89.5t161.5 -31.5q86 0 137.5 24t51.5 63q0 65 -140 74l-334 21q-201 12 -305 86.5t-104 205.5q0 164 157 256.5t426 92.5q270 0 434.5 -92.5t188.5 -267.5h-399q-11 57 -73.5 89t-161.5 32q-86 0 -137 -23.5
t-51 -62.5q0 -66 139 -75l333 -20q201 -13 306 -88t105 -205q0 -164 -157 -257.5t-426 -93.5z"></glyph>
    <glyph glyph-name="t" unicode="t" horiz-adv-x="1153" d="M795 -21q-246 0 -367.5 121t-121.5 367v283h-271v254h271v307l386 -21v-266h348v-274h-348v-236q0 -38 3.5 -68t16.5 -63.5t34.5 -55.5t60.5 -36.5t92 -14.5q83 0 141 29v-293q-96 -33 -245 -33z"></glyph>
    <glyph glyph-name="u" unicode="u" horiz-adv-x="1556" d="M574 -20q-196 0 -312.5 117t-116.5 317v610h394v-500q0 -111 57.5 -172t158.5 -61q112 0 176 71.5t64 192.5v469h394v-1024h-373l-21 322h-7q-24 -160 -133 -251t-281 -91z"></glyph>
    <glyph glyph-name="v" unicode="v" horiz-adv-x="1394" d="M438 0l-438 1024h416q195 -549 279 -805h6q84 256 279 805h414l-438 -1024h-518z"></glyph>
    <glyph glyph-name="w" unicode="w" horiz-adv-x="2070" d="M358 0l-341 1024h388q179 -678 201 -768h5q34 141 200 768h451q152 -576 199 -768h5q22 90 201 768h386l-341 -1024h-474q-148 528 -201 768h-4q-57 -257 -200 -768h-475z"></glyph>
    <glyph glyph-name="x" unicode="x" horiz-adv-x="1343" d="M-20 0l470 527l-446 497h458q140 -174 210 -284h5q71 110 213 284h447l-445 -495l471 -529h-462q-154 196 -232 317h-5q-82 -128 -233 -317h-451z"></glyph>
    <glyph glyph-name="y" unicode="y" horiz-adv-x="1511" d="M712 -389q-258 0 -421 98t-182 283h393q46 -109 234 -109q108 0 161 48t53 149v350h-5q-19 -161 -128 -254.5t-281 -93.5q-193 0 -302.5 120t-109.5 337v485h394v-410q0 -104 54 -161.5t155 -57.5q105 0 164 63t59 187v379h393v-932q0 -222 -169 -351.5t-462 -129.5z"></glyph>
    <glyph glyph-name="z" unicode="z" horiz-adv-x="1314" d="M94 285q392 284 653 454v4h-612v281h1065v-285q-392 -284 -653 -454v-4h653v-281h-1106v285z"></glyph>
    <glyph glyph-name="braceleft" unicode="{" horiz-adv-x="1157" d="M878 -205q-193 0 -305 42t-159.5 127t-47.5 228v125q0 91 -53 132.5t-170 41.5h-94v328h94q117 0 170 41.5t53 132.5v125q0 143 47.5 228t159.5 127t305 42h213v-270h-165q-112 0 -161.5 -38.5t-49.5 -123.5v-114q0 -149 -77.5 -225t-243.5 -87v-4q166 -11 243.5 -86.5
t77.5 -224.5v-115q0 -85 49.5 -123t161.5 -38h165v-271h-213z"></glyph>
    <glyph glyph-name="bar" unicode="|" horiz-adv-x="817" d="M233 -369v1803h350v-1803h-350z"></glyph>
    <glyph glyph-name="braceright" unicode="}" horiz-adv-x="1157" d="M279 1516q145 0 243 -22.5t158 -72.5t85.5 -123t25.5 -180v-125q0 -91 53 -132.5t170 -41.5h94v-327h-94q-117 0 -170 -41.5t-53 -133.5v-124q0 -107 -25.5 -180t-85.5 -123t-158 -72.5t-243 -22.5h-212v271h164q112 0 161.5 38t49.5 123v115q0 149 77.5 224.5
t243.5 86.5v4q-166 11 -243.5 87t-77.5 225v114q0 85 -49.5 123.5t-161.5 38.5h-164v271h212z"></glyph>
    <glyph glyph-name="asciitilde" unicode="~" horiz-adv-x="1552" d="M1025 412q-79 0 -156 24t-126 52t-102 52t-91 24q-49 0 -62 -36t5 -110h-273q-46 203 36.5 324.5t269.5 121.5q79 0 156 -24t126 -52t102.5 -52t91.5 -24q49 0 62 37t-5 110h273q46 -204 -36.5 -325.5t-270.5 -121.5z"></glyph>
    <glyph glyph-name="exclamdown" unicode="&#xa1;" horiz-adv-x="796" d="M543 614l70 -983h-430l71 983h289zM201 737v328h394v-328h-394z"></glyph>
    <glyph glyph-name="cent" unicode="&#xa2;" horiz-adv-x="1314" d="M658 301q-238 0 -388.5 119t-150.5 307q0 159 111 271t296 144l-49 292h121l47 -281h12q218 0 364 -102.5t171 -268.5h-382q-44 105 -176 105q-68 0 -106 -33t-38 -94q0 -42 18.5 -84t63.5 -75.5t108 -33.5q69 0 107 35t38 92h372q-16 -149 -125.5 -251.5t-284.5 -131.5
l52 -311h-121l-50 301h-10z"></glyph>
    <glyph glyph-name="sterling" unicode="&#xa3;" horiz-adv-x="2009" d="M180 137q122 153 170 280.5t30 260.5h-262v184h232q-9 188 82 323t259.5 202t396.5 67q314 0 515 -143.5t248 -384.5h-457q-81 213 -334 213q-144 0 -218.5 -68.5t-65.5 -208.5h501v-184h-477q-12 -160 -150 -297l5 -6q76 23 162.5 23t148.5 -13t132.5 -29t101.5 -18
q99 -8 148.5 50t65.5 198h448q-18 -269 -162 -437.5t-373 -168.5q-78 0 -164 18t-148.5 41t-135 38.5t-132.5 15.5t-131 -32.5t-141 -101.5z"></glyph>
    <glyph glyph-name="currency" unicode="&#xa4;" horiz-adv-x="1738" d="M869 276q-138 0 -251 37l-299 -249l-201 222l253 211q-58 95 -58 220q0 124 58 219l-253 212l201 221l299 -249q111 37 249 37t251 -37l300 249l201 -221l-253 -212q58 -95 58 -219t-59 -220l254 -211l-201 -222l-300 249q-113 -37 -249 -37zM622 721q0 -78 67 -124
t182 -46q112 0 178 44t66 118q0 79 -68.5 125.5t-182.5 46.5q-111 0 -176.5 -44.5t-65.5 -119.5z"></glyph>
    <glyph glyph-name="yen" unicode="&#xa5;" horiz-adv-x="1933" d="M236 526v185h385l-565 723h492q315 -430 420 -590h5q114 173 419 590h484l-564 -723h385v-185h-526v-102h526v-184h-526v-240h-409v240h-526v184h526v102h-526z"></glyph>
    <glyph glyph-name="brokenbar" unicode="&#xa6;" horiz-adv-x="817" d="M233 1087v347h350v-347h-350zM233 -369v346h350v-346h-350zM233 117v346h350v-346h-350zM233 602v346h350v-346h-350z"></glyph>
    <glyph glyph-name="section" unicode="&#xa7;" horiz-adv-x="1824" d="M972 -389q-332 0 -537 123t-226 336h422q26 -90 120 -139.5t241 -49.5q128 0 206.5 34t78.5 91q0 101 -232 118l-390 28q-248 18 -380 91.5t-132 204.5q0 186 224 269v8q-224 91 -224 297q0 196 194 314t517 118q330 0 535.5 -122t226.5 -335h-423q-28 89 -121 138
t-242 49q-127 0 -204 -33.5t-77 -91.5q0 -101 231 -116l389 -28q248 -17 379.5 -93t131.5 -208q0 -185 -225 -267v-11q110 -47 167.5 -123.5t57.5 -175.5q0 -191 -194 -308.5t-514 -117.5zM549 543q0 -101 231 -116l352 -25q67 11 106 42.5t39 77.5q0 101 -232 118l-353 23
q-66 -10 -104.5 -41.5t-38.5 -78.5z"></glyph>
    <glyph glyph-name="dieresis" unicode="&#xa8;" horiz-adv-x="1228" d="M227 1139v295h315v-295h-315zM688 1139v295h315v-295h-315z"></glyph>
    <glyph glyph-name="copyright" unicode="&#xa9;" horiz-adv-x="2082" d="M1044 389q-188 0 -308 92t-120 237q0 144 120.5 237.5t307.5 93.5q163 0 277 -74t143 -197h-282q-18 32 -59 50t-95 18q-64 0 -102 -29.5t-38 -81.5q0 -66 46.5 -105.5t125.5 -39.5q59 0 95.5 26.5t40.5 73.5h271q-15 -137 -132.5 -219t-290.5 -82zM128 717
q0 216 114 383.5t322.5 260.5t478.5 93q269 0 477 -93t322 -260.5t114 -383.5t-114 -383.5t-322 -260.5t-477 -93q-270 0 -478.5 93t-322.5 260.5t-114 383.5zM359 717q0 -239 187 -384t497 -145q309 0 495 145t186 384t-186 383.5t-495 144.5q-310 0 -497 -144.5
t-187 -383.5z"></glyph>
    <glyph glyph-name="guillemotleft" unicode="&#xab;" horiz-adv-x="1480" d="M678 223l-526 205v498l526 202v-337l-316 -113v-4l316 -113v-338zM784 428v498l526 202v-337l-315 -113v-4l315 -113v-338z"></glyph>
    <glyph glyph-name="registered" unicode="&#xae;" horiz-adv-x="2082" d="M684 395v645h455q52 0 102 -7.5t101.5 -25.5t83 -54t31.5 -86q0 -130 -212 -169v-2q57 -10 82 -35.5t32 -82.5q11 -89 26 -122t56 -59v-2h-260q-30 12 -42 38t-23 104q-7 45 -37 59t-79 14h-68v-215h-248zM128 717q0 216 114 383.5t322.5 260.5t478.5 93q269 0 477 -93
t322 -260.5t114 -383.5q0 -162 -66.5 -299t-185.5 -233.5t-289.5 -151t-371.5 -54.5q-202 0 -373 54.5t-290 151t-185.5 233.5t-66.5 299zM359 717q0 -239 187 -384t497 -145q309 0 495 145t186 384t-186 383.5t-495 144.5q-310 0 -497 -144.5t-187 -383.5zM932 770h155
q39 0 71.5 10.5t33.5 34.5q2 47 -92 47h-168v-92z"></glyph>
    <glyph glyph-name="macron" unicode="&#xaf;" horiz-adv-x="1228" d="M177 1157v225h979v-225h-979z"></glyph>
    <glyph glyph-name="degree" unicode="&#xb0;" horiz-adv-x="1306" d="M652 766q-219 0 -349 93t-130 251t130 251t349 93t349.5 -93t130.5 -251t-130.5 -251t-349.5 -93zM495 1124q0 -53 47.5 -88t125.5 -35q66 0 104 25t38 71q0 54 -47.5 89t-125.5 35q-66 0 -104 -25t-38 -72z"></glyph>
    <glyph glyph-name="uni00B2" unicode="&#xb2;" horiz-adv-x="999" d="M81 631q-2 61 0.5 108.5t13.5 87t24 69t39.5 55t51.5 43t68.5 36.5t82.5 33t101 33q108 32 132 47q29 17 29 38q0 27 -29.5 43t-83.5 16q-116 0 -129 -85l-302 -2q5 141 116.5 217t306.5 76q186 0 299 -69.5t113 -195.5q0 -39 -11.5 -71t-36.5 -57t-50.5 -43t-69.5 -36
t-75.5 -28.5t-85.5 -27.5q-19 -6 -29 -9q-13 -4 -33 -10t-29.5 -9t-24 -7.5t-21.5 -7t-17 -6.5t-15 -7t-11 -6.5t-9.5 -7.5t-6.5 -8h520v-209h-828z"></glyph>
    <glyph glyph-name="uni00B3" unicode="&#xb3;" horiz-adv-x="1005" d="M511 619q-207 0 -323 81.5t-115 233.5h301q1 -106 143 -106q114 0 114 61q0 57 -111 57h-71v174l69 -1q111 0 111 58q0 60 -115 60q-70 0 -104.5 -25.5t-35.5 -79.5h-300q-1 151 114.5 232t321.5 81q185 0 297.5 -63t113.5 -164q1 -67 -51.5 -114.5t-149.5 -68.5v-2
q98 -21 151 -69t53 -116q0 -103 -113 -166t-300 -63z"></glyph>
    <glyph glyph-name="acute" unicode="&#xb4;" horiz-adv-x="1228" d="M398 1106l328 328h435l-389 -328h-374z"></glyph>
    <glyph glyph-name="paragraph" unicode="&#xb6;" horiz-adv-x="2230" d="M771 262q-307 0 -485 126t-178 343q0 213 168.5 337t458.5 124h218v242h1073v-1434h-409v1137h-255v-1137h-409v262h-182z"></glyph>
    <glyph glyph-name="periodcentered" unicode="&#xb7;" horiz-adv-x="829" d="M218 573v328h394v-328h-394z"></glyph>
    <glyph glyph-name="cedilla" unicode="&#xb8;" horiz-adv-x="1228" d="M637 -389q-141 0 -214.5 41.5t-86.5 134.5h225q14 -47 88 -47q37 0 57.5 13t20.5 36q0 25 -21.5 39.5t-58.5 14.5q-44 0 -72 -29h-160l117 235h169l-60 -130q39 15 101 15q101 0 157 -41t56 -111q0 -86 -84.5 -128.5t-233.5 -42.5z"></glyph>
    <glyph glyph-name="uni00B9" unicode="&#xb9;" horiz-adv-x="686" d="M277 631v448h-249v205h161q77 0 89.5 12t12.5 84v54h270v-803h-284z"></glyph>
    <glyph glyph-name="guillemotright" unicode="&#xbb;" horiz-adv-x="1480" d="M804 1128l526 -204v-498l-526 -203v338l315 113v4l-315 113v337zM171 223v338l315 113v4l-315 113v337l526 -204v-498z"></glyph>
    <glyph glyph-name="onequarter" unicode="&#xbc;" horiz-adv-x="2498" d="M406 631v448h-249v205h161h43.5t28 4t18.5 7.5t7.5 17.5t4.5 26v41v54h270v-803h-284zM439 0l1174 1434h276l-1173 -1434h-277zM1350 211v202l449 390h375v-393h166v-199h-166v-211h-275v211h-549zM1671 413l1 -3h231q0 125 4 218h-2q-54 -53 -234 -215z"></glyph>
    <glyph glyph-name="onehalf" unicode="&#xbd;" horiz-adv-x="2498" d="M415 631v448h-249v205h161q77 0 89.5 12t12.5 84v54h270v-803h-284zM438 0l1174 1434h276l-1173 -1434h-277zM1497 522q5 141 116.5 217t306.5 76q186 0 299 -69.5t113 -195.5q0 -46 -20.5 -84.5t-43 -61.5t-77.5 -48.5t-84.5 -35.5t-103.5 -33q-19 -6 -28 -9
q-14 -4 -33 -10t-29.5 -9t-24.5 -7.5t-21.5 -7.5t-17.5 -6.5t-15 -6.5t-11 -6.5t-9.5 -7.5t-6.5 -8h521v-209h-829q-4 97 8.5 164t35 112t76 80t108 57t153.5 53q107 32 129 44q32 17 32 40q0 27 -29.5 43t-83.5 16q-116 0 -129 -85z"></glyph>
    <glyph glyph-name="threequarters" unicode="&#xbe;" horiz-adv-x="2498" d="M504 619q-207 0 -323 81.5t-115 233.5h301q1 -106 142 -106q115 0 115 61q0 57 -112 57h-70v174l69 -1q111 0 111 58q0 60 -115 60q-70 0 -104.5 -25.5t-35.5 -79.5h-300q-1 151 114.5 232t321.5 81q185 0 297 -63t113 -164q1 -67 -51.5 -114.5t-149.5 -68.5v-2
q98 -21 151.5 -69t53.5 -116q0 -103 -113 -166t-300 -63zM530 0l1174 1434h276l-1173 -1434h-277zM1441 211v202l449 390h375v-393h166v-199h-166v-211h-275v211h-549zM1762 413l1 -3h231q0 101 5 218h-3q-54 -53 -234 -215z"></glyph>
    <glyph glyph-name="questiondown" unicode="&#xbf;" horiz-adv-x="1533" d="M1237 612q8 -92 -8.5 -150.5t-71 -101.5t-136.5 -69t-225 -53q-152 -28 -207 -51q-98 -41 -98 -118q0 -67 69.5 -109t184.5 -42q137 0 212 63t77 181l420 2q4 -176 -81 -301.5t-244.5 -188.5t-378.5 -63q-306 0 -483.5 120.5t-177.5 331.5q0 178 126 287.5t357 148.5
q201 35 237 48q39 14 53 45q4 8 8 20h367zM860 735v328h394v-328h-394z"></glyph>
    <glyph glyph-name="Agrave" unicode="&#xc0;" horiz-adv-x="1869" d="M17 0l648 1434h541l646 -1434h-427l-135 329h-717l-135 -329h-421zM387 1843h435l328 -327h-374zM703 642h457q-152 357 -226 550h-5q-74 -193 -226 -550z"></glyph>
    <glyph glyph-name="Aacute" unicode="&#xc1;" horiz-adv-x="1869" d="M17 0l648 1434h541l646 -1434h-427l-135 329h-717l-135 -329h-421zM703 642h457q-152 357 -226 550h-5q-74 -193 -226 -550zM719 1516l328 327h435l-389 -327h-374z"></glyph>
    <glyph glyph-name="Acircumflex" unicode="&#xc2;" horiz-adv-x="1869" d="M17 0l648 1434h541l646 -1434h-427l-135 329h-717l-135 -329h-421zM416 1516l279 327h483l277 -327h-343l-174 184h-5l-174 -184h-343zM703 642h457q-152 357 -226 550h-5q-74 -193 -226 -550z"></glyph>
    <glyph glyph-name="Atilde" unicode="&#xc3;" horiz-adv-x="1869" d="M17 0l648 1434h541l646 -1434h-427l-135 329h-717l-135 -329h-421zM457 1516q-39 151 32 241t232 90q68 0 134 -17.5t108 -38.5t88 -38.5t79 -17.5q42 0 54 26.5t-4 81.5h235q39 -151 -32 -241.5t-232 -90.5q-68 0 -134 17.5t-108 39t-88 39t-79 17.5q-42 0 -54 -26.5
t4 -81.5h-235zM703 642h457q-152 357 -226 550h-5q-74 -193 -226 -550z"></glyph>
    <glyph glyph-name="Adieresis" unicode="&#xc4;" horiz-adv-x="1869" d="M17 0l648 1434h541l646 -1434h-427l-135 329h-717l-135 -329h-421zM548 1548v295h315v-295h-315zM703 642h457q-152 357 -226 550h-5q-74 -193 -226 -550zM1009 1548v295h315v-295h-315z"></glyph>
    <glyph glyph-name="Aring" unicode="&#xc5;" horiz-adv-x="1869" d="M17 0l648 1434h541l646 -1434h-427l-135 329h-717l-135 -329h-421zM484 1702q0 101 122 161t330 60t329.5 -60t121.5 -161t-121.5 -161t-329.5 -60t-330 60t-122 161zM703 642h457q-152 357 -226 550h-5q-74 -193 -226 -550zM768 1718q0 -42 48.5 -75t139.5 -33
q69 0 108 19.5t39 57.5q0 41 -48.5 75t-139.5 34q-69 0 -108 -20t-39 -58z"></glyph>
    <glyph glyph-name="AE" unicode="&#xc6;" horiz-adv-x="2588" d="M-2 0l1015 1434h1450v-328h-797v-232h748v-294h-748v-252h674v-328h-1084v329h-574l-220 -329h-464zM887 642h369v570h-5q-150 -260 -364 -570z"></glyph>
    <glyph glyph-name="Ccedilla" unicode="&#xc7;" horiz-adv-x="1921" d="M988 -389q-141 0 -214.5 41.5t-86.5 134.5h225q14 -47 88 -47q37 0 58 13t21 36q0 25 -21.5 39.5t-58.5 14.5q-45 0 -73 -29h-159l84 171q-222 20 -391 116.5t-263 256t-94 359.5q0 217 109 385t305 260t447 92q343 0 572.5 -167t279.5 -445h-446q-41 134 -153.5 209
t-276.5 75q-186 0 -293.5 -101t-107.5 -277q0 -200 122.5 -320.5t327.5 -120.5q177 0 280.5 95.5t114.5 263.5h440q-23 -295 -241.5 -482.5t-561.5 -202.5l-29 -62q39 15 102 15q101 0 156.5 -40.5t55.5 -111.5q0 -86 -85 -128.5t-233 -42.5z"></glyph>
    <glyph glyph-name="Egrave" unicode="&#xc8;" horiz-adv-x="1585" d="M203 0v1434h1264v-328h-871v-232h821v-294h-821v-252h723v-328h-1116zM323 1843h435l328 -327h-374z"></glyph>
    <glyph glyph-name="Eacute" unicode="&#xc9;" horiz-adv-x="1585" d="M203 0v1434h1264v-328h-871v-232h821v-294h-821v-252h723v-328h-1116zM655 1516l328 327h435l-389 -327h-374z"></glyph>
    <glyph glyph-name="Ecircumflex" unicode="&#xca;" horiz-adv-x="1585" d="M203 0v1434h1264v-328h-871v-232h821v-294h-821v-252h723v-328h-1116zM352 1516l279 327h483l277 -327h-342l-175 184h-5l-174 -184h-343z"></glyph>
    <glyph glyph-name="Edieresis" unicode="&#xcb;" horiz-adv-x="1585" d="M203 0v1434h1264v-328h-871v-232h821v-294h-821v-252h723v-328h-1116zM484 1548v295h315v-295h-315zM945 1548v295h315v-295h-315z"></glyph>
    <glyph glyph-name="Igrave" unicode="&#xcc;" horiz-adv-x="815" d="M203 0v1434h409v-1434h-409zM-141 1843h435l328 -327h-374z"></glyph>
    <glyph glyph-name="Iacute" unicode="&#xcd;" horiz-adv-x="815" d="M203 0v1434h409v-1434h-409zM191 1516l328 327h435l-389 -327h-374z"></glyph>
    <glyph glyph-name="Icircumflex" unicode="&#xce;" horiz-adv-x="815" d="M203 0v1434h409v-1434h-409zM-112 1516l279 327h483l277 -327h-343l-174 184h-5l-174 -184h-343z"></glyph>
    <glyph glyph-name="Idieresis" unicode="&#xcf;" horiz-adv-x="815" d="M203 0v1434h409v-1434h-409zM20 1548v295h315v-295h-315zM481 1548v295h315v-295h-315z"></glyph>
    <glyph glyph-name="Eth" unicode="&#xd0;" horiz-adv-x="1845" d="M203 0v594h-152v266h152v574h578q461 0 711 -187t250 -530t-250 -530t-711 -187h-578zM604 317h175q262 0 402.5 103.5t140.5 296.5t-140.5 296t-402.5 103h-175v-256h410v-266h-410v-277z"></glyph>
    <glyph glyph-name="Ntilde" unicode="&#xd1;" horiz-adv-x="2060" d="M203 0v1434h541q176 -242 257 -354.5t226 -325t264 -402.5l5 2q-20 414 -20 1080h381v-1434h-511q-177 248 -266 373.5t-238 347.5t-273 422l-5 -2q20 -434 20 -1141h-381zM552 1516q-39 151 32 241t232 90q68 0 134 -17.5t108 -38.5t88 -38.5t79 -17.5q42 0 53.5 26.5
t-4.5 81.5h236q39 -152 -32 -242t-233 -90q-68 0 -134 17.5t-108 39t-87.5 39t-78.5 17.5q-42 0 -54 -26.5t4 -81.5h-235z"></glyph>
    <glyph glyph-name="Ograve" unicode="&#xd2;" horiz-adv-x="1957" d="M979 -20q-258 0 -457.5 92.5t-309.5 260.5t-110 384t110 384t309.5 260.5t457.5 92.5q257 0 457 -93t310 -260.5t110 -383.5t-109.5 -383.5t-309.5 -260.5t-458 -93zM430 1843h436l328 -327h-374zM532 747q0 -201 128.5 -320.5t347.5 -119.5q193 0 305.5 100.5
t112.5 277.5q0 201 -129 321t-348 120q-192 0 -304.5 -101t-112.5 -278z"></glyph>
    <glyph glyph-name="Oacute" unicode="&#xd3;" horiz-adv-x="1957" d="M979 -20q-258 0 -457.5 92.5t-309.5 260.5t-110 384t110 384t309.5 260.5t457.5 92.5q257 0 457 -93t310 -260.5t110 -383.5t-109.5 -383.5t-309.5 -260.5t-458 -93zM532 747q0 -201 128.5 -320.5t347.5 -119.5q193 0 305.5 100.5t112.5 277.5q0 201 -129 321t-348 120
q-192 0 -304.5 -101t-112.5 -278zM762 1516l329 327h435l-389 -327h-375z"></glyph>
    <glyph glyph-name="Ocircumflex" unicode="&#xd4;" horiz-adv-x="1957" d="M979 -20q-258 0 -457.5 92.5t-309.5 260.5t-110 384t110 384t309.5 260.5t457.5 92.5q257 0 457 -93t310 -260.5t110 -383.5t-109.5 -383.5t-309.5 -260.5t-458 -93zM460 1516l279 327h483l276 -327h-342l-174 184h-5l-175 -184h-342zM532 747q0 -201 128.5 -320.5
t347.5 -119.5q193 0 305.5 100.5t112.5 277.5q0 201 -129 321t-348 120q-192 0 -304.5 -101t-112.5 -278z"></glyph>
    <glyph glyph-name="Otilde" unicode="&#xd5;" horiz-adv-x="1957" d="M979 -20q-258 0 -457.5 92.5t-309.5 260.5t-110 384t110 384t309.5 260.5t457.5 92.5q257 0 457 -93t310 -260.5t110 -383.5t-109.5 -383.5t-309.5 -260.5t-458 -93zM501 1516q-39 151 32 241t232 90q68 0 134 -17.5t108 -38.5t88 -38.5t79 -17.5q42 0 53.5 26.5
t-4.5 81.5h236q39 -152 -32 -242t-233 -90q-68 0 -134 17.5t-108 39t-87.5 39t-78.5 17.5q-42 0 -54 -26.5t4 -81.5h-235zM532 747q0 -201 128.5 -320.5t347.5 -119.5q193 0 305.5 100.5t112.5 277.5q0 201 -129 321t-348 120q-192 0 -304.5 -101t-112.5 -278z"></glyph>
    <glyph glyph-name="Odieresis" unicode="&#xd6;" horiz-adv-x="1957" d="M979 -20q-258 0 -457.5 92.5t-309.5 260.5t-110 384t110 384t309.5 260.5t457.5 92.5q257 0 457 -93t310 -260.5t110 -383.5t-109.5 -383.5t-309.5 -260.5t-458 -93zM532 747q0 -201 128.5 -320.5t347.5 -119.5q193 0 305.5 100.5t112.5 277.5q0 201 -129 321t-348 120
q-192 0 -304.5 -101t-112.5 -278zM592 1548v295h315v-295h-315zM1052 1548v295h315v-295h-315z"></glyph>
    <glyph glyph-name="multiply" unicode="&#xd7;" horiz-adv-x="1427" d="M1095 181l-382 327l-383 -327l-216 230l356 306l-356 305l216 231l383 -328l382 328l217 -231l-356 -305l356 -306z"></glyph>
    <glyph glyph-name="Oslash" unicode="&#xd8;" horiz-adv-x="1964" d="M982 -20q-276 0 -483 105l-80 -85h-222l164 174q-123 99 -189 238t-66 305q0 162 63.5 299t177.5 233.5t277.5 150.5t357.5 54q274 0 484 -106l80 86h222l-164 -175q122 -99 188.5 -237.5t66.5 -304.5q0 -216 -110 -383.5t-310 -260.5t-457 -93zM515 756q0 -186 104 -307
l597 634q-115 56 -264 56q-200 0 -318.5 -104t-118.5 -279zM749 350q112 -55 261 -55q202 0 320.5 103t118.5 278q0 187 -104 308z"></glyph>
    <glyph glyph-name="Ugrave" unicode="&#xd9;" horiz-adv-x="1849" d="M926 -20q-232 0 -402.5 75.5t-265.5 227.5t-95 366v785h421v-777q0 -180 90.5 -265t255.5 -85q163 0 252.5 85t89.5 265v777h414v-785q0 -321 -204.5 -495t-555.5 -174zM382 1843h435l328 -327h-374z"></glyph>
    <glyph glyph-name="Uacute" unicode="&#xda;" horiz-adv-x="1849" d="M926 -20q-232 0 -402.5 75.5t-265.5 227.5t-95 366v785h421v-777q0 -180 90.5 -265t255.5 -85q163 0 252.5 85t89.5 265v777h414v-785q0 -321 -204.5 -495t-555.5 -174zM714 1516l328 327h435l-389 -327h-374z"></glyph>
    <glyph glyph-name="Ucircumflex" unicode="&#xdb;" horiz-adv-x="1849" d="M926 -20q-232 0 -402.5 75.5t-265.5 227.5t-95 366v785h421v-777q0 -180 90.5 -265t255.5 -85q163 0 252.5 85t89.5 265v777h414v-785q0 -321 -204.5 -495t-555.5 -174zM411 1516l279 327h483l277 -327h-343l-174 184h-5l-175 -184h-342z"></glyph>
    <glyph glyph-name="Udieresis" unicode="&#xdc;" horiz-adv-x="1849" d="M926 -20q-232 0 -402.5 75.5t-265.5 227.5t-95 366v785h421v-777q0 -180 90.5 -265t255.5 -85q163 0 252.5 85t89.5 265v777h414v-785q0 -321 -204.5 -495t-555.5 -174zM543 1548v295h315v-295h-315zM1004 1548v295h314v-295h-314z"></glyph>
    <glyph glyph-name="Yacute" unicode="&#xdd;" horiz-adv-x="1806" d="M698 0v530l-705 904h492q305 -417 419 -590h5q105 160 420 590h484l-705 -904v-530h-410zM686 1516l328 327h436l-390 -327h-374z"></glyph>
    <glyph glyph-name="Thorn" unicode="&#xde;" horiz-adv-x="1751" d="M203 0v1434h409v-242h403q316 0 487.5 -120.5t171.5 -340.5q0 -224 -181.5 -346.5t-515.5 -122.5h-365v-262h-409zM612 559h320q308 0 308 168t-308 168h-320v-336z"></glyph>
    <glyph glyph-name="germandbls" unicode="&#xdf;" horiz-adv-x="1499" d="M814 -8q-27 0 -145 8v285q60 -3 90 -3q129 0 198 37.5t69 108.5q0 73 -74 112.5t-210 39.5h-58v303h58q133 0 206 39.5t73 111.5q0 65 -58 101t-157 36q-126 0 -190 -58.5t-64 -170.5v-942h-384v946q0 236 173.5 372t477.5 136q263 0 422.5 -99.5t159.5 -261.5
q0 -119 -89 -206.5t-246 -124.5v-4q168 -43 259 -143t91 -238q0 -183 -158 -284t-444 -101z"></glyph>
    <glyph glyph-name="agrave" unicode="&#xe0;" horiz-adv-x="1490" d="M501 -20q-185 0 -298.5 89t-113.5 234q0 162 135.5 247t408.5 85q174 0 225 7q106 14 106 63q0 39 -53 61t-145 22q-192 0 -237 -98h-393q27 162 194 258t423 96q274 0 431.5 -108.5t157.5 -298.5v-291q0 -266 67 -342v-4h-377q-50 34 -66 322h-5q-27 -155 -152 -248.5
t-308 -93.5zM203 1434h435l328 -328h-374zM481 371q0 -47 43 -75t126 -28q136 0 225 75.5t89 211.5v20h-5q-16 -56 -79.5 -76t-181.5 -24q-35 -1 -52 -2.5t-48 -5t-47.5 -10t-35 -17.5t-26.5 -28.5t-8 -40.5z"></glyph>
    <glyph glyph-name="aacute" unicode="&#xe1;" horiz-adv-x="1490" d="M501 -20q-185 0 -298.5 89t-113.5 234q0 162 135.5 247t408.5 85q174 0 225 7q106 14 106 63q0 39 -53 61t-145 22q-192 0 -237 -98h-393q27 162 194 258t423 96q274 0 431.5 -108.5t157.5 -298.5v-291q0 -266 67 -342v-4h-377q-50 34 -66 322h-5q-27 -155 -152 -248.5
t-308 -93.5zM481 371q0 -47 43 -75t126 -28q136 0 225 75.5t89 211.5v20h-5q-16 -56 -79.5 -76t-181.5 -24q-35 -1 -52 -2.5t-48 -5t-47.5 -10t-35 -17.5t-26.5 -28.5t-8 -40.5zM535 1106l328 328h435l-389 -328h-374z"></glyph>
    <glyph glyph-name="acircumflex" unicode="&#xe2;" horiz-adv-x="1490" d="M501 -20q-185 0 -298.5 89t-113.5 234q0 162 135.5 247t408.5 85q174 0 225 7q106 14 106 63q0 39 -53 61t-145 22q-192 0 -237 -98h-393q27 162 194 258t423 96q274 0 431.5 -108.5t157.5 -298.5v-291q0 -266 67 -342v-4h-377q-50 34 -66 322h-5q-27 -155 -152 -248.5
t-308 -93.5zM232 1106l279 328h483l277 -328h-342l-175 184h-5l-174 -184h-343zM481 371q0 -47 43 -75t126 -28q136 0 225 75.5t89 211.5v20h-5q-16 -56 -79.5 -76t-181.5 -24q-35 -1 -52 -2.5t-48 -5t-47.5 -10t-35 -17.5t-26.5 -28.5t-8 -40.5z"></glyph>
    <glyph glyph-name="atilde" unicode="&#xe3;" horiz-adv-x="1490" d="M501 -20q-185 0 -298.5 89t-113.5 234q0 162 135.5 247t408.5 85q174 0 225 7q106 14 106 63q0 39 -53 61t-145 22q-192 0 -237 -98h-393q27 162 194 258t423 96q274 0 431.5 -108.5t157.5 -298.5v-291q0 -266 67 -342v-4h-377q-50 34 -66 322h-5q-27 -155 -152 -248.5
t-308 -93.5zM274 1106q-39 151 32 241.5t232 90.5q68 0 134 -17.5t108 -39t88 -39t79 -17.5q42 0 53.5 27t-4.5 82h235q39 -152 -31.5 -242t-232.5 -90q-68 0 -134 17.5t-108 38.5t-88 38.5t-79 17.5q-42 0 -53.5 -26.5t4.5 -81.5h-235zM481 371q0 -47 43 -75t126 -28
q136 0 225 75.5t89 211.5v20h-5q-16 -56 -79.5 -76t-181.5 -24q-35 -1 -52 -2.5t-48 -5t-47.5 -10t-35 -17.5t-26.5 -28.5t-8 -40.5z"></glyph>
    <glyph glyph-name="adieresis" unicode="&#xe4;" horiz-adv-x="1490" d="M501 -20q-185 0 -298.5 89t-113.5 234q0 162 135.5 247t408.5 85q174 0 225 7q106 14 106 63q0 39 -53 61t-145 22q-192 0 -237 -98h-393q27 162 194 258t423 96q274 0 431.5 -108.5t157.5 -298.5v-291q0 -266 67 -342v-4h-377q-50 34 -66 322h-5q-27 -155 -152 -248.5
t-308 -93.5zM364 1139v295h315v-295h-315zM481 371q0 -47 43 -75t126 -28q136 0 225 75.5t89 211.5v20h-5q-16 -56 -79.5 -76t-181.5 -24q-35 -1 -52 -2.5t-48 -5t-47.5 -10t-35 -17.5t-26.5 -28.5t-8 -40.5zM825 1139v295h315v-295h-315z"></glyph>
    <glyph glyph-name="aring" unicode="&#xe5;" horiz-adv-x="1490" d="M501 -20q-185 0 -298.5 89t-113.5 234q0 162 135.5 247t408.5 85q174 0 225 7q106 14 106 63q0 39 -53 61t-145 22q-192 0 -237 -98h-393q27 162 194 258t423 96q274 0 431.5 -108.5t157.5 -298.5v-291q0 -266 67 -342v-4h-377q-50 34 -66 322h-5q-27 -155 -152 -248.5
t-308 -93.5zM300 1323q0 101 122 161t330 60t329.5 -60t121.5 -161t-121.5 -161t-329.5 -60t-330 60t-122 161zM481 371q0 -47 43 -75t126 -28q136 0 225 75.5t89 211.5v20h-5q-16 -56 -79.5 -76t-181.5 -24q-35 -1 -52 -2.5t-48 -5t-47.5 -10t-35 -17.5t-26.5 -28.5
t-8 -40.5zM584 1340q0 -42 48.5 -75.5t139.5 -33.5q69 0 108.5 19.5t39.5 57.5q0 41 -48.5 75t-139.5 34q-69 0 -108.5 -19.5t-39.5 -57.5z"></glyph>
    <glyph glyph-name="ae" unicode="&#xe6;" horiz-adv-x="2330" d="M498 -20q-187 0 -300.5 89.5t-113.5 234.5q0 161 135.5 246t407.5 85h35h69.5t65.5 1.5t64.5 6t49 12t37 20.5t11.5 30q0 39 -53 61t-146 22q-191 0 -236 -98h-393q27 162 194.5 258t422.5 96q286 0 438 -115q157 115 416 115q291 0 468 -143.5t177 -388.5v-41h-905
q25 -90 94.5 -149.5t179.5 -59.5q88 0 151.5 39t76.5 98h384q-37 -194 -208.5 -306.5t-426.5 -112.5q-219 0 -370.5 86t-207.5 236h-4q-46 -146 -184.5 -234t-328.5 -88zM476 371q0 -47 43 -75t126 -28q135 0 224.5 73.5t89.5 203.5v12h-5q-15 -48 -73.5 -62.5t-187.5 -19.5
q-36 -1 -52 -2.5t-48 -5t-47.5 -10t-34.5 -17t-27 -28.5t-8 -41zM1339 645h508q-36 154 -251 154q-214 0 -257 -154z"></glyph>
    <glyph glyph-name="ccedilla" unicode="&#xe7;" horiz-adv-x="1472" d="M763 -389q-141 0 -214.5 41.5t-86.5 134.5h225q14 -47 88 -47q37 0 58 13t21 36q0 25 -21.5 39.5t-58.5 14.5q-45 0 -73 -29h-159l84 172q-246 29 -394 171t-148 355q0 237 181 384.5t473 147.5q264 0 439.5 -122.5t209.5 -327.5h-406q-61 168 -265 168
q-111 0 -173.5 -55t-62.5 -159q0 -51 17.5 -100.5t50.5 -91.5t88 -68t123 -26q107 0 170.5 54.5t69.5 144.5h394q-22 -205 -183 -335.5t-414 -144.5l-29 -62q39 15 102 15q101 0 156 -40.5t55 -111.5q0 -86 -84 -128.5t-233 -42.5z"></glyph>
    <glyph glyph-name="egrave" unicode="&#xe8;" horiz-adv-x="1466" d="M728 -20q-292 0 -467 146t-175 385q0 240 177.5 386.5t471.5 146.5t470.5 -144t176.5 -388v-41h-903q27 -90 95.5 -149.5t176.5 -59.5q91 0 153 39t74 98h384q-37 -194 -208 -306.5t-426 -112.5zM185 1434h436l328 -328h-375zM472 645h510q-35 154 -251 154
q-218 0 -259 -154z"></glyph>
    <glyph glyph-name="eacute" unicode="&#xe9;" horiz-adv-x="1466" d="M728 -20q-292 0 -467 146t-175 385q0 240 177.5 386.5t471.5 146.5t470.5 -144t176.5 -388v-41h-903q27 -90 95.5 -149.5t176.5 -59.5q91 0 153 39t74 98h384q-37 -194 -208 -306.5t-426 -112.5zM472 645h510q-35 154 -251 154q-218 0 -259 -154zM517 1106l328 328h436
l-390 -328h-374z"></glyph>
    <glyph glyph-name="ecircumflex" unicode="&#xea;" horiz-adv-x="1466" d="M728 -20q-292 0 -467 146t-175 385q0 240 177.5 386.5t471.5 146.5t470.5 -144t176.5 -388v-41h-903q27 -90 95.5 -149.5t176.5 -59.5q91 0 153 39t74 98h384q-37 -194 -208 -306.5t-426 -112.5zM215 1106l279 328h482l277 -328h-342l-175 184h-4l-175 -184h-342z
M472 645h510q-35 154 -251 154q-218 0 -259 -154z"></glyph>
    <glyph glyph-name="edieresis" unicode="&#xeb;" horiz-adv-x="1466" d="M728 -20q-292 0 -467 146t-175 385q0 240 177.5 386.5t471.5 146.5t470.5 -144t176.5 -388v-41h-903q27 -90 95.5 -149.5t176.5 -59.5q91 0 153 39t74 98h384q-37 -194 -208 -306.5t-426 -112.5zM347 1139v295h315v-295h-315zM472 645h510q-35 154 -251 154
q-218 0 -259 -154zM807 1139v295h315v-295h-315z"></glyph>
    <glyph glyph-name="igrave" unicode="&#xec;" horiz-adv-x="729" d="M168 0v1024h394v-1024h-394zM-184 1434h435l328 -328h-374z"></glyph>
    <glyph glyph-name="iacute" unicode="&#xed;" horiz-adv-x="729" d="M168 0v1024h394v-1024h-394zM148 1106l328 328h435l-389 -328h-374z"></glyph>
    <glyph glyph-name="icircumflex" unicode="&#xee;" horiz-adv-x="729" d="M168 0v1024h394v-1024h-394zM-155 1106l279 328h483l277 -328h-342l-175 184h-5l-174 -184h-343z"></glyph>
    <glyph glyph-name="idieresis" unicode="&#xef;" horiz-adv-x="729" d="M168 0v1024h394v-1024h-394zM-23 1139v295h315v-295h-315zM438 1139v295h315v-295h-315z"></glyph>
    <glyph glyph-name="eth" unicode="&#xf0;" horiz-adv-x="1470" d="M723 -20q-283 0 -460.5 152.5t-177.5 390.5q0 206 135 333t351 127q136 0 244 -52.5t169 -149.5h5q-31 94 -94 177t-174 171l-558 -60v170l345 37q-118 73 -265 153v5h488q106 -54 190 -114l393 42v-170l-213 -23q267 -269 267 -593q0 -269 -177 -432.5t-468 -163.5z
M474 536q0 -49 18.5 -97t53.5 -88t92.5 -64.5t128.5 -24.5q113 0 177 53t64 151q0 49 -18 96t-53 88t-92.5 66t-129.5 25q-113 0 -177 -53t-64 -152z"></glyph>
    <glyph glyph-name="ntilde" unicode="&#xf1;" horiz-adv-x="1558" d="M168 0v1024h373l21 -317h6q24 158 133 247.5t281 89.5q196 0 313 -115.5t117 -312.5v-616h-394v504q0 111 -57.5 172t-158.5 61q-112 0 -176 -71.5t-64 -192.5v-473h-394zM307 1106q-39 151 32 241.5t232 90.5q68 0 134.5 -17.5t108.5 -39t88 -39t79 -17.5q42 0 53.5 27
t-4.5 82h235q39 -152 -31.5 -242t-232.5 -90q-68 0 -134 17.5t-108 38.5t-88 38.5t-79 17.5q-42 0 -53.5 -26.5t4.5 -81.5h-236z"></glyph>
    <glyph glyph-name="ograve" unicode="&#xf2;" horiz-adv-x="1490" d="M746 -20q-296 0 -479 147.5t-183 384.5t183 384.5t479 147.5q295 0 479 -148t184 -384q0 -156 -83 -277t-234 -188t-346 -67zM197 1434h436l328 -328h-374zM480 548q0 -52 18.5 -101.5t53 -91.5t92 -67.5t128.5 -25.5q113 0 177 55.5t64 157.5q0 51 -18.5 100.5t-53 92
t-92.5 68.5t-129 26q-113 0 -176.5 -55.5t-63.5 -158.5z"></glyph>
    <glyph glyph-name="oacute" unicode="&#xf3;" horiz-adv-x="1490" d="M746 -20q-296 0 -479 147.5t-183 384.5t183 384.5t479 147.5q295 0 479 -148t184 -384q0 -156 -83 -277t-234 -188t-346 -67zM480 548q0 -52 18.5 -101.5t53 -91.5t92 -67.5t128.5 -25.5q113 0 177 55.5t64 157.5q0 51 -18.5 100.5t-53 92t-92.5 68.5t-129 26
q-113 0 -176.5 -55.5t-63.5 -158.5zM529 1106l328 328h435l-388 -328h-375z"></glyph>
    <glyph glyph-name="ocircumflex" unicode="&#xf4;" horiz-adv-x="1490" d="M746 -20q-296 0 -479 147.5t-183 384.5t183 384.5t479 147.5q295 0 479 -148t184 -384q0 -156 -83 -277t-234 -188t-346 -67zM227 1106l279 328h483l276 -328h-342l-175 184h-4l-175 -184h-342zM480 548q0 -52 18.5 -101.5t53 -91.5t92 -67.5t128.5 -25.5q113 0 177 55.5
t64 157.5q0 51 -18.5 100.5t-53 92t-92.5 68.5t-129 26q-113 0 -176.5 -55.5t-63.5 -158.5z"></glyph>
    <glyph glyph-name="otilde" unicode="&#xf5;" horiz-adv-x="1490" d="M746 -20q-296 0 -479 147.5t-183 384.5t183 384.5t479 147.5q295 0 479 -148t184 -384q0 -156 -83 -277t-234 -188t-346 -67zM268 1106q-39 151 32 241.5t232 90.5q68 0 134 -17.5t108 -39t88 -39t79 -17.5q42 0 53.5 27t-4.5 82h236q39 -151 -32.5 -241.5t-232.5 -90.5
q-68 0 -134 17.5t-108 38.5t-87.5 38.5t-78.5 17.5q-42 0 -54 -26.5t4 -81.5h-235zM480 548q0 -52 18.5 -101.5t53 -91.5t92 -67.5t128.5 -25.5q113 0 177 55.5t64 157.5q0 51 -18.5 100.5t-53 92t-92.5 68.5t-129 26q-113 0 -176.5 -55.5t-63.5 -158.5z"></glyph>
    <glyph glyph-name="odieresis" unicode="&#xf6;" horiz-adv-x="1490" d="M746 -20q-296 0 -479 147.5t-183 384.5t183 384.5t479 147.5q295 0 479 -148t184 -384q0 -156 -83 -277t-234 -188t-346 -67zM359 1139v295h314v-295h-314zM480 548q0 -52 18.5 -101.5t53 -91.5t92 -67.5t128.5 -25.5q113 0 177 55.5t64 157.5q0 51 -18.5 100.5t-53 92
t-92.5 68.5t-129 26q-113 0 -176.5 -55.5t-63.5 -158.5zM819 1139v295h315v-295h-315z"></glyph>
    <glyph glyph-name="divide" unicode="&#xf7;" horiz-adv-x="1601" d="M120 561v311h1362v-311h-1362zM609 102v328h394v-328h-394zM609 1004v327h394v-327h-394z"></glyph>
    <glyph glyph-name="oslash" unicode="&#xf8;" horiz-adv-x="1515" d="M758 -20q-211 0 -370 78l-61 -58h-221l152 144q-163 144 -163 368q0 237 183.5 384.5t479.5 147.5q210 0 369 -78l61 58h221l-152 -144q163 -146 163 -368q0 -237 -183 -384.5t-479 -147.5zM470 549q0 -84 47 -160l369 349q-70 36 -157 36q-122 0 -190.5 -58.5
t-68.5 -166.5zM629 286q67 -36 157 -36q122 0 190.5 58.5t68.5 165.5q0 88 -47 161z"></glyph>
    <glyph glyph-name="ugrave" unicode="&#xf9;" horiz-adv-x="1556" d="M574 -20q-196 0 -312.5 117t-116.5 317v610h394v-500q0 -111 57.5 -172t158.5 -61q112 0 176 71.5t64 192.5v469h394v-1024h-373l-21 322h-7q-24 -160 -133 -251t-281 -91zM217 1434h435l328 -328h-374z"></glyph>
    <glyph glyph-name="uacute" unicode="&#xfa;" horiz-adv-x="1556" d="M574 -20q-196 0 -312.5 117t-116.5 317v610h394v-500q0 -111 57.5 -172t158.5 -61q112 0 176 71.5t64 192.5v469h394v-1024h-373l-21 322h-7q-24 -160 -133 -251t-281 -91zM549 1106l328 328h435l-389 -328h-374z"></glyph>
    <glyph glyph-name="ucircumflex" unicode="&#xfb;" horiz-adv-x="1556" d="M574 -20q-196 0 -312.5 117t-116.5 317v610h394v-500q0 -111 57.5 -172t158.5 -61q112 0 176 71.5t64 192.5v469h394v-1024h-373l-21 322h-7q-24 -160 -133 -251t-281 -91zM246 1106l279 328h483l277 -328h-342l-175 184h-5l-174 -184h-343z"></glyph>
    <glyph glyph-name="udieresis" unicode="&#xfc;" horiz-adv-x="1556" d="M574 -20q-196 0 -312.5 117t-116.5 317v610h394v-500q0 -111 57.5 -172t158.5 -61q112 0 176 71.5t64 192.5v469h394v-1024h-373l-21 322h-7q-24 -160 -133 -251t-281 -91zM378 1139v295h315v-295h-315zM839 1139v295h315v-295h-315z"></glyph>
    <glyph glyph-name="yacute" unicode="&#xfd;" horiz-adv-x="1511" d="M712 -389q-258 0 -421 98t-182 283h393q46 -109 234 -109q108 0 161 48t53 149v350h-5q-19 -161 -128 -254.5t-281 -93.5q-193 0 -302.5 120t-109.5 337v485h394v-410q0 -104 54 -161.5t155 -57.5q105 0 164 63t59 187v379h393v-932q0 -222 -169 -351.5t-462 -129.5z
M500 1106l328 328h435l-389 -328h-374z"></glyph>
    <glyph glyph-name="thorn" unicode="&#xfe;" horiz-adv-x="1601" d="M1000 -20q-163 0 -281.5 72.5t-152.5 193.5h-4v-615h-394v1803h394v-656h4q34 121 153.5 193.5t282.5 72.5q227 0 362.5 -143t135.5 -388q0 -246 -136 -389.5t-364 -143.5zM554 538q0 -121 81 -195.5t218 -74.5q117 0 182 55.5t65 161.5q0 122 -81 197.5t-218 75.5
q-117 0 -182 -56.5t-65 -163.5z"></glyph>
    <glyph glyph-name="ydieresis" unicode="&#xff;" horiz-adv-x="1511" d="M712 -389q-258 0 -421 98t-182 283h393q46 -109 234 -109q108 0 161 48t53 149v350h-5q-19 -161 -128 -254.5t-281 -93.5q-193 0 -302.5 120t-109.5 337v485h394v-410q0 -104 54 -161.5t155 -57.5q105 0 164 63t59 187v379h393v-932q0 -222 -169 -351.5t-462 -129.5z
M329 1139v295h315v-295h-315zM790 1139v295h315v-295h-315z"></glyph>
    <glyph glyph-name="Amacron" unicode="&#x100;" horiz-adv-x="1869" d="M17 0l648 1434h541l646 -1434h-427l-135 329h-717l-135 -329h-421zM446 1567v225h979v-225h-979zM703 642h457q-152 357 -226 550h-5q-74 -193 -226 -550z"></glyph>
    <glyph glyph-name="amacron" unicode="&#x101;" horiz-adv-x="1490" d="M501 -20q-185 0 -298.5 89t-113.5 234q0 162 135.5 247t408.5 85q174 0 225 7q106 14 106 63q0 39 -53 61t-145 22q-192 0 -237 -98h-393q27 162 194 258t423 96q274 0 431.5 -108.5t157.5 -298.5v-291q0 -266 67 -342v-4h-377q-50 34 -66 322h-5q-27 -155 -152 -248.5
t-308 -93.5zM262 1157v225h979v-225h-979zM481 371q0 -47 43 -75t126 -28q136 0 225 75.5t89 211.5v20h-5q-16 -56 -79.5 -76t-181.5 -24q-35 -1 -52 -2.5t-48 -5t-47.5 -10t-35 -17.5t-26.5 -28.5t-8 -40.5z"></glyph>
    <glyph glyph-name="Abreve" unicode="&#x102;" horiz-adv-x="1869" d="M17 0l648 1434h541l646 -1434h-427l-135 329h-717l-135 -329h-421zM446 1843h320q13 -54 61.5 -89.5t125.5 -35.5t118 35.5t34 89.5h320q-5 -159 -135.5 -245.5t-354.5 -86.5q-226 0 -355 87t-134 245zM703 642h457q-152 357 -226 550h-5q-74 -193 -226 -550z"></glyph>
    <glyph glyph-name="abreve" unicode="&#x103;" horiz-adv-x="1490" d="M501 -20q-185 0 -298.5 89t-113.5 234q0 162 135.5 247t408.5 85q174 0 225 7q106 14 106 63q0 39 -53 61t-145 22q-192 0 -237 -98h-393q27 162 194 258t423 96q274 0 431.5 -108.5t157.5 -298.5v-291q0 -266 67 -342v-4h-377q-50 34 -66 322h-5q-27 -155 -152 -248.5
t-308 -93.5zM263 1434h320q13 -54 61 -89.5t125 -35.5t118 35.5t34 89.5h320q-5 -159 -135.5 -245.5t-353.5 -86.5q-226 0 -355 87t-134 245zM481 371q0 -47 43 -75t126 -28q136 0 225 75.5t89 211.5v20h-5q-16 -56 -79.5 -76t-181.5 -24q-35 -1 -52 -2.5t-48 -5t-47.5 -10
t-35 -17.5t-26.5 -28.5t-8 -40.5z"></glyph>
    <glyph glyph-name="Aogonek" unicode="&#x104;" horiz-adv-x="1869" d="M1852 -369q-175 -16 -278.5 24.5t-103.5 131.5q0 127 239 207l-2 6h-282l-135 329h-717l-135 -329h-421l648 1434h541l646 -1434q-177 -26 -177 -104q0 -80 177 -80v-185zM703 642h457q-152 357 -226 550h-5q-74 -193 -226 -550z"></glyph>
    <glyph glyph-name="aogonek" unicode="&#x105;" horiz-adv-x="1490" d="M501 -20q-185 0 -298.5 89t-113.5 234q0 162 135.5 247t408.5 85q174 0 225 7q106 14 106 63q0 40 -53 62t-145 22q-191 0 -237 -99h-393q27 162 194 258.5t423 96.5q273 0 431 -109t158 -299v-291q0 -266 67 -342v-4h1q-176 -26 -176 -104q0 -42 43.5 -61t132.5 -19
v-185q-175 -16 -278.5 25t-103.5 132q0 125 235 205l-2 7h-229q-50 34 -66 322h-5q-27 -155 -152 -248.5t-308 -93.5zM481 371q0 -47 43 -75t126 -28q136 0 225 75.5t89 211.5v21h-5q-17 -56 -80.5 -76.5t-180.5 -24.5q-35 -1 -52 -2.5t-48 -5t-47.5 -10t-35 -17.5
t-26.5 -28.5t-8 -40.5z"></glyph>
    <glyph glyph-name="Cacute" unicode="&#x106;" horiz-adv-x="1921" d="M964 -20q-251 0 -447 92t-305 260t-109 385t109 385t305 260t447 92q343 0 572.5 -167t279.5 -445h-447q-41 134 -153 209t-276 75q-186 0 -293.5 -101t-107.5 -277q0 -200 122.5 -320.5t327.5 -120.5q177 0 280.5 95.5t114.5 263.5h440q-16 -203 -127 -358.5
t-301 -241.5t-432 -86zM749 1516l328 327h435l-389 -327h-374z"></glyph>
    <glyph glyph-name="cacute" unicode="&#x107;" horiz-adv-x="1472" d="M739 -20q-292 0 -473.5 147.5t-181.5 384.5t181 384.5t473 147.5q264 0 439.5 -122.5t209.5 -327.5h-406q-61 168 -265 168q-111 0 -173.5 -55t-62.5 -159q0 -51 17.5 -100.5t50.5 -91.5t88 -68t123 -26q107 0 170.5 54.5t69.5 144.5h394q-23 -216 -200.5 -348.5
t-453.5 -132.5zM524 1106l328 328h435l-389 -328h-374z"></glyph>
    <glyph glyph-name="Cdotaccent" unicode="&#x10a;" horiz-adv-x="1921" d="M964 -20q-251 0 -447 92t-305 260t-109 385t109 385t305 260t447 92q343 0 572.5 -167t279.5 -445h-447q-41 134 -153 209t-276 75q-186 0 -293.5 -101t-107.5 -277q0 -200 122.5 -320.5t327.5 -120.5q177 0 280.5 95.5t114.5 263.5h440q-16 -203 -127 -358.5
t-301 -241.5t-432 -86zM768 1516v327h393v-327h-393z"></glyph>
    <glyph glyph-name="cdotaccent" unicode="&#x10b;" horiz-adv-x="1472" d="M739 -20q-292 0 -473.5 147.5t-181.5 384.5t181 384.5t473 147.5q264 0 439.5 -122.5t209.5 -327.5h-406q-61 168 -265 168q-111 0 -173.5 -55t-62.5 -159q0 -51 17.5 -100.5t50.5 -91.5t88 -68t123 -26q107 0 170.5 54.5t69.5 144.5h394q-23 -216 -200.5 -348.5
t-453.5 -132.5zM543 1106v328h394v-328h-394z"></glyph>
    <glyph glyph-name="Ccaron" unicode="&#x10c;" horiz-adv-x="1921" d="M964 -20q-251 0 -447 92t-305 260t-109 385t109 385t305 260t447 92q343 0 572.5 -167t279.5 -445h-447q-41 134 -153 209t-276 75q-186 0 -293.5 -101t-107.5 -277q0 -200 122.5 -320.5t327.5 -120.5q177 0 280.5 95.5t114.5 263.5h440q-16 -203 -127 -358.5
t-301 -241.5t-432 -86zM446 1843h342l175 -184h5l174 184h343l-279 -327h-483z"></glyph>
    <glyph glyph-name="ccaron" unicode="&#x10d;" horiz-adv-x="1472" d="M739 -20q-292 0 -473.5 147.5t-181.5 384.5t181 384.5t473 147.5q264 0 439.5 -122.5t209.5 -327.5h-406q-61 168 -265 168q-111 0 -173.5 -55t-62.5 -159q0 -51 17.5 -100.5t50.5 -91.5t88 -68t123 -26q107 0 170.5 54.5t69.5 144.5h394q-23 -216 -200.5 -348.5
t-453.5 -132.5zM221 1434h342l175 -185h5l174 185h343l-279 -328h-483z"></glyph>
    <glyph glyph-name="Dcaron" unicode="&#x10e;" horiz-adv-x="1845" d="M203 0v1434h578q461 0 711 -187t250 -530t-250 -530t-711 -187h-578zM347 1843h343l174 -184h5l174 184h343l-279 -327h-483zM604 317h175q262 0 402.5 103.5t140.5 296.5t-140.5 296t-402.5 103h-175v-799z"></glyph>
    <glyph glyph-name="dcaron" unicode="&#x10f;" horiz-adv-x="1867" d="M599 -20q-227 0 -362.5 143t-135.5 388q0 246 135.5 389.5t363.5 143.5q163 0 281.5 -72.5t152.5 -193.5h5v656h394v-1434h-374l-20 246h-5q-34 -121 -153 -193.5t-282 -72.5zM501 539q0 -122 81 -197.5t218 -75.5q117 0 182 56.5t65 163.5q0 121 -80.5 195.5
t-218.5 74.5q-117 0 -182 -55.5t-65 -161.5zM1575 862v572h313l-25 -572h-288z"></glyph>
    <glyph glyph-name="Dcroat" unicode="&#x110;" horiz-adv-x="1845" d="M203 0v594h-152v266h152v574h578q461 0 711 -187t250 -530t-250 -530t-711 -187h-578zM604 317h175q262 0 402.5 103.5t140.5 296.5t-140.5 296t-402.5 103h-175v-256h410v-266h-410v-277z"></glyph>
    <glyph glyph-name="dcroat" unicode="&#x111;" horiz-adv-x="1601" d="M599 -20q-227 0 -362.5 143t-135.5 388q0 246 135.5 389.5t363.5 143.5q163 0 281.5 -72.5t152.5 -193.5h5v359h-468v184h468v113h394v-113h143v-184h-143v-1137h-374l-20 246h-5q-34 -121 -153 -193.5t-282 -72.5zM501 539q0 -122 81 -197.5t218 -75.5q117 0 182 56.5
t65 163.5q0 121 -80.5 195.5t-218.5 74.5q-117 0 -182 -55.5t-65 -161.5z"></glyph>
    <glyph glyph-name="Emacron" unicode="&#x112;" horiz-adv-x="1585" d="M203 0v1434h1264v-328h-871v-232h821v-294h-821v-252h723v-328h-1116zM382 1567v225h979v-225h-979z"></glyph>
    <glyph glyph-name="emacron" unicode="&#x113;" horiz-adv-x="1466" d="M728 -20q-292 0 -467 146t-175 385q0 240 177.5 386.5t471.5 146.5t470.5 -144t176.5 -388v-41h-903q27 -90 95.5 -149.5t176.5 -59.5q91 0 153 39t74 98h384q-37 -194 -208 -306.5t-426 -112.5zM244 1157v225h979v-225h-979zM472 645h510q-35 154 -251 154
q-218 0 -259 -154z"></glyph>
    <glyph glyph-name="Edotaccent" unicode="&#x116;" horiz-adv-x="1585" d="M203 0v1434h1264v-328h-871v-232h821v-294h-821v-252h723v-328h-1116zM674 1516v327h394v-327h-394z"></glyph>
    <glyph glyph-name="edotaccent" unicode="&#x117;" horiz-adv-x="1466" d="M728 -20q-292 0 -467 146t-175 385q0 240 177.5 386.5t471.5 146.5t470.5 -144t176.5 -388v-41h-903q27 -90 95.5 -149.5t176.5 -59.5q91 0 153 39t74 98h384q-37 -194 -208 -306.5t-426 -112.5zM472 645h510q-35 154 -251 154q-218 0 -259 -154zM536 1106v328h394v-328
h-394z"></glyph>
    <glyph glyph-name="Eogonek" unicode="&#x118;" horiz-adv-x="1585" d="M1319 -369q-175 -16 -278.5 24.5t-103.5 131.5q0 128 239 208l-1 5h-972v1434h1264v-328h-871v-232h821v-294h-821v-252h723v-328q-177 -26 -177 -104q0 -80 177 -80v-185z"></glyph>
    <glyph glyph-name="eogonek" unicode="&#x119;" horiz-adv-x="1466" d="M1098 -369q-177 -17 -279.5 29.5t-102.5 144.5q0 57 41.5 97.5t135.5 82.5l-3 8q-79 -14 -162 -14q-292 0 -467 146t-175 386t177.5 386.5t471.5 146.5t470.5 -144t176.5 -388v-41h-903q27 -90 95.5 -149.5t176.5 -59.5q91 0 153 39t74 98h384q-22 -115 -93 -203.5
t-183 -142.5q-94 -45 -129.5 -77t-35.5 -72q0 -88 177 -88v-185zM472 645h510q-35 154 -251 154q-218 0 -259 -154z"></glyph>
    <glyph glyph-name="Ecaron" unicode="&#x11a;" horiz-adv-x="1585" d="M203 0v1434h1264v-328h-871v-232h821v-294h-821v-252h723v-328h-1116zM352 1843h342l175 -184h5l174 184h343l-279 -327h-483z"></glyph>
    <glyph glyph-name="ecaron" unicode="&#x11b;" horiz-adv-x="1466" d="M728 -20q-292 0 -467 146t-175 385q0 240 177.5 386.5t471.5 146.5t470.5 -144t176.5 -388v-41h-903q27 -90 95.5 -149.5t176.5 -59.5q91 0 153 39t74 98h384q-37 -194 -208 -306.5t-426 -112.5zM215 1434h342l175 -185h4l175 185h342l-279 -328h-482zM473 645h509
q-35 154 -251 154q-217 0 -258 -154z"></glyph>
    <glyph glyph-name="Gbreve" unicode="&#x11e;" horiz-adv-x="1978" d="M855 -20q-215 0 -386 92.5t-267.5 258.5t-96.5 376q0 223 108.5 392t310.5 262t470 93q313 0 532.5 -125t286.5 -344h-472q-39 72 -138 112t-229 40q-213 0 -327 -105.5t-114 -289.5q0 -199 126.5 -317t334.5 -118q161 0 270 77t149 218h-526v270h926v-872h-353l-12 346
h-5q-60 -174 -214.5 -270t-373.5 -96zM505 1843h320q13 -54 61 -89.5t125 -35.5t118 35.5t34 89.5h320q-5 -159 -135.5 -245.5t-353.5 -86.5q-226 0 -355 87t-134 245z"></glyph>
    <glyph glyph-name="gbreve" unicode="&#x11f;" horiz-adv-x="1570" d="M777 -389q-253 0 -411.5 97.5t-182.5 278.5h398q19 -49 78.5 -76.5t144.5 -27.5q211 0 211 187v239h-5q-34 -112 -148.5 -177.5t-275.5 -65.5q-229 0 -362 131.5t-133 355.5q0 225 133 358t357 133q156 0 271.5 -65.5t157.5 -177.5h6l19 223h368v-942
q0 -218 -167.5 -344.5t-458.5 -126.5zM290 1434h319q13 -54 61.5 -89.5t125.5 -35.5t118 35.5t34 89.5h320q-5 -159 -135.5 -245.5t-354.5 -86.5q-226 0 -354.5 87t-133.5 245zM490 580q0 -112 79.5 -181t213.5 -69q113 0 176.5 51.5t63.5 149.5q0 111 -79 179t-213 68
q-115 0 -178 -50.5t-63 -147.5z"></glyph>
    <glyph glyph-name="Gdotaccent" unicode="&#x120;" horiz-adv-x="1978" d="M855 -20q-215 0 -386 92.5t-267.5 258.5t-96.5 376q0 223 108.5 392t310.5 262t470 93q313 0 532.5 -125t286.5 -344h-472q-39 72 -138 112t-229 40q-213 0 -327 -105.5t-114 -289.5q0 -199 126.5 -317t334.5 -118q161 0 270 77t149 218h-526v270h926v-872h-353l-12 346
h-5q-60 -174 -214.5 -270t-373.5 -96zM797 1516v327h393v-327h-393z"></glyph>
    <glyph glyph-name="gdotaccent" unicode="&#x121;" horiz-adv-x="1570" d="M777 -389q-253 0 -411.5 97.5t-182.5 278.5h398q19 -49 78.5 -76.5t144.5 -27.5q211 0 211 187v239h-5q-34 -112 -148.5 -177.5t-275.5 -65.5q-229 0 -362 131.5t-133 355.5q0 225 133 358t357 133q156 0 271.5 -65.5t157.5 -177.5h6l19 223h368v-942
q0 -218 -167.5 -344.5t-458.5 -126.5zM490 580q0 -112 79.5 -181t213.5 -69q113 0 176.5 51.5t63.5 149.5q0 111 -79 179t-213 68q-115 0 -178 -50.5t-63 -147.5zM581 1106v328h394v-328h-394z"></glyph>
    <glyph glyph-name="uni0122" unicode="&#x122;" horiz-adv-x="1978" d="M855 -20q-215 0 -386 92.5t-267.5 258.5t-96.5 376q0 223 108.5 392t310.5 262t470 93q313 0 532.5 -125t286.5 -344h-472q-39 72 -138 112t-229 40q-213 0 -327 -105.5t-114 -289.5q0 -199 126.5 -317t334.5 -118q161 0 270 77t149 218h-526v270h926v-872h-353l-12 346
h-5q-60 -174 -214.5 -270t-373.5 -96zM709 -369l140 287h355l-180 -287h-315z"></glyph>
    <glyph glyph-name="uni0123" unicode="&#x123;" horiz-adv-x="1570" d="M777 -389q-253 0 -411.5 97.5t-182.5 278.5h398q19 -49 78.5 -76.5t144.5 -27.5q211 0 211 187v239h-5q-34 -112 -148.5 -177.5t-275.5 -65.5q-229 0 -362 131.5t-133 355.5q0 225 133 358t357 133q156 0 271.5 -65.5t157.5 -177.5h6l19 223h368v-942
q0 -218 -167.5 -344.5t-458.5 -126.5zM490 580q0 -112 79.5 -181t213.5 -69q113 0 176.5 51.5t63.5 149.5q0 111 -79 179t-213 68q-115 0 -178 -50.5t-63 -147.5zM531 1147l180 287h315l-140 -287h-355z"></glyph>
    <glyph glyph-name="Hbar" unicode="&#x126;" horiz-adv-x="1951" d="M203 0v1055h-154v225h154v154h409v-154h727v154h410v-154h149v-225h-149v-1055h-410v563h-727v-563h-409zM612 891h727v164h-727v-164z"></glyph>
    <glyph glyph-name="hbar" unicode="&#x127;" horiz-adv-x="1564" d="M168 0v1137h-144v184h144v113h394v-113h467v-184h-467v-430h6q24 158 133 247.5t281 89.5q196 0 313 -115.5t117 -312.5v-616h-394v504q0 111 -57.5 172t-158.5 61q-112 0 -176 -71.5t-64 -192.5v-473h-394z"></glyph>
    <glyph glyph-name="Imacron" unicode="&#x12a;" horiz-adv-x="815" d="M203 0v1434h409v-1434h-409zM-82 1567v225h979v-225h-979z"></glyph>
    <glyph glyph-name="imacron" unicode="&#x12b;" horiz-adv-x="729" d="M168 0v1024h394v-1024h-394zM-125 1157v225h979v-225h-979z"></glyph>
    <glyph glyph-name="Iogonek" unicode="&#x12e;" horiz-adv-x="815" d="M203 0v1434h409v-1434q-177 -26 -177 -104q0 -80 177 -80v-185q-175 -16 -279 24.5t-104 131.5q0 131 255 213h-281z"></glyph>
    <glyph glyph-name="iogonek" unicode="&#x12f;" horiz-adv-x="729" d="M168 0v1024h393v-1024q-176 -26 -176 -104q0 -42 43.5 -61t132.5 -19v-185q-175 -16 -278.5 24.5t-103.5 131.5q0 126 235 206l-2 7h-244zM167 1106v328h393v-328h-393z"></glyph>
    <glyph glyph-name="Idotaccent" unicode="&#x130;" horiz-adv-x="815" d="M203 0v1434h409v-1434h-409zM210 1516v327h394v-327h-394z"></glyph>
    <glyph glyph-name="dotlessi" unicode="&#x131;" horiz-adv-x="729" d="M168 0v1024h394v-1024h-394z"></glyph>
    <glyph glyph-name="IJ" unicode="&#x132;" horiz-adv-x="1603" d="M175 981v453h410v-453h-410zM171 543v327h410v-313q0 -125 57.5 -187.5t163.5 -62.5q102 0 156.5 62.5t54.5 187.5l1 877h409v-891q0 -264 -168.5 -413.5t-460.5 -149.5q-289 0 -456 149.5t-167 413.5z"></glyph>
    <glyph glyph-name="ij" unicode="&#x133;" horiz-adv-x="1513" d="M168 0v1024h394v-1024h-394zM167 1106v328h394v-328h-394zM604 -356v258q64 -27 141 -27q107 0 156.5 54t49.5 173v922h394v-915q0 -245 -126 -371.5t-370 -126.5q-146 0 -245 33zM949 1106v328h393v-328h-393z"></glyph>
    <glyph glyph-name="uni0136" unicode="&#x136;" horiz-adv-x="1763" d="M203 0v1434h405q0 -381 -6 -605h5q239 254 620 605h525l-626 -579l626 -855h-504l-460 638l-180 -191v-447h-405zM664 -369l139 287h355l-180 -287h-314z"></glyph>
    <glyph glyph-name="uni0137" unicode="&#x137;" horiz-adv-x="1433" d="M168 0v1434h390v-838h4q153 164 439 428h448l-475 -445l475 -579h-448l-329 407l-114 -112v-295h-390zM526 -369l140 287h355l-180 -287h-315z"></glyph>
    <glyph glyph-name="Lacute" unicode="&#x139;" horiz-adv-x="1452" d="M203 0v1434h409v-1106h781v-328h-1190zM191 1516l328 327h435l-389 -327h-374z"></glyph>
    <glyph glyph-name="lacute" unicode="&#x13a;" horiz-adv-x="729" d="M168 0v1434h394v-1434h-394zM148 1516l328 327h435l-389 -327h-374z"></glyph>
    <glyph glyph-name="uni013B" unicode="&#x13b;" horiz-adv-x="1452" d="M203 0v1434h409v-1106h781v-328h-1190zM549 -369l140 287h355l-180 -287h-315z"></glyph>
    <glyph glyph-name="uni013C" unicode="&#x13c;" horiz-adv-x="729" d="M168 0v1434h394v-1434h-394zM118 -369l139 287h355l-180 -287h-314z"></glyph>
    <glyph glyph-name="Lcaron" unicode="&#x13d;" horiz-adv-x="1452" d="M203 0v1434h409v-1106h781v-328h-1190zM892 799v635h348l-29 -635h-319z"></glyph>
    <glyph glyph-name="lcaron" unicode="&#x13e;" horiz-adv-x="1021" d="M168 0v1434h394v-1434h-394zM704 862v572h313l-26 -572h-287z"></glyph>
    <glyph glyph-name="Lslash" unicode="&#x141;" horiz-adv-x="1519" d="M1046 888l-365 -191v-369h780v-328h-1190v482l-196 -103v287l196 103v665h410v-450l365 191v-287z"></glyph>
    <glyph glyph-name="lslash" unicode="&#x142;" horiz-adv-x="876" d="M257 0v478l-185 -99v288l185 99v668h394v-458l185 99v-288l-185 -99v-688h-394z"></glyph>
    <glyph glyph-name="Nacute" unicode="&#x143;" horiz-adv-x="2060" d="M203 0v1434h541q176 -242 257 -354.5t226 -325t264 -402.5l5 2q-20 414 -20 1080h381v-1434h-511q-177 248 -266 373.5t-238 347.5t-273 422l-5 -2q20 -434 20 -1141h-381zM813 1516l329 327h434l-388 -327h-375z"></glyph>
    <glyph glyph-name="nacute" unicode="&#x144;" horiz-adv-x="1558" d="M168 0v1024h373l21 -317h6q24 158 133 247.5t281 89.5q196 0 313 -115.5t117 -312.5v-616h-394v504q0 111 -57.5 172t-158.5 61q-112 0 -176 -71.5t-64 -192.5v-473h-394zM569 1106l328 328h435l-389 -328h-374z"></glyph>
    <glyph glyph-name="uni0145" unicode="&#x145;" horiz-adv-x="2060" d="M203 0v1434h541q176 -242 257 -354.5t226 -325t264 -402.5l5 2q-20 414 -20 1080h381v-1434h-511q-177 248 -266 373.5t-238 347.5t-273 422l-5 -2q20 -434 20 -1141h-381zM703 -369l139 287h355l-180 -287h-314z"></glyph>
    <glyph glyph-name="uni0146" unicode="&#x146;" horiz-adv-x="1558" d="M168 0v1024h373l21 -317h6q24 158 133 247.5t281 89.5q196 0 313 -115.5t117 -312.5v-616h-394v504q0 111 -57.5 172t-158.5 61q-112 0 -176 -71.5t-64 -192.5v-473h-394zM537 -369l140 287h355l-180 -287h-315z"></glyph>
    <glyph glyph-name="Ncaron" unicode="&#x147;" horiz-adv-x="2060" d="M203 0v1434h541q176 -242 257 -354.5t226 -325t264 -402.5l5 2q-20 414 -20 1080h381v-1434h-511q-177 248 -266 373.5t-238 347.5t-273 422l-5 -2q20 -434 20 -1141h-381zM511 1843h342l175 -184h4l175 184h342l-279 -327h-483z"></glyph>
    <glyph glyph-name="ncaron" unicode="&#x148;" horiz-adv-x="1558" d="M168 0v1024h373l21 -317h6q24 158 133 247.5t281 89.5q196 0 313 -115.5t117 -312.5v-616h-394v504q0 111 -57.5 172t-158.5 61q-112 0 -176 -71.5t-64 -192.5v-473h-394zM266 1434h343l174 -185h5l175 185h342l-279 -328h-483z"></glyph>
    <glyph glyph-name="Eng" unicode="&#x14a;" horiz-adv-x="2060" d="M1366 -389q-145 0 -246 27v235q70 -22 167 -22q116 0 172.5 35.5t63.5 113.5h-176q-186 261 -268 377t-234 341.5t-276 424.5l-5 -2q20 -434 20 -1141h-381v1434h541q176 -242 257 -354.5t226 -325t264 -402.5l5 2q-20 414 -20 1080h381v-1434q0 -198 -120.5 -293.5
t-370.5 -95.5z"></glyph>
    <glyph glyph-name="eng" unicode="&#x14b;" horiz-adv-x="1558" d="M916 -389q-147 0 -246 33v258q60 -29 141 -29q107 0 157 59t50 189v383q0 111 -57.5 172t-158.5 61q-112 0 -176 -71.5t-64 -192.5v-473h-394v1024h374l20 -317h6q24 158 133 247.5t281 89.5q196 0 313 -115.5t117 -312.5v-501q0 -255 -123 -379.5t-373 -124.5z"></glyph>
    <glyph glyph-name="Omacron" unicode="&#x14c;" horiz-adv-x="1957" d="M979 -20q-258 0 -457.5 92.5t-309.5 260.5t-110 384t110 384t309.5 260.5t457.5 92.5q257 0 457 -93t310 -260.5t110 -383.5t-109.5 -383.5t-309.5 -260.5t-458 -93zM490 1567v225h979v-225h-979zM532 747q0 -201 128.5 -320.5t347.5 -119.5q193 0 305.5 100.5
t112.5 277.5q0 201 -129 321t-348 120q-192 0 -304.5 -101t-112.5 -278z"></glyph>
    <glyph glyph-name="omacron" unicode="&#x14d;" horiz-adv-x="1490" d="M746 -20q-296 0 -479 147.5t-183 384.5t183 384.5t479 147.5q295 0 479 -148t184 -384q0 -156 -83 -277t-234 -188t-346 -67zM256 1157v225h980v-225h-980zM480 548q0 -52 18.5 -101.5t53 -91.5t92 -67.5t128.5 -25.5q113 0 177 55.5t64 157.5q0 51 -18.5 100.5t-53 92
t-92.5 68.5t-129 26q-113 0 -176.5 -55.5t-63.5 -158.5z"></glyph>
    <glyph glyph-name="Ohungarumlaut" unicode="&#x150;" horiz-adv-x="1957" d="M979 -20q-258 0 -457.5 92.5t-309.5 260.5t-110 384t110 384t309.5 260.5t457.5 92.5q257 0 457 -93t310 -260.5t110 -383.5t-109.5 -383.5t-309.5 -260.5t-458 -93zM532 747q0 -201 128.5 -320.5t347.5 -119.5q193 0 305.5 100.5t112.5 277.5q0 201 -129 321t-348 120
q-192 0 -304.5 -101t-112.5 -278zM561 1516l183 327h357l-223 -327h-317zM1037 1516l223 327h359l-265 -327h-317z"></glyph>
    <glyph glyph-name="ohungarumlaut" unicode="&#x151;" horiz-adv-x="1490" d="M746 -20q-296 0 -479 147.5t-183 384.5t183 384.5t479 147.5q295 0 479 -148t184 -384q0 -156 -83 -277t-234 -188t-346 -67zM328 1106l183 328h357l-223 -328h-317zM480 548q0 -52 18.5 -101.5t53 -91.5t92 -67.5t128.5 -25.5q113 0 177 55.5t64 157.5q0 51 -18.5 100.5
t-53 92t-92.5 68.5t-129 26q-113 0 -176.5 -55.5t-63.5 -158.5zM804 1106l223 328h359l-265 -328h-317z"></glyph>
    <glyph glyph-name="OE" unicode="&#x152;" horiz-adv-x="2707" d="M830 -20q-215 0 -379.5 89.5t-256.5 257t-92 390.5q0 168 54 307t150.5 233t231 145.5t293.5 51.5q206 0 357.5 -82.5t216.5 -230.5h5v293h1178v-328h-797v-232h748v-294h-748v-252h674v-328h-1055v293h-5q-66 -148 -217.5 -230.5t-357.5 -82.5zM532 743
q0 -196 128.5 -316t345.5 -120q195 0 307.5 100.5t112.5 281.5q0 196 -129 316.5t-345 120.5q-195 0 -307.5 -101t-112.5 -282z"></glyph>
    <glyph glyph-name="oe" unicode="&#x153;" horiz-adv-x="2392" d="M696 -20q-274 0 -443 146t-169 386t169 386t443 146q151 0 272.5 -46.5t200.5 -132.5h2q173 179 496 179q288 0 464.5 -144.5t176.5 -387.5v-41h-903q27 -90 95.5 -149.5t177.5 -59.5q88 0 151 39t76 98h383q-36 -193 -207.5 -306t-422.5 -113q-318 0 -488 178h-2
q-167 -178 -472 -178zM486 548q0 -52 18.5 -101.5t53 -91.5t92 -67.5t128.5 -25.5q113 0 177 55.5t64 157.5q0 51 -18.5 100.5t-53 92t-92.5 68.5t-129 26q-113 0 -176.5 -55.5t-63.5 -158.5zM1398 640h512q-32 159 -252 159q-222 0 -260 -159z"></glyph>
    <glyph glyph-name="Racute" unicode="&#x154;" horiz-adv-x="1796" d="M203 0v1434h894q303 0 464 -95.5t161 -276.5q0 -153 -119 -249t-353 -129v-4q106 -20 163.5 -85.5t73.5 -186.5q8 -66 13 -97.5t14.5 -78t20.5 -71t29.5 -55.5t44 -54.5t61.5 -47.5v-4h-447q-18 11 -32.5 23t-26.5 30t-19.5 30t-15.5 39.5t-12 41t-10 52.5t-8.5 56
t-9.5 68q-9 62 -34.5 103.5t-64.5 61t-78 27t-90 7.5h-214v-539h-405zM608 809h356q58 0 110 7t102.5 24t80.5 50.5t30 81.5q0 46 -28 79.5t-75 50t-94.5 24t-99.5 7.5h-382v-324zM656 1516l328 327h435l-389 -327h-374z"></glyph>
    <glyph glyph-name="racute" unicode="&#x155;" horiz-adv-x="1136" d="M168 0v1024h374l20 -358h5q22 175 122.5 276.5t259.5 101.5q83 0 134 -20v-365q-85 21 -176 21q-345 0 -345 -309v-371h-394zM368 1106l328 328h435l-389 -328h-374z"></glyph>
    <glyph glyph-name="uni0156" unicode="&#x156;" horiz-adv-x="1796" d="M203 0v1434h894q303 0 464 -95.5t161 -276.5q0 -153 -119 -249t-353 -129v-4q106 -20 163.5 -85.5t73.5 -186.5q8 -66 13 -97.5t14.5 -78t20.5 -71t29.5 -55.5t44 -54.5t61.5 -47.5v-4h-447q-18 11 -32.5 23t-26.5 30t-19.5 30t-15.5 39.5t-12 41t-10 52.5t-8.5 56
t-9.5 68q-9 62 -34.5 103.5t-64.5 61t-78 27t-90 7.5h-214v-539h-405zM608 809h356q58 0 110 7t102.5 24t80.5 50.5t30 81.5q0 46 -28 79.5t-75 50t-94.5 24t-99.5 7.5h-382v-324zM669 -369l139 287h355l-179 -287h-315z"></glyph>
    <glyph glyph-name="uni0157" unicode="&#x157;" horiz-adv-x="1136" d="M168 0v1024h374l20 -358h5q22 175 122.5 276.5t259.5 101.5q83 0 134 -20v-365q-85 21 -176 21q-345 0 -345 -309v-371h-394zM112 -369l139 287h355l-180 -287h-314z"></glyph>
    <glyph glyph-name="Rcaron" unicode="&#x158;" horiz-adv-x="1796" d="M203 0v1434h894q303 0 464 -95.5t161 -276.5q0 -153 -119 -249t-353 -129v-4q106 -20 163.5 -85.5t73.5 -186.5q8 -66 13 -97.5t14.5 -78t20.5 -71t29.5 -55.5t44 -54.5t61.5 -47.5v-4h-447q-18 11 -32.5 23t-26.5 30t-19.5 30t-15.5 39.5t-12 41t-10 52.5t-8.5 56
t-9.5 68q-9 62 -34.5 103.5t-64.5 61t-78 27t-90 7.5h-214v-539h-405zM353 1843h343l174 -184h5l175 184h342l-279 -328h-483zM608 809h356q58 0 110 7t102.5 24t80.5 50.5t30 81.5q0 46 -28 79.5t-75 50t-94.5 24t-99.5 7.5h-382v-324z"></glyph>
    <glyph glyph-name="rcaron" unicode="&#x159;" horiz-adv-x="1136" d="M168 0v1024h374l20 -358h5q22 175 122.5 276.5t259.5 101.5q83 0 134 -20v-365q-85 21 -176 21q-345 0 -345 -309v-371h-394zM65 1434h342l175 -185h5l174 185h343l-279 -328h-483z"></glyph>
    <glyph glyph-name="Sacute" unicode="&#x15a;" horiz-adv-x="1746" d="M936 -20q-331 0 -537.5 136t-227.5 373h425q28 -100 121.5 -154t242.5 -54q127 0 204.5 37.5t77.5 101.5q0 112 -220 127l-420 31q-249 19 -378 121t-129 278q0 216 196 346.5t519 130.5q331 0 538 -136t228 -372h-427q-30 99 -122.5 153t-243.5 54q-126 0 -202 -37
t-76 -103q0 -60 53.5 -88.5t156.5 -35.5l428 -32q249 -19 378 -121.5t129 -279.5q0 -216 -195.5 -346t-518.5 -130zM591 1516l328 327h435l-389 -327h-374z"></glyph>
    <glyph glyph-name="sacute" unicode="&#x15b;" horiz-adv-x="1437" d="M766 -20q-270 0 -435.5 93t-189.5 269h399q13 -58 74.5 -89.5t161.5 -31.5q86 0 137.5 24t51.5 63q0 65 -140 74l-334 21q-201 12 -305 86.5t-104 205.5q0 164 157 256.5t426 92.5q270 0 434.5 -92.5t188.5 -267.5h-399q-11 57 -73.5 89t-161.5 32q-86 0 -137 -23.5
t-51 -62.5q0 -66 139 -75l333 -20q201 -13 306 -88t105 -205q0 -164 -157 -257.5t-426 -93.5zM446 1106l328 328h435l-389 -328h-374z"></glyph>
    <glyph glyph-name="Scedilla" unicode="&#x15e;" horiz-adv-x="1746" d="M950 -389q-141 0 -214.5 41.5t-86.5 134.5h226q14 -47 88 -47q37 0 57.5 13t20.5 36q0 25 -21.5 39.5t-58.5 14.5q-45 0 -73 -29h-159l84 171q-280 25 -451.5 158t-190.5 346h425q28 -100 121.5 -154t242.5 -54q127 0 204.5 37.5t77.5 101.5q0 112 -220 127l-420 31
q-249 19 -378 121t-129 278q0 216 196 346.5t519 130.5q331 0 538 -136t228 -372h-427q-30 99 -122.5 153t-243.5 54q-126 0 -202 -37t-76 -103q0 -60 53.5 -88.5t156.5 -35.5l428 -32q249 -19 378 -121.5t129 -279.5q0 -208 -182.5 -337t-485.5 -139l-28 -61q39 15 102 15
q101 0 156.5 -40.5t55.5 -111.5q0 -86 -84.5 -128.5t-233.5 -42.5z"></glyph>
    <glyph glyph-name="scedilla" unicode="&#x15f;" horiz-adv-x="1437" d="M788 -389q-141 0 -214.5 41.5t-86.5 134.5h225q14 -47 88 -47q37 0 58 13t21 36q0 25 -22 39.5t-59 14.5q-44 0 -72 -29h-160l85 170q-221 19 -354.5 110.5t-155.5 247.5h399q13 -58 74.5 -89.5t161.5 -31.5q86 0 137.5 24t51.5 63q0 65 -140 74l-334 21
q-201 12 -305 86.5t-104 205.5q0 164 157 256.5t426 92.5q270 0 434.5 -92.5t188.5 -267.5h-399q-11 57 -73.5 89t-161.5 32q-86 0 -137 -23.5t-51 -62.5q0 -66 139 -75l333 -20q201 -13 306 -88t105 -205q0 -155 -141.5 -247.5t-387.5 -102.5l-28 -62q39 15 102 15
q101 0 156.5 -40.5t55.5 -111.5q0 -86 -84.5 -128.5t-233.5 -42.5z"></glyph>
    <glyph glyph-name="Scaron" unicode="&#x160;" horiz-adv-x="1746" d="M936 -20q-331 0 -537.5 136t-227.5 373h425q28 -100 121.5 -154t242.5 -54q127 0 204.5 37.5t77.5 101.5q0 112 -220 127l-420 31q-249 19 -378 121t-129 278q0 216 196 346.5t519 130.5q331 0 538 -136t228 -372h-427q-30 99 -122.5 153t-243.5 54q-126 0 -202 -37
t-76 -103q0 -60 53.5 -88.5t156.5 -35.5l428 -32q249 -19 378 -121.5t129 -279.5q0 -216 -195.5 -346t-518.5 -130zM288 1843h343l174 -184h5l175 184h342l-279 -327h-483z"></glyph>
    <glyph glyph-name="scaron" unicode="&#x161;" horiz-adv-x="1437" d="M766 -20q-270 0 -435.5 93t-189.5 269h399q13 -58 74.5 -89.5t161.5 -31.5q86 0 137.5 24t51.5 63q0 65 -140 74l-334 21q-201 12 -305 86.5t-104 205.5q0 164 157 256.5t426 92.5q270 0 434.5 -92.5t188.5 -267.5h-399q-11 57 -73.5 89t-161.5 32q-86 0 -137 -23.5
t-51 -62.5q0 -66 139 -75l333 -20q201 -13 306 -88t105 -205q0 -164 -157 -257.5t-426 -93.5zM143 1434h343l174 -185h5l175 185h342l-279 -328h-483z"></glyph>
    <glyph glyph-name="uni0162" unicode="&#x162;" horiz-adv-x="1589" d="M589 0v1106h-540v328h1490v-328h-541v-1106h-141l-37 -80q40 14 101 14q101 0 157 -40.5t56 -110.5q0 -86 -85 -129t-233 -43q-141 0 -214.5 41.5t-86.5 134.5h225q14 -47 88 -47q37 0 57.5 13t20.5 36q0 25 -21.5 39.5t-58.5 14.5q-44 0 -72 -29h-160l92 186h-97z"></glyph>
    <glyph glyph-name="uni0163" unicode="&#x163;" horiz-adv-x="1153" d="M35 750v254h271v307l386 -21v-266h348v-274h-348v-236q0 -38 3.5 -68t16.5 -63.5t34.5 -55.5t60.5 -36.5t92 -14.5q83 0 141 29v-293q-88 -31 -235 -33l-28 -60q39 15 101 15q101 0 157 -40.5t56 -110.5q0 -86 -85 -129t-233 -43q-141 0 -214.5 41.5t-86.5 134.5h225
q14 -47 88 -47q37 0 57.5 13t20.5 36q0 25 -21.5 39.5t-58.5 14.5q-44 0 -72 -29h-160l89 180q-334 69 -334 473v283h-271z"></glyph>
    <glyph glyph-name="Tcaron" unicode="&#x164;" horiz-adv-x="1589" d="M589 0v1106h-540v328h1490v-328h-541v-1106h-409zM274 1843h342l175 -184h5l174 184h343l-279 -327h-483z"></glyph>
    <glyph glyph-name="tcaron" unicode="&#x165;" horiz-adv-x="1153" d="M854 1083l4 351h348l-33 -351h-319zM35 750v254h271v307l386 -21v-266h348v-274h-348v-236q0 -38 3.5 -68t16.5 -63.5t34.5 -55.5t60.5 -36.5t92 -14.5q83 0 141 29v-293q-96 -33 -245 -33q-246 0 -367.5 121t-121.5 367v283h-271z"></glyph>
    <glyph glyph-name="Tbar" unicode="&#x166;" horiz-adv-x="1595" d="M228 532v267h364v307h-540v328h1491v-328h-542v-307h366v-267h-366v-532h-409v532h-364z"></glyph>
    <glyph glyph-name="tbar" unicode="&#x167;" horiz-adv-x="1247" d="M110 451v184h245v115h-272v254h272v307l385 -21v-266h348v-274h-348v-115h321v-184h-317q10 -79 55 -127t148 -48q83 0 141 29v-293q-96 -33 -244 -33q-243 0 -364 117t-125 355h-245z"></glyph>
    <glyph glyph-name="Umacron" unicode="&#x16a;" horiz-adv-x="1849" d="M926 -20q-232 0 -402.5 75.5t-265.5 227.5t-95 366v785h421v-777q0 -180 90.5 -265t255.5 -85q163 0 252.5 85t89.5 265v777h414v-785q0 -321 -204.5 -495t-555.5 -174zM441 1567v225h979v-225h-979z"></glyph>
    <glyph glyph-name="umacron" unicode="&#x16b;" horiz-adv-x="1556" d="M574 -20q-196 0 -312.5 117t-116.5 317v610h394v-500q0 -111 57.5 -172t158.5 -61q112 0 176 71.5t64 192.5v469h394v-1024h-373l-21 322h-7q-24 -160 -133 -251t-281 -91zM276 1157v225h980v-225h-980z"></glyph>
    <glyph glyph-name="Uring" unicode="&#x16e;" horiz-adv-x="1849" d="M926 -20q-232 0 -402.5 75.5t-265.5 227.5t-95 366v785h421v-777q0 -180 90.5 -265t255.5 -85q163 0 252.5 85t89.5 265v777h414v-785q0 -321 -204.5 -495t-555.5 -174zM479 1702q0 101 121.5 161t329.5 60t330 -60t122 -161t-122 -161t-330 -60t-329.5 60t-121.5 161z
M762 1718q0 -42 48.5 -75t139.5 -33q69 0 108.5 20t39.5 57q0 41 -48.5 75t-139.5 34q-69 0 -108.5 -20t-39.5 -58z"></glyph>
    <glyph glyph-name="uring" unicode="&#x16f;" horiz-adv-x="1556" d="M574 -20q-196 0 -312.5 117t-116.5 317v610h394v-500q0 -111 57.5 -172t158.5 -61q112 0 176 71.5t64 192.5v469h394v-1024h-373l-21 322h-7q-24 -160 -133 -251t-281 -91zM314 1323q0 101 122 161t330 60t329.5 -60t121.5 -161t-121.5 -161t-329.5 -60t-330 60t-122 161
zM598 1340q0 -42 48.5 -75.5t139.5 -33.5q69 0 108.5 19.5t39.5 57.5q0 41 -48.5 75t-139.5 34q-69 0 -108.5 -19.5t-39.5 -57.5z"></glyph>
    <glyph glyph-name="Uhungarumlaut" unicode="&#x170;" horiz-adv-x="1849" d="M926 -20q-232 0 -402.5 75.5t-265.5 227.5t-95 366v785h421v-777q0 -180 90.5 -265t255.5 -85q163 0 252.5 85t89.5 265v777h414v-785q0 -321 -204.5 -495t-555.5 -174zM512 1516l183 327h357l-223 -327h-317zM988 1516l223 327h359l-265 -327h-317z"></glyph>
    <glyph glyph-name="uhungarumlaut" unicode="&#x171;" horiz-adv-x="1556" d="M574 -20q-196 0 -312.5 117t-116.5 317v610h394v-500q0 -111 57.5 -172t158.5 -61q112 0 176 71.5t64 192.5v469h394v-1024h-373l-21 322h-7q-24 -160 -133 -251t-281 -91zM348 1106l183 328h357l-223 -328h-317zM824 1106l223 328h359l-265 -328h-317z"></glyph>
    <glyph glyph-name="Uogonek" unicode="&#x172;" horiz-adv-x="1849" d="M1262 -369q-174 -17 -278 29.5t-104 142.5q0 61 48 100t162 80l-2 7q-82 -11 -162 -11q-232 0 -402.5 76t-265.5 228t-95 366v785h421v-777q0 -180 90.5 -265t255.5 -85q163 0 252.5 85t89.5 265v777h414v-785q0 -218 -96.5 -370t-273.5 -228q-37 -18 -83.5 -38
t-67.5 -29.5t-43 -23.5t-29.5 -27.5t-7.5 -32.5q0 -84 177 -84v-185z"></glyph>
    <glyph glyph-name="uogonek" unicode="&#x173;" horiz-adv-x="1556" d="M574 -20q-196 0 -312.5 117t-116.5 317v610h394v-500q0 -111 57.5 -172t158.5 -61q112 0 176 71.5t64 192.5v469h394v-1024q-177 -26 -177 -104q0 -80 177 -80v-185q-175 -16 -278.5 24.5t-103.5 131.5q0 126 235 206l-1 7h-225l-21 322h-7q-24 -160 -133 -251t-281 -91z
"></glyph>
    <glyph glyph-name="Wcircumflex" unicode="&#x174;" horiz-adv-x="2535" d="M417 0l-366 1434h428q146 -708 233 -1178h5q109 459 299 1178h507q200 -758 300 -1178h4q78 420 234 1178h423l-366 -1434h-574q-176 673 -274 1147h-5q-98 -474 -274 -1147h-574zM748 1516l279 327h483l277 -327h-342l-175 184h-5l-174 -184h-343z"></glyph>
    <glyph glyph-name="wcircumflex" unicode="&#x175;" horiz-adv-x="2070" d="M358 0l-341 1024h388q179 -678 201 -768h5q34 141 200 768h451q152 -576 199 -768h5q22 90 201 768h386l-341 -1024h-474q-148 528 -201 768h-4q-57 -257 -200 -768h-475zM516 1106l279 328h483l276 -328h-342l-174 184h-5l-175 -184h-342z"></glyph>
    <glyph glyph-name="Ycircumflex" unicode="&#x176;" horiz-adv-x="1806" d="M698 0v530l-705 904h492q305 -417 419 -590h5q105 160 420 590h484l-705 -904v-530h-410zM384 1516l279 327h482l277 -327h-342l-175 184h-5l-174 -184h-342z"></glyph>
    <glyph glyph-name="ycircumflex" unicode="&#x177;" horiz-adv-x="1511" d="M712 -389q-258 0 -421 98t-182 283h393q46 -109 234 -109q108 0 161 48t53 149v350h-5q-19 -161 -128 -254.5t-281 -93.5q-193 0 -302.5 120t-109.5 337v485h394v-410q0 -104 54 -161.5t155 -57.5q105 0 164 63t59 187v379h393v-932q0 -222 -169 -351.5t-462 -129.5z
M197 1106l279 328h483l277 -328h-343l-174 184h-5l-175 -184h-342z"></glyph>
    <glyph glyph-name="Ydieresis" unicode="&#x178;" horiz-adv-x="1806" d="M698 0v530l-705 904h492q305 -417 419 -590h5q105 160 420 590h484l-705 -904v-530h-410zM515 1548v295h315v-295h-315zM976 1548v295h315v-295h-315z"></glyph>
    <glyph glyph-name="Zacute" unicode="&#x179;" horiz-adv-x="1603" d="M1484 1102q-580 -509 -914 -770v-4h914v-328h-1386v332q580 509 914 770v4h-855v328h1327v-332zM578 1516l328 327h435l-389 -327h-374z"></glyph>
    <glyph glyph-name="zacute" unicode="&#x17a;" horiz-adv-x="1314" d="M94 285q392 284 653 454v4h-612v281h1065v-285q-392 -284 -653 -454v-4h653v-281h-1106v285zM430 1106l329 328h435l-389 -328h-375z"></glyph>
    <glyph glyph-name="Zdotaccent" unicode="&#x17b;" horiz-adv-x="1603" d="M1484 1102q-580 -509 -914 -770v-4h914v-328h-1386v332q580 509 914 770v4h-855v328h1327v-332zM597 1516v327h394v-327h-394z"></glyph>
    <glyph glyph-name="zdotaccent" unicode="&#x17c;" horiz-adv-x="1314" d="M94 285q392 284 653 454v4h-612v281h1065v-285q-392 -284 -653 -454v-4h653v-281h-1106v285zM450 1106v328h393v-328h-393z"></glyph>
    <glyph glyph-name="Zcaron" unicode="&#x17d;" horiz-adv-x="1603" d="M1484 1102q-580 -509 -914 -770v-4h914v-328h-1386v332q580 509 914 770v4h-855v328h1327v-332zM275 1843h343l174 -184h5l175 184h342l-279 -327h-483z"></glyph>
    <glyph glyph-name="zcaron" unicode="&#x17e;" horiz-adv-x="1314" d="M94 285q392 284 653 454v4h-612v281h1065v-285q-392 -284 -653 -454v-4h653v-281h-1106v285zM128 1434h342l175 -185h5l174 185h342l-278 -328h-483z"></glyph>
    <glyph glyph-name="uni0218" unicode="&#x218;" horiz-adv-x="1746" d="M936 -20q-331 0 -537.5 136t-227.5 373h425q28 -100 121.5 -154t242.5 -54q127 0 204.5 37.5t77.5 101.5q0 112 -220 127l-420 31q-249 19 -378 121t-129 278q0 216 196 346.5t519 130.5q331 0 538 -136t228 -372h-427q-30 99 -122.5 153t-243.5 54q-126 0 -202 -37
t-76 -103q0 -60 53.5 -88.5t156.5 -35.5l428 -32q249 -19 378 -121.5t129 -279.5q0 -216 -195.5 -346t-518.5 -130zM681 -369l139 287h355l-180 -287h-314z"></glyph>
    <glyph glyph-name="uni0219" unicode="&#x219;" horiz-adv-x="1437" d="M766 -20q-270 0 -435.5 93t-189.5 269h399q13 -58 74.5 -89.5t161.5 -31.5q86 0 137.5 24t51.5 63q0 65 -140 74l-334 21q-201 12 -305 86.5t-104 205.5q0 164 157 256.5t426 92.5q270 0 434.5 -92.5t188.5 -267.5h-399q-11 57 -73.5 89t-161.5 32q-86 0 -137 -23.5
t-51 -62.5q0 -66 139 -75l333 -20q201 -13 306 -88t105 -205q0 -164 -157 -257.5t-426 -93.5zM518 -369l140 287h355l-180 -287h-315z"></glyph>
    <glyph glyph-name="uni021A" unicode="&#x21a;" horiz-adv-x="1589" d="M589 0v1106h-540v328h1490v-328h-541v-1106h-409zM546 -369l140 287h355l-180 -287h-315z"></glyph>
    <glyph glyph-name="uni021B" unicode="&#x21b;" horiz-adv-x="1153" d="M795 -21q-246 0 -367.5 121t-121.5 367v283h-271v254h271v307l386 -21v-266h348v-274h-348v-236q0 -38 3.5 -68t16.5 -63.5t34.5 -55.5t60.5 -36.5t92 -14.5q83 0 141 29v-293q-96 -33 -245 -33zM503 -369l140 287h355l-180 -287h-315z"></glyph>
    <glyph glyph-name="uni0237" unicode="&#x237;" horiz-adv-x="876" d="M212 -389q-147 0 -246 33v258q64 -27 141 -27q107 0 157 54t50 173v922h394v-915q0 -245 -126 -371.5t-370 -126.5z"></glyph>
    <glyph glyph-name="circumflex" unicode="&#x2c6;" horiz-adv-x="1228" d="M95 1106l279 328h483l277 -328h-343l-174 184h-5l-175 -184h-342z"></glyph>
    <glyph glyph-name="caron" unicode="&#x2c7;" horiz-adv-x="1228" d="M1134 1434l-279 -328h-483l-277 328h342l175 -185h5l174 185h343z"></glyph>
    <glyph glyph-name="breve" unicode="&#x2d8;" horiz-adv-x="1228" d="M614 1102q-226 0 -355 87t-134 245h320q13 -54 61.5 -89.5t125.5 -35.5t118 35.5t34 89.5h320q-5 -159 -135.5 -245.5t-354.5 -86.5z"></glyph>
    <glyph glyph-name="dotaccent" unicode="&#x2d9;" horiz-adv-x="1228" d="M417 1106v328h393v-328h-393z"></glyph>
    <glyph glyph-name="ring" unicode="&#x2da;" horiz-adv-x="1228" d="M614 1102q-208 0 -329.5 60t-121.5 161t121.5 161t329.5 60t330 -60t122 -161t-122 -161t-330 -60zM446 1340q0 -42 48.5 -75.5t139.5 -33.5q69 0 108.5 19.5t39.5 57.5q0 41 -48.5 75t-139.5 34q-69 0 -108.5 -19.5t-39.5 -57.5z"></glyph>
    <glyph glyph-name="ogonek" unicode="&#x2db;" horiz-adv-x="1228" d="M614 -369q-175 -16 -278.5 24.5t-103.5 131.5q0 147 325 233l57 -20q-176 -26 -176 -104q0 -42 43.5 -61t132.5 -19v-185z"></glyph>
    <glyph glyph-name="tilde" unicode="&#x2dc;" horiz-adv-x="1228" d="M829 1102q-68 0 -134 17.5t-108 38.5t-88 38.5t-79 17.5q-42 0 -53.5 -26.5t4.5 -81.5h-236q-39 151 32 241.5t232 90.5q68 0 134.5 -17.5t108.5 -39t88 -39t79 -17.5q42 0 53.5 27t-4.5 82h235q39 -152 -31.5 -242t-232.5 -90z"></glyph>
    <glyph glyph-name="hungarumlaut" unicode="&#x2dd;" horiz-adv-x="1228" d="M672 1106l223 328h359l-265 -328h-317zM196 1106l183 328h357l-223 -328h-317z"></glyph>
    <glyph glyph-name="gravecomb" unicode="&#x300;" d="M457 1106l-389 328h435l328 -328h-374z"></glyph>
    <glyph glyph-name="acutecomb" unicode="&#x301;" d="M398 1106l328 328h435l-389 -328h-374z"></glyph>
    <glyph glyph-name="uni0302" unicode="&#x302;" d="M95 1106l279 328h483l277 -328h-343l-174 184h-5l-175 -184h-342z"></glyph>
    <glyph glyph-name="tildecomb" unicode="&#x303;" d="M829 1102q-68 0 -134 17.5t-108 38.5t-88 38.5t-79 17.5q-42 0 -53.5 -26.5t4.5 -81.5h-236q-39 151 32 241.5t232 90.5q68 0 134.5 -17.5t108.5 -39t88 -39t79 -17.5q42 0 53.5 27t-4.5 82h235q39 -152 -31.5 -242t-232.5 -90z"></glyph>
    <glyph glyph-name="uni0304" unicode="&#x304;" d="M177 1157v225h979v-225h-979z"></glyph>
    <glyph glyph-name="uni0306" unicode="&#x306;" d="M614 1102q-226 0 -355 87t-134 245h320q13 -54 61.5 -89.5t125.5 -35.5t118 35.5t34 89.5h320q-5 -159 -135.5 -245.5t-354.5 -86.5z"></glyph>
    <glyph glyph-name="uni0307" unicode="&#x307;" d="M417 1106v328h393v-328h-393z"></glyph>
    <glyph glyph-name="uni0308" unicode="&#x308;" d="M227 1139v295h315v-295h-315zM688 1139v295h315v-295h-315z"></glyph>
    <glyph glyph-name="uni030A" unicode="&#x30a;" d="M614 1102q-208 0 -329.5 60t-121.5 161t121.5 161t329.5 60t330 -60t122 -161t-122 -161t-330 -60zM446 1340q0 -42 48.5 -75.5t139.5 -33.5q69 0 108.5 19.5t39.5 57.5q0 41 -48.5 75t-139.5 34q-69 0 -108.5 -19.5t-39.5 -57.5z"></glyph>
    <glyph glyph-name="uni030B" unicode="&#x30b;" d="M672 1106l223 328h359l-265 -328h-317zM196 1106l183 328h357l-223 -328h-317z"></glyph>
    <glyph glyph-name="uni030C" unicode="&#x30c;" d="M1134 1434l-279 -328h-483l-277 328h342l175 -185h5l174 185h343z"></glyph>
    <glyph glyph-name="uni0312" unicode="&#x312;" d="M862 1434l-140 -287h-355l180 287h315z"></glyph>
    <glyph glyph-name="uni0326" unicode="&#x326;" d="M367 -369l140 287h355l-180 -287h-315z"></glyph>
    <glyph glyph-name="uni0327" unicode="&#x327;" d="M637 -389q-141 0 -214.5 41.5t-86.5 134.5h225q14 -47 88 -47q37 0 57.5 13t20.5 36q0 25 -21.5 39.5t-58.5 14.5q-44 0 -72 -29h-160l117 235h169l-60 -130q39 15 101 15q101 0 157 -41t56 -111q0 -86 -84.5 -128.5t-233.5 -42.5z"></glyph>
    <glyph glyph-name="uni0328" unicode="&#x328;" d="M614 -369q-175 -16 -278.5 24.5t-103.5 131.5q0 147 325 233l57 -20q-176 -26 -176 -104q0 -42 43.5 -61t132.5 -19v-185z"></glyph>
    <glyph glyph-name="uni0335" unicode="&#x335;" d="M196 594v266h962v-266h-962z"></glyph>
    <glyph glyph-name="uni0336" unicode="&#x336;" d="M-187 1055v225h1849v-225h-1849z"></glyph>
    <glyph glyph-name="uni0337" unicode="&#x337;" d="M1119 787l-764 -408v288l764 408v-288z"></glyph>
    <glyph glyph-name="uni0338" unicode="&#x338;" d="M185 0h-222l1349 1434h222z"></glyph>
    <glyph glyph-name="Wgrave" unicode="&#x1e80;" horiz-adv-x="2535" d="M417 0l-366 1434h428q146 -708 233 -1178h5q109 459 299 1178h507q200 -758 300 -1178h4q78 420 234 1178h423l-366 -1434h-574q-176 673 -274 1147h-5q-98 -474 -274 -1147h-574zM719 1843h435l328 -327h-374z"></glyph>
    <glyph glyph-name="wgrave" unicode="&#x1e81;" horiz-adv-x="2070" d="M358 0l-341 1024h388q179 -678 201 -768h5q34 141 200 768h451q152 -576 199 -768h5q22 90 201 768h386l-341 -1024h-474q-148 528 -201 768h-4q-57 -257 -200 -768h-475zM486 1434h436l328 -328h-374z"></glyph>
    <glyph glyph-name="Wacute" unicode="&#x1e82;" horiz-adv-x="2535" d="M417 0l-366 1434h428q146 -708 233 -1178h5q109 459 299 1178h507q200 -758 300 -1178h4q78 420 234 1178h423l-366 -1434h-574q-176 673 -274 1147h-5q-98 -474 -274 -1147h-574zM1051 1516l328 327h435l-389 -327h-374z"></glyph>
    <glyph glyph-name="wacute" unicode="&#x1e83;" horiz-adv-x="2070" d="M358 0l-341 1024h388q179 -678 201 -768h5q34 141 200 768h451q152 -576 199 -768h5q22 90 201 768h386l-341 -1024h-474q-148 528 -201 768h-4q-57 -257 -200 -768h-475zM818 1106l328 328h436l-389 -328h-375z"></glyph>
    <glyph glyph-name="Wdieresis" unicode="&#x1e84;" horiz-adv-x="2535" d="M417 0l-366 1434h428q146 -708 233 -1178h5q109 459 299 1178h507q200 -758 300 -1178h4q78 420 234 1178h423l-366 -1434h-574q-176 673 -274 1147h-5q-98 -474 -274 -1147h-574zM880 1548v295h315v-295h-315zM1341 1548v295h315v-295h-315z"></glyph>
    <glyph glyph-name="wdieresis" unicode="&#x1e85;" horiz-adv-x="2070" d="M358 0l-341 1024h388q179 -678 201 -768h5q34 141 200 768h451q152 -576 199 -768h5q22 90 201 768h386l-341 -1024h-474q-148 528 -201 768h-4q-57 -257 -200 -768h-475zM648 1139v295h315v-295h-315zM1108 1139v295h315v-295h-315z"></glyph>
    <glyph glyph-name="Ygrave" unicode="&#x1ef2;" horiz-adv-x="1806" d="M698 0v530l-705 904h492q305 -417 419 -590h5q105 160 420 590h484l-705 -904v-530h-410zM354 1843h436l327 -327h-374z"></glyph>
    <glyph glyph-name="ygrave" unicode="&#x1ef3;" horiz-adv-x="1511" d="M712 -389q-258 0 -421 98t-182 283h393q46 -109 234 -109q108 0 161 48t53 149v350h-5q-19 -161 -128 -254.5t-281 -93.5q-193 0 -302.5 120t-109.5 337v485h394v-410q0 -104 54 -161.5t155 -57.5q105 0 164 63t59 187v379h393v-932q0 -222 -169 -351.5t-462 -129.5z
M167 1434h435l328 -328h-374z"></glyph>
    <glyph glyph-name="endash" unicode="&#x2013;" horiz-adv-x="1556" d="M156 522v307h1245v-307h-1245z"></glyph>
    <glyph glyph-name="emdash" unicode="&#x2014;" horiz-adv-x="2297" d="M156 522v307h1986v-307h-1986z"></glyph>
    <glyph glyph-name="quoteleft" unicode="&#x2018;" horiz-adv-x="753" d="M705 1434l-296 -560h-375l336 560h335z"></glyph>
    <glyph glyph-name="quoteright" unicode="&#x2019;" horiz-adv-x="753" d="M48 874l297 560h375l-337 -560h-335z"></glyph>
    <glyph glyph-name="quotesinglbase" unicode="&#x201a;" horiz-adv-x="817" d="M79 -231l296 559h375l-336 -559h-335z"></glyph>
    <glyph glyph-name="quotedblleft" unicode="&#x201c;" horiz-adv-x="1347" d="M705 1434l-296 -560h-375l336 560h335zM627 874l337 560h335l-297 -560h-375z"></glyph>
    <glyph glyph-name="quotedblright" unicode="&#x201d;" horiz-adv-x="1347" d="M48 874l297 560h375l-337 -560h-335zM642 874l297 560h375l-337 -560h-335z"></glyph>
    <glyph glyph-name="quotedblbase" unicode="&#x201e;" horiz-adv-x="1411" d="M79 -231l296 559h375l-336 -559h-335zM673 -231l296 559h375l-336 -559h-335z"></glyph>
    <glyph glyph-name="dagger" unicode="&#x2020;" horiz-adv-x="1351" d="M520 598v360h-367v269h367v207h310v-207h369v-269h-369v-360h-310z"></glyph>
    <glyph glyph-name="daggerdbl" unicode="&#x2021;" horiz-adv-x="1435" d="M562 352v207h-367v248h371v172h-371v248h367v207h310v-207h369v-248h-373v-172h373v-248h-369v-207h-310z"></glyph>
    <glyph glyph-name="bullet" unicode="&#x2022;" horiz-adv-x="1001" d="M218 481v512h566v-512h-566z"></glyph>
    <glyph glyph-name="ellipsis" unicode="&#x2026;" horiz-adv-x="2160" d="M884 0v328h393v-328h-393zM218 0v328h394v-328h-394zM1549 0v328h394v-328h-394z"></glyph>
    <glyph glyph-name="guilsinglleft" unicode="&#x2039;" horiz-adv-x="847" d="M678 223l-526 205v498l526 202v-337l-316 -113v-4l316 -113v-338z"></glyph>
    <glyph glyph-name="guilsinglright" unicode="&#x203a;" horiz-adv-x="847" d="M171 1128l526 -204v-498l-526 -203v338l315 113v4l-315 113v337z"></glyph>
    <glyph glyph-name="uni2042" unicode="&#x2042;" horiz-adv-x="2211" d="M1532 -141l-260 172l235 205l-2 3l-353 -77v308l353 -76l2 3l-235 204l260 173l108 -297h3l109 297l259 -173l-234 -204l2 -3l353 76v-308l-353 77l-2 -3l234 -205l-259 -172l-109 297h-3zM80 162v308l353 -76l2 3l-235 204l260 173l109 -297h2l109 297l259 -173
l-234 -204l2 -3l353 76v-308l-353 77l-2 -3l234 -205l-259 -172l-109 297h-2l-109 -297l-260 172l235 205l-2 3zM616 964v308l353 -76l2 2l-235 205l260 172l108 -297h3l109 297l259 -172l-234 -205l1 -2l354 76v-308l-354 76l-1 -2l234 -205l-259 -173l-109 297h-3
l-108 -297l-260 173l235 205l-2 2z"></glyph>
    <glyph glyph-name="fraction" unicode="&#x2044;" horiz-adv-x="741" d="M-354 0l1173 1434h277l-1174 -1434h-276z"></glyph>
    <glyph glyph-name="uni2070" unicode="&#x2070;" horiz-adv-x="1015" d="M506 618q-203 0 -322.5 112.5t-119.5 301.5t119.5 301.5t322.5 112.5q204 0 324.5 -112.5t120.5 -301.5t-121 -301.5t-324 -112.5zM361 1064q0 -93 47 -154.5t122 -61.5q59 0 91 39.5t32 112.5q0 93 -46.5 154.5t-121.5 61.5q-59 0 -91.5 -39.5t-32.5 -112.5z"></glyph>
    <glyph glyph-name="uni2074" unicode="&#x2074;" horiz-adv-x="1067" d="M583 631v211h-549v202l449 390h375v-393h166v-199h-166v-211h-275zM355 1044l1 -3h231q0 101 5 218h-3q-54 -54 -234 -215z"></glyph>
    <glyph glyph-name="uni2075" unicode="&#x2075;" horiz-adv-x="1011" d="M520 618q-196 0 -315 72.5t-128 202.5h309q29 -59 144 -59q54 0 85 18.5t31 54.5q0 41 -37.5 67.5t-98.5 26.5q-81 0 -122 -40h-302l78 473h717v-201h-486l-20 -92h5q88 33 224 33q158 0 247.5 -65t89.5 -191q0 -149 -116 -224.5t-305 -75.5z"></glyph>
    <glyph glyph-name="uni2076" unicode="&#x2076;" horiz-adv-x="1013" d="M530 618q-113 0 -204 32.5t-149 89t-89 130.5t-31 158q0 77 30 150t86.5 134t149 97.5t207.5 36.5q156 0 263 -64.5t137 -181.5h-293q-41 44 -123 44q-187 0 -190 -241h2q27 63 103 100t187 37q146 0 236.5 -62.5t90.5 -170.5q0 -131 -113.5 -210t-299.5 -79zM387 914
q0 -37 39.5 -61.5t103.5 -24.5q54 0 86.5 19t32.5 52q0 37 -39.5 62t-103.5 25q-54 0 -86.5 -19.5t-32.5 -52.5z"></glyph>
    <glyph glyph-name="uni2077" unicode="&#x2077;" horiz-adv-x="851" d="M142 631q3 181 101 331.5t270 247.5v2h-476v222h799v-224q-183 -78 -289.5 -232t-107.5 -347h-297z"></glyph>
    <glyph glyph-name="uni2078" unicode="&#x2078;" horiz-adv-x="993" d="M496 619q-189 0 -303 64t-114 167q0 67 51.5 115t146.5 68v2q-92 19 -143 67t-51 115q0 102 113 165t299 63q187 0 300 -63.5t113 -165.5q0 -66 -50.5 -113t-143.5 -68v-2q94 -19 146.5 -68t52.5 -117q0 -103 -115 -166t-302 -63zM368 888q0 -30 38 -49.5t101 -19.5
q53 0 84.5 14.5t31.5 40.5q0 30 -38 49.5t-101 19.5q-53 0 -84.5 -14.5t-31.5 -40.5zM371 1192q0 -29 37 -47.5t98 -18.5q53 0 83.5 14t30.5 39q0 30 -36.5 48t-98.5 18q-53 0 -83.5 -14t-30.5 -39z"></glyph>
    <glyph glyph-name="uni2079" unicode="&#x2079;" horiz-adv-x="1013" d="M483 1446q223 0 348 -117t125 -292q0 -77 -29.5 -150t-86 -134t-149 -97.5t-207.5 -36.5q-156 0 -263 64.5t-137 180.5h293q41 -44 122 -44q187 0 190 241h-2q-27 -63 -102.5 -99.5t-186.5 -36.5q-146 0 -236.5 62t-90.5 170q0 131 113 210t299 79zM364 1166
q0 -37 39.5 -62.5t103.5 -25.5q55 0 87.5 19.5t32.5 52.5q0 37 -40 61.5t-104 24.5q-54 0 -86.5 -18.5t-32.5 -51.5z"></glyph>
    <glyph glyph-name="uni2080" unicode="&#x2080;" horiz-adv-x="1015" d="M506 -279q-203 0 -322.5 112.5t-119.5 301.5t119.5 301.5t322.5 112.5q204 0 324.5 -112.5t120.5 -301.5t-121 -301.5t-324 -112.5zM361 167q0 -93 47 -154.5t122 -61.5q59 0 91 39.5t32 112.5q0 93 -46.5 154.5t-121.5 61.5q-59 0 -91.5 -39.5t-32.5 -112.5z"></glyph>
    <glyph glyph-name="uni2081" unicode="&#x2081;" horiz-adv-x="686" d="M277 -266v448h-249v205h161q77 0 89.5 12t12.5 84v54h270v-803h-284z"></glyph>
    <glyph glyph-name="uni2082" unicode="&#x2082;" horiz-adv-x="999" d="M81 -266q-2 61 0.5 108.5t13.5 87t24 69t39.5 55t51.5 43t68.5 36.5t82.5 33t101 33q108 32 132 47q29 17 29 38q0 27 -29.5 43t-83.5 16q-116 0 -129 -85l-302 -2q5 141 116.5 217t306.5 76q186 0 299 -69.5t113 -195.5q0 -39 -11.5 -71t-36.5 -57t-50.5 -43t-69.5 -36
t-75.5 -28.5t-85.5 -27.5q-19 -6 -29 -9q-13 -4 -33 -10t-29.5 -9t-24 -7.5t-21.5 -7t-17 -6.5t-15 -7t-11 -6.5t-9.5 -7.5t-6.5 -8h520v-209h-828z"></glyph>
    <glyph glyph-name="uni2083" unicode="&#x2083;" horiz-adv-x="1005" d="M511 -278q-207 0 -323 81.5t-115 233.5h301q1 -106 143 -106q114 0 114 61q0 57 -111 57h-71v174l69 -1q111 0 111 58q0 60 -115 60q-70 0 -104.5 -25.5t-35.5 -79.5h-300q-1 151 114.5 232t321.5 81q185 0 297.5 -63t113.5 -164q1 -67 -51.5 -114.5t-149.5 -68.5v-2
q98 -21 151 -69t53 -116q0 -103 -113 -166t-300 -63z"></glyph>
    <glyph glyph-name="uni2084" unicode="&#x2084;" horiz-adv-x="1067" d="M583 -266v211h-549v202l449 390h375v-393h166v-199h-166v-211h-275zM355 147l1 -3h231q0 101 5 218h-3q-54 -53 -234 -215z"></glyph>
    <glyph glyph-name="uni2085" unicode="&#x2085;" horiz-adv-x="1011" d="M520 -279q-196 0 -315 72.5t-128 202.5h309q29 -59 144 -59q54 0 85 18.5t31 54.5q0 41 -37.5 67.5t-98.5 26.5q-79 0 -122 -41h-302l78 474h717v-201h-486l-20 -92h5q85 32 224 32q158 0 247.5 -65t89.5 -191q0 -76 -32 -134t-89.5 -93.5t-133 -53.5t-166.5 -18z"></glyph>
    <glyph glyph-name="uni2086" unicode="&#x2086;" horiz-adv-x="1013" d="M530 -279q-113 0 -204 32.5t-149 89t-89 130.5t-31 158q0 77 30 150t86.5 134t149 97.5t207.5 36.5q156 0 263 -64.5t137 -181.5h-293q-41 44 -123 44q-187 0 -190 -241h2q27 63 103 100t187 37q146 0 236.5 -62.5t90.5 -170.5q0 -131 -113.5 -210t-299.5 -79zM387 17
q0 -37 39.5 -61.5t103.5 -24.5q54 0 86.5 19t32.5 52q0 37 -39.5 62t-103.5 25q-54 0 -86.5 -19.5t-32.5 -52.5z"></glyph>
    <glyph glyph-name="uni2087" unicode="&#x2087;" horiz-adv-x="851" d="M142 -266q3 181 101 331.5t270 247.5v2h-476v222h799v-224q-183 -78 -289.5 -232t-107.5 -347h-297z"></glyph>
    <glyph glyph-name="uni2088" unicode="&#x2088;" horiz-adv-x="993" d="M496 -278q-189 0 -303 64t-114 167q0 67 51.5 115t146.5 68v2q-92 19 -143 67t-51 115q0 102 113 165t299 63q187 0 300 -63.5t113 -165.5q0 -66 -50.5 -113t-143.5 -68v-2q94 -19 146.5 -68t52.5 -117q0 -103 -115 -166t-302 -63zM368 -9q0 -30 38 -49.5t101 -19.5
q53 0 84.5 14.5t31.5 40.5q0 30 -38 49.5t-101 19.5q-53 0 -84.5 -14.5t-31.5 -40.5zM371 295q0 -29 37 -47.5t98 -18.5q53 0 83.5 14t30.5 39q0 30 -36.5 48t-98.5 18q-53 0 -83.5 -14t-30.5 -39z"></glyph>
    <glyph glyph-name="uni2089" unicode="&#x2089;" horiz-adv-x="1013" d="M483 549q113 0 204 -32.5t149 -89t89 -130.5t31 -158q0 -77 -29.5 -150t-86 -133.5t-149 -97t-207.5 -36.5q-156 0 -263 64.5t-137 180.5h293q41 -44 122 -44q187 0 190 241h-2q-27 -63 -102.5 -99.5t-186.5 -36.5q-146 0 -236.5 62t-90.5 170q0 131 113 210t299 79z
M364 269q0 -37 39.5 -62.5t103.5 -25.5q55 0 87.5 19.5t32.5 52.5q0 37 -40 61.5t-104 24.5q-54 0 -86.5 -18.5t-32.5 -51.5z"></glyph>
    <glyph glyph-name="Euro" unicode="&#x20ac;" horiz-adv-x="2228" d="M1247 -20q-313 0 -519.5 135t-273.5 377h-312v184h284q-1 13 -1 41q0 21 2 61h-285v184h318q71 232 276 362t511 130q336 0 555 -156t272 -417h-467q-94 256 -394 256q-248 0 -335 -175h485l-34 -184h-492v-18q0 -39 5 -84h462l-34 -184h-371q53 -94 145.5 -144.5
t214.5 -50.5q169 0 267 88.5t113 241.5h448q-31 -297 -256 -472t-584 -175z"></glyph>
    <glyph glyph-name="uni2116" unicode="&#x2116;" horiz-adv-x="3422" d="M2665 410q-284 0 -459 145t-175 377t175 377t459 145q283 0 459 -145t176 -377t-176 -377t-459 -145zM203 0v1434h541q176 -242 257 -354.5t226 -325t264 -402.5l5 2q-20 414 -20 1080h381v-1434h-511q-177 248 -266 373.5t-238 347.5t-273 422l-5 -2q20 -434 20 -1141
h-381zM2194 0v307h942v-307h-942zM2410 968q0 -52 17.5 -101.5t51 -91.5t89 -67.5t123.5 -25.5q108 0 168.5 55t60.5 156q0 51 -17.5 101t-50.5 92.5t-88.5 69t-124.5 26.5q-108 0 -168.5 -55.5t-60.5 -158.5z"></glyph>
    <glyph glyph-name="uni2117" unicode="&#x2117;" horiz-adv-x="2082" d="M730 375v645h444q144 0 225.5 -59.5t81.5 -163.5q0 -106 -87 -166t-242 -60h-173v-196h-249zM128 717q0 216 114 383.5t322.5 260.5t478.5 93q269 0 477 -93t322 -260.5t114 -383.5q0 -162 -66.5 -299t-185.5 -233.5t-289.5 -151t-371.5 -54.5q-202 0 -373 54.5t-290 151
t-185.5 233.5t-66.5 299zM359 717q0 -239 187 -384t497 -145q309 0 495 145t186 384t-186 383.5t-495 144.5q-310 0 -497 -144.5t-187 -383.5zM979 747h130q106 0 106 48q0 27 -32.5 38t-73.5 11h-130v-97z"></glyph>
    <glyph glyph-name="trademark" unicode="&#x2122;" horiz-adv-x="1933" d="M828 860v574h330q27 -55 104 -242h3q77 187 104 242h330v-574h-211q0 264 8 440h-2q-39 -82 -71.5 -145t-80.5 -151.5t-77 -143.5h-3q-31 60 -77 144.5t-79.5 149.5t-71.5 146h-3q8 -176 8 -440h-211zM128 1262v172h632v-172h-208v-402h-220v402h-204z"></glyph>
    <glyph glyph-name="estimated" unicode="&#x212e;" horiz-adv-x="1976" d="M991 -20q-260 0 -455.5 93t-299 259.5t-103.5 384.5q0 334 235 535.5t626 201.5q255 0 447.5 -88t299 -255.5t106.5 -393.5v-47h-1239v-277q121 -125 378 -125q370 0 452 256h381q-57 -254 -279.5 -399t-548.5 -145zM608 909h730v183q-126 100 -353 100q-256 0 -377 -127
v-156z"></glyph>
    <glyph glyph-name="oneeighth" unicode="&#x215b;" horiz-adv-x="2498" d="M415 631v448h-249v205h161q77 0 89.5 12t12.5 84v54h270v-803h-284zM438 0l1174 1434h276l-1173 -1434h-277zM1497 219q0 67 52 115t147 68v2q-92 20 -143.5 67.5t-51.5 114.5q0 102 113.5 165t299.5 63q187 0 299.5 -63t112.5 -166q0 -66 -50.5 -113t-143.5 -68v-2
q94 -19 146.5 -67.5t52.5 -116.5q0 -103 -115 -166t-302 -63q-189 0 -303 63.5t-114 166.5zM1786 257q0 -30 38 -49.5t101 -19.5q53 0 84.5 14.5t31.5 40.5q0 30 -37.5 49.5t-100.5 19.5q-53 0 -85 -14.5t-32 -40.5zM1789 561q0 -29 37 -47.5t98 -18.5q53 0 83.5 14t30.5 39
q0 30 -37 48.5t-98 18.5q-52 0 -83 -14.5t-31 -39.5z"></glyph>
    <glyph glyph-name="threeeighths" unicode="&#x215c;" horiz-adv-x="2498" d="M508 619q-207 0 -323 81.5t-115 233.5h301q1 -106 142 -106q115 0 115 61q0 57 -111 57h-71v174l69 -1q111 0 111 58q0 60 -115 60q-70 0 -104.5 -25.5t-35.5 -79.5h-300q-1 151 114.5 232t321.5 81q185 0 297.5 -63t113.5 -164q1 -67 -51.5 -114.5t-149.5 -68.5v-2
q98 -21 151 -69t53 -116q0 -103 -113 -166t-300 -63zM535 0l1173 1434h277l-1174 -1434h-276zM1593 219q0 67 52 115t147 68v2q-92 19 -143 67t-51 115q0 102 113 165t299 63q187 0 300 -63.5t113 -165.5q0 -66 -51 -113t-144 -68v-2q94 -19 146.5 -67.5t52.5 -116.5
q0 -103 -115 -166.5t-302 -63.5q-189 0 -303 64t-114 167zM1883 257q0 -30 37.5 -49.5t100.5 -19.5q53 0 84.5 14.5t31.5 40.5q0 30 -37.5 49.5t-100.5 19.5q-53 0 -84.5 -14.5t-31.5 -40.5zM1885 561q0 -29 37.5 -47.5t98.5 -18.5q53 0 83.5 14t30.5 39q0 29 -37 47.5
t-99 18.5q-53 0 -83.5 -14t-30.5 -39z"></glyph>
    <glyph glyph-name="fiveeighths" unicode="&#x215d;" horiz-adv-x="2498" d="M519 618q-196 0 -315 72.5t-128 202.5h309q29 -59 144 -59q54 0 85 18.5t31 54.5q0 41 -37.5 67.5t-98.5 26.5q-81 0 -122 -40h-302l78 473h717v-201h-486l-20 -92h5q88 33 224 33q158 0 247.5 -65t89.5 -191q0 -149 -116 -224.5t-305 -75.5zM529 0l1174 1434h276
l-1173 -1434h-277zM1588 219q0 67 52 115t147 68v2q-92 19 -143 67t-51 115q0 102 113 165t299 63q187 0 299.5 -63t112.5 -166q0 -66 -50.5 -113t-143.5 -68v-2q94 -19 146.5 -67.5t52.5 -116.5q0 -103 -115 -166t-302 -63q-189 0 -303 63.5t-114 166.5zM1878 257
q0 -30 37.5 -49.5t100.5 -19.5q53 0 84.5 14.5t31.5 40.5q0 30 -37.5 49.5t-100.5 19.5q-53 0 -84.5 -14.5t-31.5 -40.5zM1880 561q0 -29 37 -47.5t98 -18.5q53 0 83.5 14t30.5 39q0 30 -37 48.5t-98 18.5q-52 0 -83 -14.5t-31 -39.5z"></glyph>
    <glyph glyph-name="seveneighths" unicode="&#x215e;" horiz-adv-x="2498" d="M291 631q3 181 101.5 331.5t270.5 247.5v2h-477v222h800v-224q-183 -78 -289.5 -232t-107.5 -347h-298zM417 0l1173 1434h277l-1174 -1434h-276zM1476 219q0 67 51.5 115t146.5 68v2q-92 19 -143 67t-51 115q0 102 113 165t299 63q187 0 300 -63.5t113 -165.5
q0 -66 -50.5 -113t-143.5 -68v-2q94 -19 146 -67.5t52 -116.5q0 -103 -114.5 -166t-301.5 -63q-189 0 -303 63.5t-114 166.5zM1765 257q0 -30 38 -49.5t101 -19.5q53 0 84.5 14.5t31.5 40.5q0 30 -38 49.5t-101 19.5q-53 0 -84.5 -14.5t-31.5 -40.5zM1768 561
q0 -29 37 -47.5t98 -18.5q53 0 83.5 14t30.5 39q0 30 -37 48.5t-98 18.5q-52 0 -83 -14.5t-31 -39.5z"></glyph>
    <glyph glyph-name="arrowleft" unicode="&#x2190;" horiz-adv-x="2406" d="M1485 1434l-758 -543v-4l1567 4v-348l-1567 4v-4l758 -543h-584l-844 717l844 717h584z"></glyph>
    <glyph glyph-name="arrowup" unicode="&#x2191;" horiz-adv-x="1972" d="M1847 260l-687 649h-5l7 -909h-352l5 909h-5l-685 -649v459l860 756l862 -756v-459z"></glyph>
    <glyph glyph-name="arrowright" unicode="&#x2192;" horiz-adv-x="2410" d="M921 0l758 543v4l-1567 -4v348l1567 -4v4l-758 543h584l843 -717l-843 -717h-584z"></glyph>
    <glyph glyph-name="arrowdown" unicode="&#x2193;" horiz-adv-x="1970" d="M123 1174l687 -650h5l-7 910h352l-5 -910h5l685 650v-459l-860 -756l-862 756v459z"></glyph>
    <glyph glyph-name="uni219C" unicode="&#x219c;" horiz-adv-x="3985" d="M2778 -20q-204 0 -331 124t-127 324v576q0 57 -30 89.5t-81 32.5q-52 0 -82 -32.5t-30 -89.5v-72q0 -179 -105.5 -284t-284.5 -105l-980 4v-4l758 -543h-584l-844 717l844 717h584l-758 -543v-4l919 4q47 0 74.5 29.5t27.5 80.5v17q0 194 128 315t333 121
q204 0 331.5 -124.5t127.5 -323.5v-576q0 -57 30 -90t81 -33q52 0 82 33t30 90v72q0 179 105 284t284 105h596v-348h-534q-46 0 -74.5 -28.5t-28.5 -74.5v-24q0 -193 -128.5 -314.5t-332.5 -121.5z"></glyph>
    <glyph glyph-name="uni219D" unicode="&#x219d;" horiz-adv-x="3987" d="M1207 -20q-204 0 -332 121.5t-128 314.5v24q0 46 -28.5 74.5t-74.5 28.5h-534v348h596q179 0 284 -105t105 -284v-72q0 -57 30 -90t82 -33q51 0 81 33t30 90v576q0 199 127.5 323.5t331.5 124.5q205 0 332.5 -121t127.5 -315v-17q0 -51 28 -80.5t75 -29.5l919 -4v4
l-758 543h584l844 -717l-844 -717h-584l758 543v4l-981 -4q-179 0 -284 105t-105 284v72q0 57 -30 89.5t-82 32.5q-51 0 -81 -32.5t-30 -89.5v-576q0 -199 -127.5 -323.5t-331.5 -124.5z"></glyph>
    <glyph glyph-name="uni21A9" unicode="&#x21a9;" horiz-adv-x="3194" d="M901 0l-844 717l844 717h584l-758 -543v-4l1774 4q177 0 177 95q0 99 -177 99h-740v349h753q264 0 419 -123.5t155 -331.5q0 -202 -154.5 -319t-420.5 -117l-1786 4v-4l758 -543h-584z"></glyph>
    <glyph glyph-name="uni21AA" unicode="&#x21aa;" horiz-adv-x="3198" d="M1710 0l758 543v4l-1786 -4q-266 0 -420 117t-154 319q0 208 154.5 331.5t418.5 123.5h753v-349h-740q-177 0 -177 -99q0 -95 177 -95l1774 -4v4l-758 543h584l844 -717l-844 -717h-584z"></glyph>
    <glyph glyph-name="uni21B0" unicode="&#x21b0;" horiz-adv-x="2719" d="M901 0l-844 717l844 717h584l-758 -543v-4l1819 4v-891h-400v544l-1419 3v-4l758 -543h-584z"></glyph>
    <glyph glyph-name="uni21B1" unicode="&#x21b1;" horiz-adv-x="2723" d="M173 0v891l1819 -4v4l-758 543h584l844 -717l-844 -717h-584l758 543v4l-1419 -3v-544h-400z"></glyph>
    <glyph glyph-name="uni21B2" unicode="&#x21b2;" horiz-adv-x="2719" d="M901 0l-844 717l844 717h584l-758 -543v-4l1419 3v544h400v-891l-1819 4v-4l758 -543h-584z"></glyph>
    <glyph glyph-name="uni21B3" unicode="&#x21b3;" horiz-adv-x="2723" d="M1234 0l758 543v4l-1819 -4v891h400v-544l1419 -3v4l-758 543h584l844 -717l-844 -717h-584z"></glyph>
    <glyph glyph-name="minus" unicode="&#x2212;" horiz-adv-x="1548" d="M233 553v328h1082v-328h-1082z"></glyph>
    <glyph glyph-name="uni2460" unicode="&#x2460;" horiz-adv-x="2013" d="M925 315v449h-250v205h162q77 0 89.5 12t12.5 84v53h269v-803h-283zM83 717q0 162 67.5 299t188 233.5t292.5 150.5t375 54q272 0 482 -92.5t325.5 -260.5t115.5 -384t-115.5 -384t-325.5 -260.5t-482 -92.5q-203 0 -375 54t-292.5 150.5t-188 233.5t-67.5 299zM294 717
q0 -163 89 -288.5t251 -195t372 -69.5q318 0 515 153t197 400q0 163 -89 289t-251 195t-372 69q-318 0 -515 -153t-197 -400z"></glyph>
    <glyph glyph-name="uni2461" unicode="&#x2461;" horiz-adv-x="2013" d="M596 341q-2 61 0.5 108.5t13.5 87t24 69t39.5 55t51.5 43t68.5 36.5t82.5 33t101 33q108 32 132 47q28 17 28 38q0 27 -29 43t-83 16q-116 0 -129 -85l-302 -2q5 141 116.5 217t306.5 76q186 0 299 -69.5t113 -195.5q0 -39 -11.5 -71t-36.5 -57t-50.5 -43t-69.5 -36
t-75.5 -28.5t-85.5 -27.5q-19 -6 -29 -9q-13 -4 -33 -10t-29.5 -9t-24 -7.5t-21.5 -7t-17 -6.5t-15 -7t-11 -6.5t-9.5 -7.5t-6.5 -8h520v-209h-828zM83 717q0 162 67.5 299t188 233.5t292.5 150.5t375 54q272 0 482 -92.5t325.5 -260.5t115.5 -384t-115.5 -384
t-325.5 -260.5t-482 -92.5q-203 0 -375 54t-292.5 150.5t-188 233.5t-67.5 299zM294 717q0 -163 89 -288.5t251 -195t372 -69.5q318 0 515 153t197 400q0 163 -89 289t-251 195t-372 69q-318 0 -515 -153t-197 -400z"></glyph>
    <glyph glyph-name="uni2462" unicode="&#x2462;" horiz-adv-x="2013" d="M1021 304q-207 0 -323.5 81t-115.5 233h302q1 -105 142 -105q114 0 114 61q0 56 -111 56h-71v174h70q110 0 110 58q0 60 -114 60q-137 0 -140 -106h-301q-1 151 115 232.5t322 81.5q185 0 297 -63.5t113 -164.5q1 -67 -51.5 -114.5t-149.5 -68.5v-2q99 -21 152 -68.5
t53 -115.5q0 -103 -113 -166t-300 -63zM83 717q0 162 67.5 299t188 233.5t292.5 150.5t375 54q272 0 482 -92.5t325.5 -260.5t115.5 -384t-115.5 -384t-325.5 -261t-482 -93q-271 0 -481.5 93t-326 261t-115.5 384zM294 717q0 -163 89 -288.5t251 -195t372 -69.5
q318 0 515 153t197 400q0 163 -89 289t-251 195t-372 69q-318 0 -515 -153t-197 -400z"></glyph>
    <glyph glyph-name="uni2463" unicode="&#x2463;" horiz-adv-x="2013" d="M1024 317v212h-549v202l449 389h375v-393h166v-198h-166v-212h-275zM83 717q0 162 67.5 299t188 233.5t292.5 150.5t375 54q272 0 482 -92.5t325.5 -260.5t115.5 -384t-115.5 -384t-325.5 -260.5t-482 -92.5q-203 0 -375 54t-292.5 150.5t-188 233.5t-67.5 299zM294 717
q0 -163 89 -288.5t251 -195t372 -69.5q318 0 515 153t197 400q0 163 -89 289t-251 195t-372 69q-318 0 -515 -153t-197 -400zM796 731l1 -4h231q0 102 5 219h-3q-54 -54 -234 -215z"></glyph>
    <glyph glyph-name="uni2464" unicode="&#x2464;" horiz-adv-x="2013" d="M1019 293q-196 0 -315 72t-128 202h309q29 -59 144 -59q54 0 85 18.5t31 54.5q0 41 -37.5 68t-98.5 27q-79 0 -122 -41h-302l78 473h717v-201h-486l-20 -92h5q88 33 224 33q158 0 247.5 -65t89.5 -191q0 -76 -32 -134t-89.5 -93.5t-133 -53.5t-166.5 -18zM83 717
q0 162 67.5 299t188 233.5t292.5 150.5t375 54q272 0 482 -92.5t325.5 -260.5t115.5 -384t-115.5 -384t-325.5 -260.5t-482 -92.5q-203 0 -375 54t-292.5 150.5t-188 233.5t-67.5 299zM294 717q0 -163 89 -288.5t251 -195t372 -69.5q318 0 515 153t197 400q0 163 -89 289
t-251 195t-372 69q-318 0 -515 -153t-197 -400z"></glyph>
    <glyph glyph-name="uni2465" unicode="&#x2465;" horiz-adv-x="2013" d="M1006 -20q-203 0 -375 54t-292.5 150.5t-188 233.5t-67.5 299t67.5 299t188 233.5t292.5 150.5t375 54q272 0 482 -92.5t325.5 -260.5t115.5 -384t-115.5 -384t-325.5 -260.5t-482 -92.5zM294 717q0 -163 89 -288.5t251 -195t372 -69.5q318 0 515 153t197 400
q0 163 -89 289t-251 195t-372 69q-318 0 -515 -153t-197 -400zM542 712q0 77 30 150t86.5 134t149 97.5t207.5 36.5q156 0 263 -64.5t137 -180.5h-293q-41 44 -122 44q-187 0 -190 -241h2q27 63 103 99.5t186 36.5q146 0 236.5 -62t90.5 -170q0 -131 -113 -210t-299 -79
q-223 0 -348.5 117t-125.5 292zM872 599q0 -37 40 -61.5t104 -24.5q54 0 86.5 18.5t32.5 51.5q0 37 -40 62.5t-104 25.5q-54 0 -86.5 -19.5t-32.5 -52.5z"></glyph>
    <glyph glyph-name="uni2466" unicode="&#x2466;" horiz-adv-x="2013" d="M1006 -20q-203 0 -375 54t-292.5 150.5t-188 233.5t-67.5 299t67.5 299t188 233.5t292.5 150.5t375 54q272 0 482 -92.5t325.5 -260.5t115.5 -384t-115.5 -384t-325.5 -260.5t-482 -92.5zM294 717q0 -163 89 -288.5t251 -195t372 -69.5q318 0 515 153t197 400
q0 163 -89 289t-251 195t-372 69q-318 0 -515 -153t-197 -400zM648 873v222h800v-224q-183 -78 -290.5 -232t-107.5 -347h-297q3 181 101 331.5t270 247.5v2h-476z"></glyph>
    <glyph glyph-name="uni2467" unicode="&#x2467;" horiz-adv-x="2013" d="M1006 -20q-203 0 -375 54t-292.5 150.5t-188 233.5t-67.5 299t67.5 299t188 233.5t292.5 150.5t375 54q272 0 482 -92.5t325.5 -260.5t115.5 -384t-115.5 -384t-325.5 -260.5t-482 -92.5zM294 717q0 -163 89 -288.5t251 -195t372 -69.5q318 0 515 153t197 400
q0 163 -89 289t-251 195t-372 69q-318 0 -515 -153t-197 -400zM590 535q0 67 52 114.5t147 67.5v2q-92 19 -143 67.5t-51 115.5q0 102 113 165t299 63t299 -63.5t113 -166.5q0 -66 -50.5 -113t-143.5 -68v-2q94 -19 146.5 -67.5t52.5 -116.5q0 -103 -115 -166t-302 -63
q-188 0 -302.5 64t-114.5 167zM880 573q0 -30 37.5 -49.5t100.5 -19.5q53 0 84.5 14.5t31.5 40.5q0 30 -37.5 49.5t-100.5 19.5q-53 0 -84.5 -14.5t-31.5 -40.5zM882 877q0 -30 37 -48.5t98 -18.5q53 0 83.5 14t30.5 39q0 30 -37 48.5t-98 18.5q-53 0 -83.5 -14t-30.5 -39z
"></glyph>
    <glyph glyph-name="uni2468" unicode="&#x2468;" horiz-adv-x="2013" d="M1006 -20q-203 0 -375 54t-292.5 150.5t-188 233.5t-67.5 299t67.5 299t188 233.5t292.5 150.5t375 54q272 0 482 -92.5t325.5 -260.5t115.5 -384t-115.5 -384t-325.5 -260.5t-482 -92.5zM294 717q0 -163 89 -288.5t251 -195t372 -69.5q318 0 515 153t197 400
q0 163 -89 289t-251 195t-372 69q-318 0 -515 -153t-197 -400zM590 842q0 131 113 209.5t299 78.5q223 0 348 -117t125 -292q0 -77 -29.5 -150t-86 -134t-149 -97.5t-207.5 -36.5q-156 0 -263 64.5t-137 181.5h293q41 -44 122 -44q187 0 190 241h-2q-27 -63 -102.5 -100
t-186.5 -37q-146 0 -236.5 62.5t-90.5 170.5zM883 850q0 -37 39.5 -62t103.5 -25q55 0 87.5 19.5t32.5 52.5q0 37 -40 61.5t-104 24.5q-54 0 -86.5 -19t-32.5 -52z"></glyph>
    <glyph glyph-name="uni24EA" unicode="&#x24ea;" horiz-adv-x="2013" d="M1006 303q-203 0 -323 112.5t-120 301.5t120 301t323 112q204 0 324.5 -112t120.5 -301t-121 -301.5t-324 -112.5zM83 717q0 162 67.5 299t188 233.5t292.5 150.5t375 54q272 0 482 -92.5t325.5 -260.5t115.5 -384t-115.5 -384t-325.5 -260.5t-482 -92.5q-203 0 -375 54
t-292.5 150.5t-188 233.5t-67.5 299zM294 717q0 -163 89 -288.5t251 -195t372 -69.5q318 0 515 153t197 400q0 163 -89 289t-251 195t-372 69q-318 0 -515 -153t-197 -400zM861 749q0 -93 47 -155t122 -62q59 0 91 39.5t32 113.5q0 93 -46.5 154.5t-121.5 61.5
q-59 0 -91.5 -39.5t-32.5 -112.5z"></glyph>
    <glyph glyph-name="uni24FF" unicode="&#x24ff;" horiz-adv-x="2013" d="M1007 -20q-203 0 -375 54t-292.5 150.5t-188 233.5t-67.5 299t67.5 299t188 233.5t292.5 150.5t375 54q272 0 482 -92.5t325.5 -260.5t115.5 -384t-115.5 -384t-325.5 -260.5t-482 -92.5zM563 717q0 -189 120 -301.5t323 -112.5t324 112.5t121 301.5t-120.5 301
t-324.5 112q-203 0 -323 -112t-120 -301zM861 749q0 73 32 112.5t91 39.5q75 0 122 -61.5t47 -154.5q0 -73 -32.5 -113t-91.5 -40q-75 0 -121.5 61.5t-46.5 155.5z"></glyph>
    <glyph glyph-name="uni2776" unicode="&#x2776;" horiz-adv-x="2013" d="M1007 -20q-203 0 -375 54t-292.5 150.5t-188 233.5t-67.5 299t67.5 299t188 233.5t292.5 150.5t375 54q272 0 482 -92.5t325.5 -260.5t115.5 -384t-115.5 -384t-325.5 -260.5t-482 -92.5zM675 764h250v-449h283v803h-269v-53q0 -72 -12.5 -84t-89.5 -12h-162v-205z"></glyph>
    <glyph glyph-name="uni2777" unicode="&#x2777;" horiz-adv-x="2013" d="M1007 -20q-203 0 -375 54t-292.5 150.5t-188 233.5t-67.5 299t67.5 299t188 233.5t292.5 150.5t375 54q272 0 482 -92.5t325.5 -260.5t115.5 -384t-115.5 -384t-325.5 -260.5t-482 -92.5zM594 863l302 2q13 85 129 85q54 0 83 -16t29 -43q0 -25 -33 -41t-102 -36
q-17 -4 -25 -7q-99 -31 -153.5 -53t-108 -57t-76 -80t-35 -112t-8.5 -164h828v209h-519q10 17 35 27t98 32q21 7 33 10q161 51 211 75q124 59 143 156q4 19 4 41q0 126 -113 195.5t-299 69.5q-195 0 -306.5 -76t-116.5 -217z"></glyph>
    <glyph glyph-name="uni2778" unicode="&#x2778;" horiz-adv-x="2013" d="M1007 -20q-203 0 -375 54t-292.5 150.5t-188 233.5t-67.5 299t67.5 299t188 233.5t292.5 150.5t375 54q272 0 482 -92.5t325.5 -260.5t115.5 -384t-115.5 -384t-325.5 -260.5t-482 -92.5zM582 618q-1 -152 115.5 -233t323.5 -81q187 0 300 63t113 166q0 68 -53 115.5
t-152 68.5v2q97 21 149 68.5t52 115.5q-1 101 -113 164t-297 63q-206 0 -322 -81.5t-115 -232.5h300q3 106 141 106q114 0 114 -60q0 -58 -110 -58h-70v-174h71q111 0 111 -56q0 -61 -114 -61q-141 0 -142 105h-302z"></glyph>
    <glyph glyph-name="uni2779" unicode="&#x2779;" horiz-adv-x="2013" d="M1007 -20q-203 0 -375 54t-292.5 150.5t-188 233.5t-67.5 299t67.5 299t188 233.5t292.5 150.5t375 54q272 0 482 -92.5t325.5 -260.5t115.5 -384t-115.5 -384t-325.5 -260.5t-482 -92.5zM475 529h549v-212h275v212h166v198h-166v393h-375l-449 -389v-202zM796 731
q180 161 234 215h3q-5 -117 -5 -219h-231z"></glyph>
    <glyph glyph-name="uni277A" unicode="&#x277a;" horiz-adv-x="2013" d="M1007 -20q-203 0 -375 54t-292.5 150.5t-188 233.5t-67.5 299t67.5 299t188 233.5t292.5 150.5t375 54q272 0 482 -92.5t325.5 -260.5t115.5 -384t-115.5 -384t-325.5 -260.5t-482 -92.5zM576 578q9 -135 128 -210t315 -75q91 0 166.5 18t133 53.5t89.5 93.5t32 134
q0 126 -89.5 191t-247.5 65q-136 0 -224 -33h-5l20 92h486v201h-717l-78 -473h302q43 41 122 41q61 0 98.5 -27.5t37.5 -68.5q0 -35 -29.5 -53.5t-82.5 -18.5q-55 0 -94.5 18.5t-53.5 51.5h-309z"></glyph>
    <glyph glyph-name="uni277B" unicode="&#x277b;" horiz-adv-x="2013" d="M1007 -20q-203 0 -375 54t-292.5 150.5t-188 233.5t-67.5 299t67.5 299t188 233.5t292.5 150.5t375 54q272 0 482 -92.5t325.5 -260.5t115.5 -384t-115.5 -384t-325.5 -260.5t-482 -92.5zM543 712q0 -175 125 -292t348 -117q186 0 299 79t113 210q0 108 -90.5 170
t-236.5 62q-111 0 -186.5 -36.5t-102.5 -99.5h-3q3 241 190 241q84 0 123 -44h293q-30 116 -137 180.5t-263 64.5q-115 0 -207.5 -36.5t-149 -97.5t-86 -134t-29.5 -150zM872 599q0 33 32.5 52.5t86.5 19.5q64 0 104 -25.5t40 -62.5q0 -33 -33 -51.5t-87 -18.5
q-64 0 -103.5 24.5t-39.5 61.5z"></glyph>
    <glyph glyph-name="uni277C" unicode="&#x277c;" horiz-adv-x="2013" d="M1007 -20q-203 0 -375 54t-292.5 150.5t-188 233.5t-67.5 299t67.5 299t188 233.5t292.5 150.5t375 54q272 0 482 -92.5t325.5 -260.5t115.5 -384t-115.5 -384t-325.5 -260.5t-482 -92.5zM648 873h476v-2q-172 -97 -270 -247.5t-101 -331.5h297q0 193 107.5 347
t290.5 232v224h-800v-222z"></glyph>
    <glyph glyph-name="uni277D" unicode="&#x277d;" horiz-adv-x="2013" d="M1007 -20q-203 0 -375 54t-292.5 150.5t-188 233.5t-67.5 299t67.5 299t188 233.5t292.5 150.5t375 54q272 0 482 -92.5t325.5 -260.5t115.5 -384t-115.5 -384t-325.5 -260.5t-482 -92.5zM590 535q0 -103 114.5 -167t302.5 -64q187 0 302 63.5t115 165.5
q0 68 -52.5 116.5t-146.5 67.5v2q93 21 143.5 68t50.5 113q0 103 -113 166.5t-299 63.5t-299.5 -63t-113.5 -165q0 -67 51.5 -115.5t143.5 -67.5v-2q-95 -20 -147 -67.5t-52 -114.5zM880 573q0 26 31.5 40.5t84.5 14.5q63 0 100.5 -19.5t37.5 -49.5q0 -26 -31.5 -40.5
t-84.5 -14.5q-63 0 -100.5 19.5t-37.5 49.5zM882 877q0 25 30.5 39t83.5 14q61 0 98 -18.5t37 -48.5q0 -25 -30.5 -39t-83.5 -14q-61 0 -98 18.5t-37 48.5z"></glyph>
    <glyph glyph-name="uni277E" unicode="&#x277e;" horiz-adv-x="2013" d="M1007 -20q-203 0 -375 54t-292.5 150.5t-188 233.5t-67.5 299t67.5 299t188 233.5t292.5 150.5t375 54q272 0 482 -92.5t325.5 -260.5t115.5 -384t-115.5 -384t-325.5 -260.5t-482 -92.5zM590 842q0 -109 90.5 -171t236.5 -62q111 0 186.5 37t102.5 100h2
q-3 -241 -189 -241q-84 0 -123 44h-293q30 -116 137 -181t263 -65q93 0 171.5 24t133 65t93 95t56.5 113.5t18 120.5q0 175 -125 292t-348 117q-186 0 -299 -78.5t-113 -209.5zM883 850q0 33 32.5 52t86.5 19q64 0 104 -24.5t40 -61.5q0 -33 -32.5 -52.5t-87.5 -19.5
q-64 0 -103.5 25t-39.5 62z"></glyph>
    <glyph glyph-name="uni2E2F" unicode="&#x2e2f;" horiz-adv-x="708" d="M193 799l-14 635h350l-14 -635h-322z"></glyph>
    <glyph glyph-name="uniF8FF" unicode="&#xf8ff;" horiz-adv-x="2584" d="M61 -187v305h237v1502h1494q330 0 511.5 -150t181.5 -422q0 -273 -181.5 -423.5t-511.5 -150.5h-11v-356h348v-305h-2068zM642 118h225v1197h-225v-1197zM1212 118h224v356h-224v-356zM1212 779h224v536h-224v-536zM1781 779h15q164 0 250 69t86 199q0 131 -85.5 199.5
t-250.5 68.5h-15v-536z"></glyph>
    <glyph glyph-name="M.ss03" horiz-adv-x="2531" d="M203 0v1434h658q268 -738 402 -1178h5q134 440 402 1178h658v-1434h-381q0 737 20 1188h-5q-152 -417 -456 -1188h-481q-304 771 -456 1188h-5q20 -451 20 -1188h-381z"></glyph>
    <glyph glyph-name="Q.ss04" horiz-adv-x="1880" d="M789 -307l-7 431q-313 38 -500.5 217t-187.5 443q0 196 106 348.5t298.5 237t441.5 84.5q187 0 344.5 -49.5t268 -137t172 -212t61.5 -271.5q0 -254 -175 -430t-469 -224l26 -437h-379zM520 791q0 -172 120.5 -277t324.5 -105q183 0 289.5 88t106.5 246q0 172 -121 277.5
t-324 105.5q-183 0 -289.5 -88.5t-106.5 -246.5z"></glyph>
    <glyph glyph-name="a.ss01" horiz-adv-x="1601" d="M599 -20q-227 0 -362.5 143t-135.5 388q0 246 135.5 389.5t363.5 143.5q163 0 281.5 -72.5t152.5 -193.5h5l20 246h374v-1024h-374l-20 246h-5q-34 -121 -153 -193.5t-282 -72.5zM501 539q0 -122 81 -197.5t218 -75.5q117 0 182 56.5t65 163.5q0 121 -80.5 195.5
t-218.5 74.5q-117 0 -182 -55.5t-65 -161.5z"></glyph>
    <glyph glyph-name="aacute.ss01" horiz-adv-x="1601" d="M599 -20q-227 0 -362.5 143t-135.5 388q0 246 135.5 389.5t363.5 143.5q163 0 281.5 -72.5t152.5 -193.5h5l20 246h374v-1024h-374l-20 246h-5q-34 -121 -153 -193.5t-282 -72.5zM501 539q0 -122 81 -197.5t218 -75.5q117 0 182 56.5t65 163.5q0 121 -80.5 195.5
t-218.5 74.5q-117 0 -182 -55.5t-65 -161.5zM575 1106l329 328h435l-389 -328h-375z"></glyph>
    <glyph glyph-name="abreve.ss01" horiz-adv-x="1601" d="M599 -20q-227 0 -362.5 143t-135.5 388q0 246 135.5 389.5t363.5 143.5q163 0 281.5 -72.5t152.5 -193.5h5l20 246h374v-1024h-374l-20 246h-5q-34 -121 -153 -193.5t-282 -72.5zM303 1434h320q13 -54 61 -89.5t125 -35.5t118 35.5t34 89.5h320q-5 -159 -135.5 -245.5
t-353.5 -86.5q-226 0 -355 87t-134 245zM501 539q0 -122 81 -197.5t218 -75.5q117 0 182 56.5t65 163.5q0 121 -80.5 195.5t-218.5 74.5q-117 0 -182 -55.5t-65 -161.5z"></glyph>
    <glyph glyph-name="acircumflex.ss01" horiz-adv-x="1601" d="M599 -20q-227 0 -362.5 143t-135.5 388q0 246 135.5 389.5t363.5 143.5q163 0 281.5 -72.5t152.5 -193.5h5l20 246h374v-1024h-374l-20 246h-5q-34 -121 -153 -193.5t-282 -72.5zM273 1106l279 328h483l276 -328h-342l-175 184h-4l-175 -184h-342zM501 539
q0 -122 81 -197.5t218 -75.5q117 0 182 56.5t65 163.5q0 121 -80.5 195.5t-218.5 74.5q-117 0 -182 -55.5t-65 -161.5z"></glyph>
    <glyph glyph-name="adieresis.ss01" horiz-adv-x="1601" d="M599 -20q-227 0 -362.5 143t-135.5 388q0 246 135.5 389.5t363.5 143.5q163 0 281.5 -72.5t152.5 -193.5h5l20 246h374v-1024h-374l-20 246h-5q-34 -121 -153 -193.5t-282 -72.5zM405 1139v295h314v-295h-314zM501 539q0 -122 81 -197.5t218 -75.5q117 0 182 56.5
t65 163.5q0 121 -80.5 195.5t-218.5 74.5q-117 0 -182 -55.5t-65 -161.5zM865 1139v295h315v-295h-315z"></glyph>
    <glyph glyph-name="agrave.ss01" horiz-adv-x="1601" d="M599 -20q-227 0 -362.5 143t-135.5 388q0 246 135.5 389.5t363.5 143.5q163 0 281.5 -72.5t152.5 -193.5h5l20 246h374v-1024h-374l-20 246h-5q-34 -121 -153 -193.5t-282 -72.5zM243 1434h436l328 -328h-374zM501 539q0 -122 81 -197.5t218 -75.5q117 0 182 56.5
t65 163.5q0 121 -80.5 195.5t-218.5 74.5q-117 0 -182 -55.5t-65 -161.5z"></glyph>
    <glyph glyph-name="amacron.ss01" horiz-adv-x="1601" d="M599 -20q-227 0 -362.5 143t-135.5 388q0 246 135.5 389.5t363.5 143.5q163 0 281.5 -72.5t152.5 -193.5h5l20 246h374v-1024h-374l-20 246h-5q-34 -121 -153 -193.5t-282 -72.5zM302 1157v225h980v-225h-980zM501 539q0 -122 81 -197.5t218 -75.5q117 0 182 56.5
t65 163.5q0 121 -80.5 195.5t-218.5 74.5q-117 0 -182 -55.5t-65 -161.5z"></glyph>
    <glyph glyph-name="aogonek.ss01" horiz-adv-x="1601" d="M599 -20q-227 0 -362.5 143t-135.5 388q0 246 135.5 390t363.5 144q162 0 281 -73t153 -194h5l20 246h374v-1024h1q-177 -26 -177 -104q0 -80 177 -80v-185q-175 -16 -278.5 24.5t-103.5 131.5q0 126 234 206l-1 7h-226l-20 246h-5q-34 -121 -153 -193.5t-282 -72.5z
M501 539q0 -122 81 -197.5t218 -75.5q117 0 182 56.5t65 163.5q0 121 -80.5 195.5t-218.5 74.5q-117 0 -182 -55.5t-65 -161.5z"></glyph>
    <glyph glyph-name="aring.ss01" horiz-adv-x="1601" d="M599 -20q-227 0 -362.5 143t-135.5 388q0 246 135.5 389.5t363.5 143.5q163 0 281.5 -72.5t152.5 -193.5h5l20 246h374v-1024h-374l-20 246h-5q-34 -121 -153 -193.5t-282 -72.5zM341 1323q0 101 121.5 161t329.5 60t330 -60t122 -161t-122 -161t-330 -60t-329.5 60
t-121.5 161zM501 539q0 -122 81 -197.5t218 -75.5q117 0 182 56.5t65 163.5q0 121 -80.5 195.5t-218.5 74.5q-117 0 -182 -55.5t-65 -161.5zM624 1340q0 -42 48.5 -75.5t139.5 -33.5q69 0 108.5 19.5t39.5 57.5q0 41 -48.5 75t-139.5 34q-69 0 -108.5 -19.5t-39.5 -57.5z
"></glyph>
    <glyph glyph-name="atilde.ss01" horiz-adv-x="1601" d="M599 -20q-227 0 -362.5 143t-135.5 388q0 246 135.5 389.5t363.5 143.5q163 0 281.5 -72.5t152.5 -193.5h5l20 246h374v-1024h-374l-20 246h-5q-34 -121 -153 -193.5t-282 -72.5zM314 1106q-39 151 32 241.5t232 90.5q68 0 134 -17.5t108 -39t88 -39t79 -17.5
q42 0 53.5 27t-4.5 82h236q39 -151 -32.5 -241.5t-232.5 -90.5q-68 0 -134 17.5t-108 38.5t-87.5 38.5t-78.5 17.5q-42 0 -54 -26.5t4 -81.5h-235zM501 539q0 -122 81 -197.5t218 -75.5q117 0 182 56.5t65 163.5q0 121 -80.5 195.5t-218.5 74.5q-117 0 -182 -55.5
t-65 -161.5z"></glyph>
    <glyph glyph-name="cacute.loclPLK" horiz-adv-x="1472" d="M739 -20q-292 0 -473.5 147.5t-181.5 384.5t181 384.5t473 147.5q264 0 439.5 -122.5t209.5 -327.5h-406q-61 168 -265 168q-111 0 -173.5 -55t-62.5 -159q0 -51 17.5 -100.5t50.5 -91.5t88 -68t123 -26q107 0 170.5 54.5t69.5 144.5h394q-23 -216 -200.5 -348.5
t-453.5 -132.5zM579 1106l147 328h419l-224 -328h-342z"></glyph>
    <glyph glyph-name="i.loclTRK" horiz-adv-x="729" d="M168 0v1024h394v-1024h-394zM167 1106v328h394v-328h-394z"></glyph>
    <glyph glyph-name="nacute.loclPLK" horiz-adv-x="1558" d="M168 0v1024h373l21 -317h6q24 158 133 247.5t281 89.5q196 0 313 -115.5t117 -312.5v-616h-394v504q0 111 -57.5 172t-158.5 61q-112 0 -176 -71.5t-64 -192.5v-473h-394zM624 1106l147 328h419l-224 -328h-342z"></glyph>
    <glyph glyph-name="oacute.loclPLK" horiz-adv-x="1490" d="M746 -20q-296 0 -479 147.5t-183 384.5t183 384.5t479 147.5q295 0 479 -148t184 -384q0 -156 -83 -277t-234 -188t-346 -67zM480 548q0 -52 18.5 -101.5t53 -91.5t92 -67.5t128.5 -25.5q113 0 177 55.5t64 157.5q0 51 -18.5 100.5t-53 92t-92.5 68.5t-129 26
q-113 0 -176.5 -55.5t-63.5 -158.5zM585 1106l146 328h420l-225 -328h-341z"></glyph>
    <glyph glyph-name="sacute.loclPLK" horiz-adv-x="1437" d="M766 -20q-270 0 -435.5 93t-189.5 269h399q13 -58 74.5 -89.5t161.5 -31.5q86 0 137.5 24t51.5 63q0 65 -140 74l-334 21q-201 12 -305 86.5t-104 205.5q0 164 157 256.5t426 92.5q270 0 434.5 -92.5t188.5 -267.5h-399q-11 57 -73.5 89t-161.5 32q-86 0 -137 -23.5
t-51 -62.5q0 -66 139 -75l333 -20q201 -13 306 -88t105 -205q0 -164 -157 -257.5t-426 -93.5zM502 1106l146 328h419l-224 -328h-341z"></glyph>
    <glyph glyph-name="y.ss02" horiz-adv-x="1384" d="M350 -389q-74 0 -148.5 12t-115.5 29v284q97 -33 188 -33q115 0 151.5 59t-12.5 160l-418 902h403q195 -455 313 -764h5q80 241 274 764h400l-449 -982q-65 -138 -118 -208q-170 -223 -473 -223z"></glyph>
    <glyph glyph-name="yacute.ss02" horiz-adv-x="1386" d="M350 -389q-74 0 -148.5 12t-115.5 29v284q97 -33 188 -33q115 0 151.5 59t-12.5 160l-418 902h403q195 -455 313 -764h5q80 241 274 764h400l-449 -982q-65 -138 -118 -208q-170 -223 -473 -223zM478 1106l328 328h436l-389 -328h-375z"></glyph>
    <glyph glyph-name="ycircumflex.ss02" horiz-adv-x="1386" d="M350 -389q-74 0 -148.5 12t-115.5 29v284q97 -33 188 -33q115 0 151.5 59t-12.5 160l-418 902h403q195 -455 313 -764h5q80 241 274 764h400l-449 -982q-65 -138 -118 -208q-170 -223 -473 -223zM176 1106l279 328h483l276 -328h-342l-174 184h-5l-175 -184h-342z"></glyph>
    <glyph glyph-name="ydieresis.ss02" horiz-adv-x="1386" d="M350 -389q-74 0 -148.5 12t-115.5 29v284q97 -33 188 -33q115 0 151.5 59t-12.5 160l-418 902h403q195 -455 313 -764h5q80 241 274 764h400l-449 -982q-65 -138 -118 -208q-170 -223 -473 -223zM308 1139v295h314v-295h-314zM768 1139v295h315v-295h-315z"></glyph>
    <glyph glyph-name="ygrave.ss02" horiz-adv-x="1386" d="M350 -389q-74 0 -148.5 12t-115.5 29v284q97 -33 188 -33q115 0 151.5 59t-12.5 160l-418 902h403q195 -455 313 -764h5q80 241 274 764h400l-449 -982q-65 -138 -118 -208q-170 -223 -473 -223zM146 1434h436l328 -328h-374z"></glyph>
    <glyph glyph-name="zacute.loclPLK" horiz-adv-x="1314" d="M94 285q392 284 653 454v4h-612v281h1065v-285q-392 -284 -653 -454v-4h653v-281h-1106v285zM486 1106l146 328h420l-225 -328h-341z"></glyph>
    <glyph glyph-name="t_t" horiz-adv-x="2101" d="M35 750v253h271v308l386 -21v-287h562v308l386 -21v-266h348v-274h-348v-236q0 -38 3.5 -68t16.5 -63.5t34.5 -55.5t60.5 -36.5t92 -14.5q83 0 141 29v-293q-96 -33 -245 -33q-246 0 -367.5 121t-121.5 367v283h-562v-236q0 -38 3.5 -68t16.5 -63.5t34.5 -55.5
t60.5 -36.5t92 -14.5q83 0 141 29v-293q-96 -33 -245 -33q-246 0 -367.5 121t-121.5 367v283h-271z"></glyph>
    <glyph glyph-name="zero.osf" horiz-adv-x="1536" d="M768 -20q-307 0 -487.5 163t-180.5 441t180.5 441t487.5 163q306 0 487 -163t181 -441q0 -277 -180.5 -440.5t-487.5 -163.5zM502 629q0 -149 82 -244.5t218 -95.5q111 0 171.5 64.5t60.5 184.5q0 148 -82.5 244.5t-218.5 96.5q-110 0 -170.5 -65t-60.5 -185z"></glyph>
    <glyph glyph-name="zero.tf" horiz-adv-x="1634" d="M817 -20q-336 0 -533.5 199t-197.5 539t197.5 538.5t533.5 198.5t533.5 -198.5t197.5 -538.5t-197.5 -539t-533.5 -199zM504 767q0 -205 94.5 -332.5t253.5 -127.5q130 0 202.5 91.5t75.5 259.5q3 132 -35 236.5t-119 168.5t-193 64q-132 0 -205.5 -93t-73.5 -267z"></glyph>
    <glyph glyph-name="one.osf" horiz-adv-x="1024" d="M453 0v680h-385v278h265h59.5t38 6t25.5 10.5t11 24t6 35.5v56v86h364v-1176h-384z"></glyph>
    <glyph glyph-name="one.tf" horiz-adv-x="1634" d="M151 0v295h568v586h-568v295h479q72 0 89.5 17t17.5 86v158h386v-1142h361v-295h-1333z"></glyph>
    <glyph glyph-name="two.osf" horiz-adv-x="1486" d="M119 0q-5 115 3.5 199t40.5 149t70 108t115 83t150 66.5t199 65.5q21 6 58.5 17t57.5 17t49 16t45 19t32 20.5t23 24.5t7 29q0 45 -55 70t-155 25q-104 0 -166 -36.5t-70 -102.5l-405 -2q7 203 172 313.5t456 110.5q286 0 450.5 -99.5t164.5 -279.5q0 -69 -31 -126.5
t-70 -93.5t-117 -73t-128 -54.5t-148 -48.5q-29 -9 -44 -14q-207 -65 -250 -86q-24 -13 -38 -26h821v-291h-1237z"></glyph>
    <glyph glyph-name="two.tf" horiz-adv-x="1634" d="M114 0q-6 131 4 227t45 172.5t80 128.5t130.5 101t173 84t229.5 82q16 5 53.5 17t54.5 17.5t49 17t48 19.5l40 20t35.5 23.5t25 26t18.5 31t5 35.5q0 66 -71.5 106t-195.5 40q-135 0 -212.5 -51t-87.5 -151l-426 -3q7 244 196.5 378t517.5 134q313 0 502 -120.5
t189 -333.5q0 -59 -16 -110t-45.5 -91t-70.5 -74t-91 -62t-106.5 -52t-117.5 -46t-124 -44q-26 -9 -39 -13q-206 -70 -279.5 -107.5t-92.5 -94.5h977v-307h-1398z"></glyph>
    <glyph glyph-name="three.osf" horiz-adv-x="1509" d="M766 -139q-303 0 -477.5 129.5t-172.5 362.5h407q1 -99 67.5 -151t190.5 -52q100 0 157 32.5t57 90.5t-58 89.5t-166 31.5h-122v262h121q108 0 165 31.5t57 89.5t-58.5 90.5t-156.5 32.5q-121 0 -186 -51.5t-68 -150.5h-405q-2 231 171.5 360.5t474.5 129.5
q178 0 318 -45t220 -128.5t81 -192.5q1 -108 -78.5 -182t-232.5 -111v-4q157 -37 237 -111.5t80 -182.5q0 -166 -175 -268t-448 -102z"></glyph>
    <glyph glyph-name="three.tf" horiz-adv-x="1634" d="M829 -20q-339 0 -535 143t-195 400h428q2 -117 84 -178t233 -61q124 0 195.5 39.5t71.5 109.5t-73 109t-210 39h-158v276h156q136 0 209 38.5t73 108.5t-72.5 108.5t-195.5 38.5q-149 0 -229 -60t-84 -176h-425q-1 254 193.5 397t531.5 143q201 0 358.5 -50t245.5 -142.5
t88 -211.5q0 -120 -89.5 -205t-256.5 -123v-4q170 -38 261 -124t91 -208q0 -121 -89 -214t-247 -143t-360 -50z"></glyph>
    <glyph glyph-name="four.osf" horiz-adv-x="1603" d="M896 -123v365h-826v276l695 649h505v-653h267v-272h-267v-365h-374zM501 518l2 -4h399q0 231 7 414h-5q-141 -153 -403 -410z"></glyph>
    <glyph glyph-name="four.tf" horiz-adv-x="1634" d="M926 0v414h-896v291l754 730h528v-734h293v-287h-293v-414h-386zM483 705l2 -4h447q0 265 7 481h-5q-140 -159 -451 -477z"></glyph>
    <glyph glyph-name="five.osf" horiz-adv-x="1527" d="M788 -141q-297 0 -473.5 123t-189.5 343h415q20 -81 90.5 -127t178.5 -46q99 0 155.5 42t56.5 117q0 90 -67.5 145.5t-178.5 55.5q-147 0 -221 -93h-412l116 748h1067v-291h-754l-38 -209h5q59 51 158 81.5t214 30.5q232 0 370 -121t138 -328q0 -94 -31 -172t-86.5 -133
t-134.5 -92.5t-173.5 -55.5t-204.5 -18z"></glyph>
    <glyph glyph-name="five.tf" horiz-adv-x="1634" d="M842 -20q-330 0 -527 136t-211 380h437q20 -97 105 -152t218 -55q123 0 193 50.5t70 142.5q0 106 -81 171t-215 65q-88 0 -159.5 -29.5t-112.5 -81.5h-434l129 829h1185v-308h-854l-49 -259h5q66 60 181.5 96t249.5 36q261 0 416.5 -134.5t155.5 -363.5
q0 -130 -52.5 -230.5t-147 -164t-221.5 -96t-281 -32.5z"></glyph>
    <glyph glyph-name="six.osf" horiz-adv-x="1550" d="M808 -18q-323 0 -509 175.5t-191 477.5q-2 133 43.5 253t131.5 214.5t223.5 150.5t308.5 56q236 0 397.5 -105t202.5 -295h-386q-21 52 -81 83.5t-153 31.5q-154 0 -226.5 -94t-71.5 -289q50 104 161.5 160.5t266.5 56.5q226 0 366.5 -113t140.5 -303q0 -214 -169.5 -337
t-454.5 -123zM554 455q0 -83 73.5 -137t184.5 -54q101 0 162.5 43t61.5 111q0 83 -73.5 136.5t-184.5 53.5q-102 0 -163 -42.5t-61 -110.5z"></glyph>
    <glyph glyph-name="six.tf" horiz-adv-x="1634" d="M861 -20q-359 0 -566 194t-209 523q-1 159 49.5 296.5t146.5 240.5t245 162t335 59q261 0 438 -115t221 -325h-403q-23 63 -94 97t-179 34q-186 0 -270.5 -106t-81.5 -336q56 118 180 182.5t302 64.5q254 0 410.5 -125.5t156.5 -338.5q0 -155 -86 -270.5t-240 -176
t-355 -60.5zM554 500q0 -97 87 -159t221 -62q120 0 193.5 51t73.5 136q0 96 -87.5 158.5t-222.5 62.5q-121 0 -193 -51t-72 -136z"></glyph>
    <glyph glyph-name="seven.osf" horiz-adv-x="1310" d="M234 -123q4 295 155 544t425 431v4h-757v311h1197v-315q-295 -161 -457.5 -411t-164.5 -564h-398z"></glyph>
    <glyph glyph-name="seven.tf" horiz-adv-x="1634" d="M328 0q4 333 193.5 613t544.5 490v4h-980v328h1463v-332q-385 -188 -592 -469.5t-209 -633.5h-420z"></glyph>
    <glyph glyph-name="eight.osf" horiz-adv-x="1492" d="M746 -18q-280 0 -452.5 102t-172.5 267q0 108 82.5 186t228.5 109v3q-143 31 -224 108.5t-81 185.5q0 162 171.5 264t447.5 102t447 -102t171 -266q0 -107 -80.5 -183.5t-223.5 -108.5v-3q145 -31 227.5 -109.5t82.5 -187.5q0 -163 -172 -265t-452 -102zM510 396
q0 -63 67.5 -101.5t181.5 -38.5q102 0 162 32.5t60 89.5q0 63 -68 101t-180 38q-103 0 -163 -32t-60 -89zM515 915q0 -61 66 -98t178 -37q100 0 158.5 31.5t58.5 86.5q0 61 -66 98.5t-178 37.5q-100 0 -158.5 -31.5t-58.5 -87.5z"></glyph>
    <glyph glyph-name="eight.tf" horiz-adv-x="1634" d="M817 -20q-316 0 -511 113t-195 294q0 123 94.5 210t265.5 122v4q-167 34 -260 121t-93 208q0 117 85.5 209t245 143.5t367.5 51.5q313 0 506 -112.5t193 -292.5q0 -121 -92.5 -207t-260.5 -121v-4q170 -35 265 -122.5t95 -210.5q0 -118 -87 -210.5t-248 -144t-370 -51.5z
M521 436q0 -77 82.5 -122t227.5 -45q134 0 207.5 39t73.5 109q0 76 -82.5 121t-227.5 45q-134 0 -207.5 -38.5t-73.5 -108.5zM526 1021q0 -75 81 -118t223 -43q132 0 205 37.5t73 105.5q0 75 -81.5 119.5t-223.5 44.5q-131 0 -204 -38.5t-73 -107.5z"></glyph>
    <glyph glyph-name="nine.osf" horiz-adv-x="1550" d="M742 1186q323 0 509 -176t191 -478q2 -133 -43.5 -253t-132 -214.5t-224 -150t-308.5 -55.5q-236 0 -397 104.5t-202 294.5h385q21 -52 81 -83.5t153 -31.5q154 0 226.5 94.5t71.5 289.5q-51 -104 -161.5 -161t-265.5 -57q-226 0 -366.5 113t-140.5 303
q0 214 169.5 337.5t454.5 123.5zM513 750q0 -83 73.5 -137t184.5 -54q102 0 163 43t61 111q0 83 -73 136.5t-184 53.5q-101 0 -163 -42.5t-62 -110.5z"></glyph>
    <glyph glyph-name="nine.tf" horiz-adv-x="1634" d="M773 1454q359 0 566 -194.5t209 -523.5q1 -159 -49.5 -296.5t-146.5 -240.5t-245 -162t-335 -59q-261 0 -438 115t-221 325h403q22 -63 93.5 -96.5t179.5 -33.5q186 0 271 105.5t82 335.5q-56 -118 -180.5 -182.5t-302.5 -64.5q-254 0 -410.5 126t-156.5 339
q0 155 86 270.5t240 176t355 60.5zM505 967q0 -96 87.5 -158.5t222.5 -62.5q121 0 193 51t72 136q0 97 -87 159.5t-221 62.5q-120 0 -193.5 -51.5t-73.5 -136.5z"></glyph>
    <glyph glyph-name="zero.dnom" horiz-adv-x="1015" d="M506 -12q-203 0 -322.5 112t-119.5 301t119.5 301.5t322.5 112.5q204 0 324.5 -112.5t120.5 -301.5t-121 -301t-324 -112zM361 434q0 -93 47 -155t122 -62q59 0 91 39.5t32 112.5q0 94 -46.5 155.5t-121.5 61.5q-59 0 -91.5 -39.5t-32.5 -112.5z"></glyph>
    <glyph glyph-name="one.dnom" horiz-adv-x="686" d="M277 0v449h-249v204h161h43t28 4.5t18.5 7.5t8 17.5t4.5 26.5v41v53h270v-803h-284z"></glyph>
    <glyph glyph-name="two.dnom" horiz-adv-x="999" d="M81 0q-2 61 0.5 108.5t13.5 87t24 69t39.5 55t51.5 43t68.5 36.5t82.5 33t101 33q108 32 132 47q29 17 29 38q0 27 -29.5 43t-83.5 16q-116 0 -129 -85l-302 -2q5 141 116.5 217t306.5 76q186 0 299 -69.5t113 -195.5q0 -39 -11.5 -71t-36.5 -57t-50.5 -43t-69.5 -36
t-75.5 -28.5t-85.5 -27.5q-19 -6 -29 -9q-13 -4 -33 -10t-29.5 -9t-24 -7.5t-21.5 -7t-17 -6.5t-15 -7t-11 -6.5t-9.5 -7.5t-6.5 -8h520v-209h-828z"></glyph>
    <glyph glyph-name="three.dnom" horiz-adv-x="1005" d="M511 -11q-207 0 -323 81t-115 233h301q1 -106 143 -106q114 0 114 61q0 57 -111 57h-71v174h69q111 0 111 58q0 60 -115 60q-137 0 -140 -106h-300q-1 151 114.5 232t321.5 81q185 0 297.5 -63t113.5 -164q1 -67 -51.5 -114.5t-149.5 -68.5v-2q98 -21 151 -68.5
t53 -115.5q0 -103 -113 -166t-300 -63z"></glyph>
    <glyph glyph-name="four.dnom" horiz-adv-x="1067" d="M583 0v211h-549v202l449 390h375v-393h166v-199h-166v-211h-275zM355 413l1 -3h231q0 101 5 218h-3q-54 -53 -234 -215z"></glyph>
    <glyph glyph-name="five.dnom" horiz-adv-x="1011" d="M520 -12q-196 0 -315 72t-128 202h309q29 -59 144 -59q54 0 85 18.5t31 54.5q0 41 -37.5 68t-98.5 27q-79 0 -122 -41h-302l78 473h717v-201h-486l-20 -92h5q88 33 224 33q158 0 247.5 -65t89.5 -191q0 -76 -32 -134t-89.5 -93.5t-133 -53.5t-166.5 -18z"></glyph>
    <glyph glyph-name="six.dnom" horiz-adv-x="1013" d="M530 -12q-223 0 -348 117t-125 292q0 77 30 150t86.5 134t149 97.5t207.5 36.5q156 0 263 -64.5t137 -181.5h-293q-41 44 -123 44q-187 0 -190 -241h2q27 63 103 100t187 37q146 0 236.5 -62t90.5 -170q0 -131 -113.5 -210t-299.5 -79zM387 283q0 -37 39.5 -61t103.5 -24
q54 0 86.5 18.5t32.5 51.5q0 37 -39.5 62t-103.5 25q-54 0 -86.5 -19.5t-32.5 -52.5z"></glyph>
    <glyph glyph-name="seven.dnom" horiz-adv-x="851" d="M142 0q3 181 101 332.5t270 247.5v2h-476v221h799v-223q-182 -78 -289 -232.5t-108 -347.5h-297z"></glyph>
    <glyph glyph-name="eight.dnom" horiz-adv-x="993" d="M496 -11q-189 0 -303 63.5t-114 166.5q0 67 51.5 115t146.5 68v2q-92 19 -143 67t-51 115q0 102 113 165t299 63q187 0 300 -63.5t113 -165.5q0 -66 -50.5 -113t-143.5 -68v-2q94 -19 146.5 -67.5t52.5 -116.5q0 -103 -115 -166t-302 -63zM368 257q0 -30 38 -49.5
t101 -19.5q53 0 84.5 14.5t31.5 40.5q0 30 -38 49.5t-101 19.5q-53 0 -84.5 -14.5t-31.5 -40.5zM371 561q0 -29 37 -47.5t98 -18.5q53 0 83.5 14t30.5 39q0 30 -37 48.5t-98 18.5q-52 0 -83 -14.5t-31 -39.5z"></glyph>
    <glyph glyph-name="nine.dnom" horiz-adv-x="1013" d="M483 815q223 0 348 -117t125 -292q0 -77 -29.5 -150t-86 -134t-149 -97.5t-207.5 -36.5q-156 0 -263 64.5t-137 180.5h293q41 -44 122 -44q187 0 190 241h-2q-27 -63 -102.5 -99.5t-186.5 -36.5q-146 0 -236.5 62t-90.5 170q0 131 113 210t299 79zM364 535
q0 -37 39.5 -62t103.5 -25q55 0 87.5 19t32.5 52q0 37 -40 61.5t-104 24.5q-54 0 -86.5 -18.5t-32.5 -51.5z"></glyph>
    <glyph glyph-name="zero.numr" horiz-adv-x="1015" d="M506 618q-203 0 -322.5 112.5t-119.5 301.5t119.5 301.5t322.5 112.5q204 0 324.5 -112.5t120.5 -301.5t-121 -301.5t-324 -112.5zM361 1064q0 -93 47 -154.5t122 -61.5q59 0 91 39.5t32 112.5q0 93 -46.5 154.5t-121.5 61.5q-59 0 -91.5 -39.5t-32.5 -112.5z"></glyph>
    <glyph glyph-name="one.numr" horiz-adv-x="686" d="M277 631v448h-249v205h161q77 0 89.5 12t12.5 84v54h270v-803h-284z"></glyph>
    <glyph glyph-name="two.numr" horiz-adv-x="999" d="M81 631q-2 61 0.5 108.5t13.5 87t24 69t39.5 55t51.5 43t68.5 36.5t82.5 33t101 33q108 32 132 47q29 17 29 38q0 27 -29.5 43t-83.5 16q-116 0 -129 -85l-302 -2q5 141 116.5 217t306.5 76q186 0 299 -69.5t113 -195.5q0 -39 -11.5 -71t-36.5 -57t-50.5 -43t-69.5 -36
t-75.5 -28.5t-85.5 -27.5q-19 -6 -29 -9q-13 -4 -33 -10t-29.5 -9t-24 -7.5t-21.5 -7t-17 -6.5t-15 -7t-11 -6.5t-9.5 -7.5t-6.5 -8h520v-209h-828z"></glyph>
    <glyph glyph-name="three.numr" horiz-adv-x="1005" d="M511 619q-207 0 -323 81.5t-115 233.5h301q1 -106 143 -106q114 0 114 61q0 57 -111 57h-71v174l69 -1q111 0 111 58q0 60 -115 60q-70 0 -104.5 -25.5t-35.5 -79.5h-300q-1 151 114.5 232t321.5 81q185 0 297.5 -63t113.5 -164q1 -67 -51.5 -114.5t-149.5 -68.5v-2
q98 -21 151 -69t53 -116q0 -103 -113 -166t-300 -63z"></glyph>
    <glyph glyph-name="four.numr" horiz-adv-x="1067" d="M583 631v211h-549v202l449 390h375v-393h166v-199h-166v-211h-275zM355 1044l1 -3h231q0 101 5 218h-3q-54 -54 -234 -215z"></glyph>
    <glyph glyph-name="five.numr" horiz-adv-x="1011" d="M520 618q-196 0 -315 72.5t-128 202.5h309q29 -59 144 -59q54 0 85 18.5t31 54.5q0 41 -37.5 67.5t-98.5 26.5q-81 0 -122 -40h-302l78 473h717v-201h-486l-20 -92h5q88 33 224 33q158 0 247.5 -65t89.5 -191q0 -149 -116 -224.5t-305 -75.5z"></glyph>
    <glyph glyph-name="six.numr" horiz-adv-x="1013" d="M530 618q-113 0 -204 32.5t-149 89t-89 130.5t-31 158q0 77 30 150t86.5 134t149 97.5t207.5 36.5q156 0 263 -64.5t137 -181.5h-293q-41 44 -123 44q-187 0 -190 -241h2q27 63 103 100t187 37q146 0 236.5 -62.5t90.5 -170.5q0 -131 -113.5 -210t-299.5 -79zM387 914
q0 -37 39.5 -61.5t103.5 -24.5q54 0 86.5 19t32.5 52q0 37 -39.5 62t-103.5 25q-54 0 -86.5 -19.5t-32.5 -52.5z"></glyph>
    <glyph glyph-name="seven.numr" horiz-adv-x="851" d="M142 631q3 181 101 331.5t270 247.5v2h-476v222h799v-224q-183 -78 -289.5 -232t-107.5 -347h-297z"></glyph>
    <glyph glyph-name="eight.numr" horiz-adv-x="993" d="M496 619q-189 0 -303 64t-114 167q0 67 51.5 115t146.5 68v2q-92 19 -143 67t-51 115q0 102 113 165t299 63q187 0 300 -63.5t113 -165.5q0 -66 -50.5 -113t-143.5 -68v-2q94 -19 146.5 -68t52.5 -117q0 -103 -115 -166t-302 -63zM368 888q0 -30 38 -49.5t101 -19.5
q53 0 84.5 14.5t31.5 40.5q0 30 -38 49.5t-101 19.5q-53 0 -84.5 -14.5t-31.5 -40.5zM371 1192q0 -29 37 -47.5t98 -18.5q53 0 83.5 14t30.5 39q0 30 -36.5 48t-98.5 18q-53 0 -83.5 -14t-30.5 -39z"></glyph>
    <glyph glyph-name="nine.numr" horiz-adv-x="1013" d="M483 1446q223 0 348 -117t125 -292q0 -77 -29.5 -150t-86 -134t-149 -97.5t-207.5 -36.5q-156 0 -263 64.5t-137 180.5h293q41 -44 122 -44q187 0 190 241h-2q-27 -63 -102.5 -99.5t-186.5 -36.5q-146 0 -236.5 62t-90.5 170q0 131 113 210t299 79zM364 1166
q0 -37 39.5 -62.5t103.5 -25.5q55 0 87.5 19.5t32.5 52.5q0 37 -40 61.5t-104 24.5q-54 0 -86.5 -18.5t-32.5 -51.5z"></glyph>
    <glyph glyph-name="period.tf" horiz-adv-x="817" d="M211 0v328h394v-328h-394z"></glyph>
    <glyph glyph-name="comma.tf" horiz-adv-x="817" d="M73 -231l296 559h375l-336 -559h-335z"></glyph>
    <glyph glyph-name="colon.case" horiz-adv-x="829" d="M218 186v328h394v-328h-394zM218 838v327h394v-327h-394z"></glyph>
    <glyph glyph-name="exclamdown.case" horiz-adv-x="796" d="M543 983l70 -983h-430l71 983h289zM201 1106v328h394v-328h-394z"></glyph>
    <glyph glyph-name="questiondown.case" horiz-adv-x="1533" d="M1237 981q5 -62 -0.5 -107t-25.5 -82t-51.5 -63.5t-85.5 -49t-118.5 -39t-159.5 -34.5q-151 -27 -204 -49q-101 -41 -101 -119q0 -67 69.5 -109t184.5 -42q137 0 212 62.5t77 180.5l420 3q4 -176 -81 -301.5t-244.5 -188.5t-378.5 -63q-306 0 -483.5 120.5t-177.5 331.5
q0 178 126 287t357 148q201 35 239 49q37 15 52 46q3 7 7 19h367zM860 1104v328h394v-328h-394z"></glyph>
    <glyph glyph-name="parenleft.case" horiz-adv-x="849" d="M457 -82q-160 126 -259.5 343t-99.5 456t99.5 455.5t259.5 342.5h371q-181 -154 -280.5 -358t-99.5 -423q0 -236 109.5 -449t308.5 -367h-409z"></glyph>
    <glyph glyph-name="parenright.case" horiz-adv-x="847" d="M391 1516q160 -126 259.5 -343t99.5 -456t-99.5 -456t-259.5 -343h-371q181 154 280.5 358.5t99.5 423.5q0 236 -109.5 449t-308.5 367h409z"></glyph>
    <glyph glyph-name="braceleft.case" horiz-adv-x="1169" d="M883 -82q-193 0 -305 42t-159.5 127t-47.5 228v64q0 91 -53 132.5t-170 41.5h-94v328h94q117 0 170 41.5t53 132.5v63q0 143 47.5 228t159.5 127t305 42h213v-270h-164q-112 0 -162 -38.5t-50 -123.5v-53q0 -149 -77.5 -224.5t-243.5 -86.5v-4q166 -11 243.5 -87
t77.5 -225v-53q0 -85 50 -123.5t162 -38.5h164v-270h-213z"></glyph>
    <glyph glyph-name="braceright.case" horiz-adv-x="1169" d="M285 1516q145 0 243 -22.5t158 -72.5t85.5 -123t25.5 -180v-63q0 -91 53 -132.5t170 -41.5h94v-328h-94q-117 0 -170 -41.5t-53 -132.5v-64q0 -143 -47.5 -228t-159.5 -127t-305 -42h-212v270h164q112 0 161.5 38.5t49.5 123.5v53q0 149 78 225t244 87v4
q-166 11 -244 86.5t-78 224.5v53q0 85 -49.5 123.5t-161.5 38.5h-164v271h212z"></glyph>
    <glyph glyph-name="bracketleft.case" horiz-adv-x="1050" d="M187 -82v1598h792v-271h-442v-1057h442v-270h-792z"></glyph>
    <glyph glyph-name="bracketright.case" horiz-adv-x="1050" d="M864 1516v-1598h-791v270h441v1057h-442v271h792z"></glyph>
    <glyph glyph-name="cent.osf" horiz-adv-x="1314" d="M658 199q-238 0 -388.5 118.5t-150.5 306.5q0 160 111 272t296 144l-49 291h121l47 -280h12q218 0 364 -102.5t171 -268.5h-382q-44 104 -176 104q-68 0 -106 -32.5t-38 -93.5q0 -42 18.5 -84t63.5 -75.5t108 -33.5q69 0 107 35t38 92h372q-16 -149 -125.5 -251.5
t-284.5 -131.5l52 -311h-121l-50 301h-10z"></glyph>
    <glyph glyph-name="currency.osf" horiz-adv-x="1624" d="M811 246q-120 0 -219 31l-270 -225l-191 211l226 188q-51 85 -51 194t51 194l-226 189l191 210l269 -225q99 31 219 31t221 -31l270 225l190 -210l-225 -189q50 -83 50 -194t-50 -194l225 -188l-190 -211l-270 225q-101 -31 -220 -31zM600 649q0 -66 57.5 -104.5
t155.5 -38.5q96 0 153 36.5t57 98.5q0 67 -58 106t-157 39q-95 0 -151.5 -37t-56.5 -100z"></glyph>
    <glyph glyph-name="dollar.osf" horiz-adv-x="1636" d="M901 -203l-36 220q-292 2 -475 119t-201 318h405q41 -135 225 -161l-35 213l-210 14q-222 16 -337 104t-115 240q0 168 144.5 277.5t390.5 129.5l-37 222h113l36 -218q293 -2 476.5 -118t201.5 -317h-406q-46 136 -226 159l35 -211l210 -14q222 -16 337 -104t115 -241
q0 -169 -144.5 -278.5t-390.5 -129.5l37 -224h-113zM511 897q0 -47 44 -69t127 -28l54 -3l-35 206q-87 -5 -138.5 -32.5t-51.5 -73.5zM898 498l34 -209q88 5 140.5 33.5t52.5 73.5q0 86 -180 98z"></glyph>
    <glyph glyph-name="Euro.osf" horiz-adv-x="2023" d="M1124 -20q-278 0 -461.5 120t-244.5 336h-272v174h245v33q0 35 1 52h-246v173h277q64 207 246.5 322.5t454.5 115.5q302 0 498 -141t243 -377h-446q-43 114 -124.5 165.5t-202.5 51.5q-199 0 -271 -137h398l-32 -173h-404v-11q0 -42 4 -74h380l-32 -174h-292
q93 -155 293 -155q141 0 221.5 76t92.5 207h426q-26 -267 -228 -425.5t-524 -158.5z"></glyph>
    <glyph glyph-name="sterling.osf" horiz-adv-x="1843" d="M178 129q104 133 146 245.5t27 229.5h-221v174h195q-6 168 77.5 288.5t234.5 180.5t355 60q283 0 465 -131t223 -349h-436q-70 181 -279 181q-116 0 -177.5 -56.5t-56.5 -173.5h427v-174h-408q-15 -135 -128 -247l4 -6q65 18 139.5 18t126.5 -10.5t110.5 -23.5t80.5 -15
q82 -9 123.5 41.5t56.5 173.5h426q-17 -245 -147.5 -400t-336.5 -155q-80 0 -169.5 23t-154.5 44.5t-135.5 32t-142 -17.5t-144.5 -102z"></glyph>
    <glyph glyph-name="yen.osf" horiz-adv-x="1769" d="M232 472v174h328l-492 644h467q240 -340 351 -517h5q111 177 351 517h459l-492 -644h328v-174h-458v-85h458v-174h-458v-213h-389v213h-458v174h458v85h-458z"></glyph>
    <glyph glyph-name="percent.osf" horiz-adv-x="2756" d="M758 0l897 1290h342l-896 -1290h-343zM112 892q0 192 142.5 304.5t382.5 112.5t382.5 -112.5t142.5 -304.5t-142.5 -304.5t-382.5 -112.5t-382.5 112.5t-142.5 304.5zM453 913q0 -88 55.5 -141t149.5 -53q77 0 120 38t43 107q0 91 -55.5 145.5t-148.5 54.5
q-77 0 -120.5 -39.5t-43.5 -111.5zM1592 399q0 191 142.5 303.5t383.5 112.5t383 -112t142 -304t-142.5 -304.5t-382.5 -112.5q-241 0 -383.5 112.5t-142.5 304.5zM1934 419q0 -88 55.5 -140.5t149.5 -52.5q77 0 120 38t43 107q0 91 -55.5 145.5t-148.5 54.5
q-77 0 -120.5 -40t-43.5 -112z"></glyph>
    <glyph glyph-name="acutecomb.loclPLK" d="M453 1106l146 328h420l-225 -328h-341z"></glyph>
    <glyph glyph-name="caroncommacomb" horiz-adv-x="1228" d="M862 1434l-140 -287h-355l180 287h315z"></glyph>
    </font>
</defs>
</svg>
